/* XPM */
static char * ball_up_xpm[] = {
"20 20 161 2",
"  	c None",
". 	c #7E7D35",
"+ 	c #CDCA5A",
"@ 	c #CFCD59",
"# 	c #D2CF5A",
"$ 	c #D2D253",
"% 	c #CFCF52",
"& 	c #D2D352",
"* 	c #CFD052",
"= 	c #D7CE53",
"- 	c #D0C853",
"; 	c #7E7C35",
"> 	c #A7A94C",
", 	c #BFC12C",
"' 	c #E7EE21",
") 	c #F0F11C",
"! 	c #F7F31C",
"~ 	c #F6F31F",
"{ 	c #F8F41F",
"] 	c #F6F320",
"^ 	c #F7F420",
"/ 	c #F7F31E",
"( 	c #FAF61E",
"_ 	c #F1EF21",
": 	c #C2BF3F",
"< 	c #C1C56B",
"[ 	c #6C7423",
"} 	c #C5C734",
"| 	c #E9EE2B",
"1 	c #EDF318",
"2 	c #F2F215",
"3 	c #F7F115",
"4 	c #F8F116",
"5 	c #F7F114",
"6 	c #F7F219",
"7 	c #EDEB36",
"8 	c #DAD74A",
"9 	c #B8A741",
"0 	c #8F9853",
"a 	c #C2D454",
"b 	c #E4EE22",
"c 	c #F5F617",
"d 	c #F2F61D",
"e 	c #F7F41B",
"f 	c #F8F117",
"g 	c #F8F317",
"h 	c #F7F512",
"i 	c #F2E724",
"j 	c #DDCA57",
"k 	c #ACA85E",
"l 	c #AEB42C",
"m 	c #ECF02C",
"n 	c #F1F51D",
"o 	c #F7F619",
"p 	c #F8F518",
"q 	c #F8F318",
"r 	c #F8F217",
"s 	c #F9F217",
"t 	c #F8F316",
"u 	c #F6F12B",
"v 	c #DDDA2B",
"w 	c #B2B51F",
"x 	c #F1F21B",
"y 	c #F6F413",
"z 	c #F9F517",
"A 	c #F9F418",
"B 	c #F9F317",
"C 	c #F9F318",
"D 	c #FAF317",
"E 	c #FAF316",
"F 	c #FAF315",
"G 	c #FAF517",
"H 	c #D7D718",
"I 	c #B5B51E",
"J 	c #F4F11B",
"K 	c #F9F518",
"L 	c #F9F417",
"M 	c #FAF417",
"N 	c #FBF519",
"O 	c #DFDF1B",
"P 	c #B8B71E",
"Q 	c #F7F21C",
"R 	c #F9F416",
"S 	c #FAF416",
"T 	c #FBF618",
"U 	c #DFD71C",
"V 	c #B5B41E",
"W 	c #F5F11B",
"X 	c #FAF418",
"Y 	c #E1DB15",
"Z 	c #B7B61E",
"` 	c #F9F316",
" .	c #FAF51A",
"..	c #DBDA12",
"+.	c #B4B522",
"@.	c #F4F219",
"#.	c #E0DE16",
"$.	c #B6B92C",
"%.	c #F2F21B",
"&.	c #F8F315",
"*.	c #DEDE19",
"=.	c #B1B523",
"-.	c #F0F21B",
";.	c #F6F312",
">.	c #F7F514",
",.	c #F5F518",
"'.	c #F6F71D",
").	c #DDDE1D",
"!.	c #ADB31E",
"~.	c #E2EB19",
"{.	c #EEEE11",
"].	c #F6F61A",
"^.	c #EBF31C",
"/.	c #E5E818",
"(.	c #CECF14",
"_.	c #9D9A09",
":.	c #D9D915",
"<.	c #F7F71B",
"[.	c #F8F417",
"}.	c #EFF61D",
"|.	c #E1E61E",
"1.	c #A2A617",
"2.	c #C3C60D",
"3.	c #D4DA10",
"4.	c #F5F218",
"5.	c #F9F516",
"6.	c #F9F515",
"7.	c #F8F515",
"8.	c #FAF619",
"9.	c #F6F319",
"0.	c #BAC112",
"a.	c #868813",
"b.	c #9D9C0B",
"c.	c #EDEC19",
"d.	c #F0F215",
"e.	c #F7F515",
"f.	c #F6F512",
"g.	c #F8F511",
"h.	c #FAF514",
"i.	c #F9F514",
"j.	c #F7F518",
"k.	c #EEEC18",
"l.	c #A2A00A",
"m.	c #DADA12",
"n.	c #C9CA31",
"o.	c #F5F33B",
"p.	c #F7F62C",
"q.	c #F8F627",
"r.	c #F8F62F",
"s.	c #F7F51E",
"t.	c #F6F52A",
"u.	c #CFCD26",
"v.	c #A4A20C",
"w.	c #B7B42B",
"x.	c #C6C525",
"y.	c #C9CB1B",
"z.	c #C9CB18",
"A.	c #C9CB1C",
"B.	c #C9CB12",
"C.	c #C8CA1A",
"D.	c #8E8F15",
"                                        ",
"        . + @ # $ % & * = - + ;         ",
"      > , ' ) ! ~ { ] ^ / ( _ : <       ",
"    [ } | 1 2 3 3 4 3 5 3 4 6 7 8 9     ",
"  0 a b c d e f f f f 4 f f g h i j k   ",
"  l m n o p q r r r r r f s s t g u v   ",
"  w x y z A B B B C C B B B D E F G H   ",
"  I J t K L L L L B M D E E M E E N O   ",
"  P Q B L L L L R R G S S S G D F T U   ",
"  V W t L R R R R R L R R R M D E X Y   ",
"  Z W g L R R R R L L ` R R L L `  ...  ",
"  +.@.g L R R R R L L B B R L L L L #.  ",
"  $.%.&.L R R R R L L L L B L z z L *.  ",
"  =.-.;.R L L R R R L L L B g >.,.'.).  ",
"  !.~.{.R L R R R R G L L R L ].^./.(.  ",
"    _.:.<.[.R S L L K L L L [.}.|.1.    ",
"      2.3.4.5.6.7.7.6.R R 8.9.3.0.a.    ",
"        b.c.d.e.f.g.h.i.7.j.k.l.        ",
"          m.n.o.p.q.r.s.t.u.v.          ",
"            w.x.y.z.A.B.C.D.            "};
