/* XPM */
static char * ball_down_xpm[] = {
"20 20 161 2",
"  	c None",
". 	c #8E8F15",
"+ 	c #C8CA1A",
"@ 	c #C9CB12",
"# 	c #C9CB1C",
"$ 	c #C9CB18",
"% 	c #C9CB1B",
"& 	c #C6C525",
"* 	c #B7B42B",
"= 	c #A4A20C",
"- 	c #CFCD26",
"; 	c #F6F52A",
"> 	c #F7F51E",
", 	c #F8F62F",
"' 	c #F8F627",
") 	c #F7F62C",
"! 	c #F5F33B",
"~ 	c #C9CA31",
"{ 	c #DADA12",
"] 	c #A2A00A",
"^ 	c #EEEC18",
"/ 	c #F7F518",
"( 	c #F8F515",
"_ 	c #F9F514",
": 	c #FAF514",
"< 	c #F8F511",
"[ 	c #F6F512",
"} 	c #F7F515",
"| 	c #F0F215",
"1 	c #EDEC19",
"2 	c #9D9C0B",
"3 	c #868813",
"4 	c #BAC112",
"5 	c #D4DA10",
"6 	c #F6F319",
"7 	c #FAF619",
"8 	c #F9F416",
"9 	c #F9F515",
"0 	c #F9F516",
"a 	c #F5F218",
"b 	c #C3C60D",
"c 	c #A2A617",
"d 	c #E1E61E",
"e 	c #EFF61D",
"f 	c #F8F417",
"g 	c #F9F417",
"h 	c #F9F518",
"i 	c #FAF416",
"j 	c #F7F71B",
"k 	c #D9D915",
"l 	c #9D9A09",
"m 	c #CECF14",
"n 	c #E5E818",
"o 	c #EBF31C",
"p 	c #F6F61A",
"q 	c #FAF517",
"r 	c #EEEE11",
"s 	c #E2EB19",
"t 	c #ADB31E",
"u 	c #DDDE1D",
"v 	c #F6F71D",
"w 	c #F5F518",
"x 	c #F7F514",
"y 	c #F8F317",
"z 	c #F9F317",
"A 	c #F6F312",
"B 	c #F0F21B",
"C 	c #B1B523",
"D 	c #DEDE19",
"E 	c #F9F517",
"F 	c #F8F315",
"G 	c #F2F21B",
"H 	c #B6B92C",
"I 	c #E0DE16",
"J 	c #F4F219",
"K 	c #B4B522",
"L 	c #DBDA12",
"M 	c #FAF51A",
"N 	c #F9F316",
"O 	c #F5F11B",
"P 	c #B7B61E",
"Q 	c #E1DB15",
"R 	c #FAF418",
"S 	c #FAF316",
"T 	c #FAF317",
"U 	c #FAF417",
"V 	c #F8F316",
"W 	c #B5B41E",
"X 	c #DFD71C",
"Y 	c #FBF618",
"Z 	c #FAF315",
"` 	c #F7F21C",
" .	c #B8B71E",
"..	c #DFDF1B",
"+.	c #FBF519",
"@.	c #F4F11B",
"#.	c #B5B51E",
"$.	c #D7D718",
"%.	c #F9F318",
"&.	c #F9F418",
"*.	c #F6F413",
"=.	c #F1F21B",
"-.	c #B2B51F",
";.	c #DDDA2B",
">.	c #F6F12B",
",.	c #F9F217",
"'.	c #F8F117",
").	c #F8F217",
"!.	c #F8F318",
"~.	c #F8F518",
"{.	c #F7F619",
"].	c #F1F51D",
"^.	c #ECF02C",
"/.	c #AEB42C",
"(.	c #ACA85E",
"_.	c #DDCA57",
":.	c #F2E724",
"<.	c #F7F512",
"[.	c #F8F116",
"}.	c #F7F41B",
"|.	c #F2F61D",
"1.	c #F5F617",
"2.	c #E4EE22",
"3.	c #C2D454",
"4.	c #8F9853",
"5.	c #B8A741",
"6.	c #DAD74A",
"7.	c #EDEB36",
"8.	c #F7F219",
"9.	c #F7F115",
"0.	c #F7F114",
"a.	c #F2F215",
"b.	c #EDF318",
"c.	c #E9EE2B",
"d.	c #C5C734",
"e.	c #6C7423",
"f.	c #C1C56B",
"g.	c #C2BF3F",
"h.	c #F1EF21",
"i.	c #FAF61E",
"j.	c #F7F31E",
"k.	c #F7F420",
"l.	c #F6F320",
"m.	c #F8F41F",
"n.	c #F6F31F",
"o.	c #F7F31C",
"p.	c #F0F11C",
"q.	c #E7EE21",
"r.	c #BFC12C",
"s.	c #A7A94C",
"t.	c #7E7C35",
"u.	c #CDCA5A",
"v.	c #D0C853",
"w.	c #D7CE53",
"x.	c #CFD052",
"y.	c #D2D352",
"z.	c #CFCF52",
"A.	c #D2D253",
"B.	c #D2CF5A",
"C.	c #CFCD59",
"D.	c #7E7D35",
"            . + @ # $ % & *             ",
"          = - ; > , ' ) ! ~ {           ",
"        ] ^ / ( _ : < [ } | 1 2         ",
"    3 4 5 6 7 8 8 9 ( ( 9 0 a 5 b       ",
"    c d e f g g g h g g i 8 f j k l     ",
"  m n o p g 8 g g q 8 8 8 8 g 8 r s t   ",
"  u v w x y z g g g 8 8 8 g g 8 A B C   ",
"  D g E E g z g g g g 8 8 8 8 g F G H   ",
"  I g g g g 8 z z g g 8 8 8 8 g y J K   ",
"  L M N g g 8 8 N g g 8 8 8 8 g y O P   ",
"  Q R S T U 8 8 8 g 8 8 8 8 8 g V O W   ",
"  X Y Z T q i i i q 8 8 g g g g z `  .  ",
"  ..+.S S U S S T U z g g g g h V @.#.  ",
"  $.q Z S T z z z %.%.z z z &.E *.=.-.  ",
"  ;.>.y V ,.,.'.).).).).).!.~.{.].^./.  ",
"  (._.:.<.y '.'.[.'.'.'.'.}.|.1.2.3.4.  ",
"    5.6.7.8.[.9.0.9.[.9.9.a.b.c.d.e.    ",
"      f.g.h.i.j.k.l.m.n.o.p.q.r.s.      ",
"        t.u.v.w.x.y.z.A.B.C.u.D.        ",
"                                        "};
