/* XPM */
static char * ball_right_xpm[] = {
"20 20 161 2",
"  	c None",
". 	c #ADB31E",
"+ 	c #B1B523",
"@ 	c #B6B92C",
"# 	c #B4B522",
"$ 	c #B7B61E",
"% 	c #B5B41E",
"& 	c #B8B71E",
"* 	c #B5B51E",
"= 	c #B2B51F",
"- 	c #AEB42C",
"; 	c #8F9853",
"> 	c #9D9A09",
", 	c #E2EB19",
"' 	c #F0F21B",
") 	c #F2F21B",
"! 	c #F4F219",
"~ 	c #F5F11B",
"{ 	c #F7F21C",
"] 	c #F4F11B",
"^ 	c #F1F21B",
"/ 	c #ECF02C",
"( 	c #C2D454",
"_ 	c #6C7423",
": 	c #C3C60D",
"< 	c #D9D915",
"[ 	c #EEEE11",
"} 	c #F6F312",
"| 	c #F8F315",
"1 	c #F8F317",
"2 	c #F8F316",
"3 	c #F9F317",
"4 	c #F6F413",
"5 	c #F1F51D",
"6 	c #E4EE22",
"7 	c #C5C734",
"8 	c #A7A94C",
"9 	c #9D9C0B",
"0 	c #D4DA10",
"a 	c #F7F71B",
"b 	c #F9F416",
"c 	c #F9F417",
"d 	c #F9F518",
"e 	c #F9F517",
"f 	c #F7F619",
"g 	c #F5F617",
"h 	c #E9EE2B",
"i 	c #BFC12C",
"j 	c #7E7D35",
"k 	c #DADA12",
"l 	c #EDEC19",
"m 	c #F5F218",
"n 	c #F8F417",
"o 	c #F9F418",
"p 	c #F8F518",
"q 	c #F2F61D",
"r 	c #EDF318",
"s 	c #E7EE21",
"t 	c #CDCA5A",
"u 	c #B7B42B",
"v 	c #C9CA31",
"w 	c #F0F215",
"x 	c #F9F516",
"y 	c #F8F318",
"z 	c #F7F41B",
"A 	c #F2F215",
"B 	c #F0F11C",
"C 	c #CFCD59",
"D 	c #C6C525",
"E 	c #F5F33B",
"F 	c #F7F515",
"G 	c #F9F515",
"H 	c #FAF416",
"I 	c #F8F217",
"J 	c #F8F117",
"K 	c #F7F115",
"L 	c #F7F31C",
"M 	c #D2CF5A",
"N 	c #C9CB1B",
"O 	c #F7F62C",
"P 	c #F6F512",
"Q 	c #F8F515",
"R 	c #F6F31F",
"S 	c #D2D253",
"T 	c #C9CB18",
"U 	c #F8F627",
"V 	c #F8F511",
"W 	c #F9F318",
"X 	c #F8F116",
"Y 	c #F8F41F",
"Z 	c #CFCF52",
"` 	c #C9CB1C",
" .	c #F8F62F",
"..	c #FAF514",
"+.	c #FAF517",
"@.	c #FAF417",
"#.	c #F6F320",
"$.	c #D2D352",
"%.	c #C9CB12",
"&.	c #F7F51E",
"*.	c #F9F514",
"=.	c #F9F316",
"-.	c #FAF317",
";.	c #F7F114",
">.	c #F7F420",
",.	c #CFD052",
"'.	c #C8CA1A",
").	c #F6F52A",
"!.	c #FAF316",
"~.	c #F7F31E",
"{.	c #D7CE53",
"].	c #8E8F15",
"^.	c #CFCD26",
"/.	c #F7F518",
"(.	c #FAF619",
"_.	c #F9F217",
":.	c #FAF61E",
"<.	c #D0C853",
"[.	c #A4A20C",
"}.	c #EEEC18",
"|.	c #F6F319",
"1.	c #F7F219",
"2.	c #F1EF21",
"3.	c #A2A00A",
"4.	c #EFF61D",
"5.	c #F6F61A",
"6.	c #F7F514",
"7.	c #F7F512",
"8.	c #EDEB36",
"9.	c #C2BF3F",
"0.	c #7E7C35",
"a.	c #BAC112",
"b.	c #E1E61E",
"c.	c #EBF31C",
"d.	c #F5F518",
"e.	c #FAF315",
"f.	c #F2E724",
"g.	c #DAD74A",
"h.	c #C1C56B",
"i.	c #868813",
"j.	c #A2A617",
"k.	c #E5E818",
"l.	c #F6F71D",
"m.	c #FAF51A",
"n.	c #FAF418",
"o.	c #FBF618",
"p.	c #FBF519",
"q.	c #F6F12B",
"r.	c #DDCA57",
"s.	c #B8A741",
"t.	c #CECF14",
"u.	c #DDDE1D",
"v.	c #DEDE19",
"w.	c #E0DE16",
"x.	c #DBDA12",
"y.	c #E1DB15",
"z.	c #DFD71C",
"A.	c #DFDF1B",
"B.	c #D7D718",
"C.	c #DDDA2B",
"D.	c #ACA85E",
"                                        ",
"          . + @ # $ % & * = - ;         ",
"        > , ' ) ! ~ ~ { ] ^ / ( _       ",
"      : < [ } | 1 1 2 3 2 4 5 6 7 8     ",
"    9 0 a b b c c c c c d e f g h i j   ",
"  k l m n c c b b b b c c o p q r s t   ",
"u v w x b b c b b b b c c 3 y z A B C   ",
"D E F G H b b b b b b c c 3 I J K L M   ",
"N O P Q c b b b b b b b c 3 I J K R S   ",
"T U V Q c b b c c c b b 3 W I J X Y Z   ",
"`  ...G d +.c c c c c +.@.W I J K #.$.  ",
"%.&.*.b c c c c 3 =.b H -.3 I X ;.>.,.  ",
"'.).Q b c c c c 3 b b H !.3 J J K ~.{.  ",
"].^./.(.c b 3 3 b b b H !.3 _.J X :.<.  ",
"  [.}.|.n c 1 c c c @.+.@.-._.1 1.2.t   ",
"    3.0 4.5.6.e c c -.-.!.!.2 7.8.9.0.  ",
"      a.b.c.d.e c =.!.e.!.e.1 f.g.h.    ",
"      i.j.k.l.c c m.n.o.p.+.q.r.s.      ",
"          t.u.v.w.x.y.z.A.B.C.D.        ",
"                                        "};
