/* XPM */
static char * ball_left_xpm[] = {
"20 20 161 2",
"  	c None",
". 	c #ACA85E",
"+ 	c #DDDA2B",
"@ 	c #D7D718",
"# 	c #DFDF1B",
"$ 	c #DFD71C",
"% 	c #E1DB15",
"& 	c #DBDA12",
"* 	c #E0DE16",
"= 	c #DEDE19",
"- 	c #DDDE1D",
"; 	c #CECF14",
"> 	c #B8A741",
", 	c #DDCA57",
"' 	c #F6F12B",
") 	c #FAF517",
"! 	c #FBF519",
"~ 	c #FBF618",
"{ 	c #FAF418",
"] 	c #FAF51A",
"^ 	c #F9F417",
"/ 	c #F6F71D",
"( 	c #E5E818",
"_ 	c #A2A617",
": 	c #868813",
"< 	c #C1C56B",
"[ 	c #DAD74A",
"} 	c #F2E724",
"| 	c #F8F317",
"1 	c #FAF315",
"2 	c #FAF316",
"3 	c #F9F316",
"4 	c #F9F517",
"5 	c #F5F518",
"6 	c #EBF31C",
"7 	c #E1E61E",
"8 	c #BAC112",
"9 	c #7E7C35",
"0 	c #C2BF3F",
"a 	c #EDEB36",
"b 	c #F7F512",
"c 	c #F8F316",
"d 	c #FAF317",
"e 	c #F7F514",
"f 	c #F6F61A",
"g 	c #EFF61D",
"h 	c #D4DA10",
"i 	c #A2A00A",
"j 	c #CDCA5A",
"k 	c #F1EF21",
"l 	c #F7F219",
"m 	c #F9F217",
"n 	c #FAF417",
"o 	c #F8F417",
"p 	c #F6F319",
"q 	c #EEEC18",
"r 	c #A4A20C",
"s 	c #D0C853",
"t 	c #FAF61E",
"u 	c #F8F116",
"v 	c #F8F117",
"w 	c #F9F317",
"x 	c #FAF416",
"y 	c #F9F416",
"z 	c #FAF619",
"A 	c #F7F518",
"B 	c #CFCD26",
"C 	c #8E8F15",
"D 	c #D7CE53",
"E 	c #F7F31E",
"F 	c #F7F115",
"G 	c #F8F515",
"H 	c #F6F52A",
"I 	c #C8CA1A",
"J 	c #CFD052",
"K 	c #F7F420",
"L 	c #F7F114",
"M 	c #F8F217",
"N 	c #F9F514",
"O 	c #F7F51E",
"P 	c #C9CB12",
"Q 	c #D2D352",
"R 	c #F6F320",
"S 	c #F9F318",
"T 	c #F9F518",
"U 	c #F9F515",
"V 	c #FAF514",
"W 	c #F8F62F",
"X 	c #C9CB1C",
"Y 	c #CFCF52",
"Z 	c #F8F41F",
"` 	c #F8F511",
" .	c #F8F627",
"..	c #C9CB18",
"+.	c #D2D253",
"@.	c #F6F31F",
"#.	c #F6F512",
"$.	c #F7F62C",
"%.	c #C9CB1B",
"&.	c #D2CF5A",
"*.	c #F7F31C",
"=.	c #F7F515",
"-.	c #F5F33B",
";.	c #C6C525",
">.	c #CFCD59",
",.	c #F0F11C",
"'.	c #F2F215",
").	c #F7F41B",
"!.	c #F8F318",
"~.	c #F9F516",
"{.	c #F0F215",
"].	c #C9CA31",
"^.	c #B7B42B",
"/.	c #E7EE21",
"(.	c #EDF318",
"_.	c #F2F61D",
":.	c #F8F518",
"<.	c #F9F418",
"[.	c #F5F218",
"}.	c #EDEC19",
"|.	c #DADA12",
"1.	c #7E7D35",
"2.	c #BFC12C",
"3.	c #E9EE2B",
"4.	c #F5F617",
"5.	c #F7F619",
"6.	c #F7F71B",
"7.	c #9D9C0B",
"8.	c #A7A94C",
"9.	c #C5C734",
"0.	c #E4EE22",
"a.	c #F1F51D",
"b.	c #F6F413",
"c.	c #F8F315",
"d.	c #F6F312",
"e.	c #EEEE11",
"f.	c #D9D915",
"g.	c #C3C60D",
"h.	c #6C7423",
"i.	c #C2D454",
"j.	c #ECF02C",
"k.	c #F1F21B",
"l.	c #F4F11B",
"m.	c #F7F21C",
"n.	c #F5F11B",
"o.	c #F4F219",
"p.	c #F2F21B",
"q.	c #F0F21B",
"r.	c #E2EB19",
"s.	c #9D9A09",
"t.	c #8F9853",
"u.	c #AEB42C",
"v.	c #B2B51F",
"w.	c #B5B51E",
"x.	c #B8B71E",
"y.	c #B5B41E",
"z.	c #B7B61E",
"A.	c #B4B522",
"B.	c #B6B92C",
"C.	c #B1B523",
"D.	c #ADB31E",
"                                        ",
"        . + @ # $ % & * = - ;           ",
"      > , ' ) ! ~ { ] ^ ^ / ( _ :       ",
"    < [ } | 1 2 1 2 3 ^ 4 5 6 7 8       ",
"  9 0 a b c 2 2 d d ^ ^ 4 e f g h i     ",
"  j k l | m d n ) n ^ ^ ^ | ^ o p q r   ",
"  s t u v m w 2 x y y y w w y ^ z A B C ",
"  D E F v v w 2 x y y w ^ ^ ^ ^ y G H I ",
"  J K L u M w d x y 3 w ^ ^ ^ ^ y N O P ",
"  Q R F v M S n ) ^ ^ ^ ^ ^ ) T U V W X ",
"  Y Z u v M S w y y ^ ^ ^ y y ^ G `  ...",
"  +.@.F v M w ^ y y y y y y y ^ G #.$.%.",
"  &.*.F v M w ^ ^ y y y y y y x U =.-.;.",
"  >.,.'.).!.w ^ ^ y y y y ^ y y ~.{.].^.",
"  j /.(._.:.<.^ ^ y y y y ^ ^ o [.}.|.  ",
"  1.2.3.4.5.4 T ^ ^ ^ ^ ^ y y 6.h 7.    ",
"    8.9.0.a.b.c w c | | c.d.e.f.g.      ",
"      h.i.j.k.l.m.n.n.o.p.q.r.s.        ",
"        t.u.v.w.x.y.z.A.B.C.D.          ",
"                                        "};
