/* XPM */
static char * ball_side_xpm[] = {
"20 20 133 2",
"  	c None",
". 	c #CBCA11",
"+ 	c #ACAD0D",
"@ 	c #ACAE0D",
"# 	c #B1B20D",
"$ 	c #BABA0F",
"% 	c #B3B40E",
"& 	c #BCBC0F",
"* 	c #C3C210",
"= 	c #BFBF0F",
"- 	c #C7C610",
"; 	c #D0CE11",
"> 	c #B2B30D",
", 	c #B4B50E",
"' 	c #C3C310",
") 	c #C2C210",
"! 	c #B6B70E",
"~ 	c #D9D613",
"{ 	c #CDCC11",
"] 	c #E7E315",
"^ 	c #D4D212",
"/ 	c #CAC811",
"( 	c #B6B60E",
"_ 	c #B3B30E",
": 	c #CAC911",
"< 	c #C8C810",
"[ 	c #CCCA11",
"} 	c #D5D312",
"| 	c #CFCD11",
"1 	c #CECD11",
"2 	c #CCCB11",
"3 	c #DCD913",
"4 	c #E9E515",
"5 	c #EAE615",
"6 	c #EFEB16",
"7 	c #F5F016",
"8 	c #F4EF16",
"9 	c #F5F116",
"0 	c #E0DC14",
"a 	c #C4C410",
"b 	c #CECC11",
"c 	c #EBE715",
"d 	c #F2ED16",
"e 	c #F2EE16",
"f 	c #F9F417",
"g 	c #FAF316",
"h 	c #FAF416",
"i 	c #F9F416",
"j 	c #F9F317",
"k 	c #F7F316",
"l 	c #E1DE12",
"m 	c #A7A90C",
"n 	c #B5B60E",
"o 	c #D9D617",
"p 	c #DEDB16",
"q 	c #F7F116",
"r 	c #F8F117",
"s 	c #F8F317",
"t 	c #EAE610",
"u 	c #C5C509",
"v 	c #A8A928",
"w 	c #D6D319",
"x 	c #F7F114",
"y 	c #F8F116",
"z 	c #F8F217",
"A 	c #FAF317",
"B 	c #F9F316",
"C 	c #EFEB12",
"D 	c #CCCB03",
"E 	c #A7A80C",
"F 	c #B7B70E",
"G 	c #AFAF27",
"H 	c #DDDB1A",
"I 	c #F7F115",
"J 	c #F9F318",
"K 	c #FAF417",
"L 	c #FAF517",
"M 	c #F9F518",
"N 	c #F2EF13",
"O 	c #D1D106",
"P 	c #B8B90E",
"Q 	c #DFDB1D",
"R 	c #F8F417",
"S 	c #ECEA11",
"T 	c #E7E310",
"U 	c #BDBD0F",
"V 	c #E1DE14",
"W 	c #F8F316",
"X 	c #E3E10D",
"Y 	c #ECE814",
"Z 	c #BBBB0E",
"` 	c #BFBE0F",
" .	c #C4C310",
"..	c #E3DF13",
"+.	c #F6F116",
"@.	c #F6F216",
"#.	c #F7F216",
"$.	c #F4F016",
"%.	c #EFEB15",
"&.	c #F0EC15",
"*.	c #F1ED15",
"=.	c #E6E314",
"-.	c #EFEB14",
";.	c #E8E414",
">.	c #C5C410",
",.	c #D2D011",
"'.	c #C8C710",
").	c #A9AB0C",
"!.	c #D7D512",
"~.	c #EEEA15",
"{.	c #F1EC15",
"].	c #E4E113",
"^.	c #EDE915",
"/.	c #ECE915",
"(.	c #EFEA15",
"_.	c #BCBB0F",
":.	c #C5C510",
"<.	c #ADAE0D",
"[.	c #AAAC0C",
"}.	c #D3D111",
"|.	c #D8D512",
"1.	c #CDCB10",
"2.	c #DCD912",
"3.	c #E1DD13",
"4.	c #D4D211",
"5.	c #BDBC0E",
"6.	c #A8AA0C",
"7.	c #F0EC16",
"8.	c #E7E415",
"9.	c #DEDB13",
"0.	c #C4C30F",
"a.	c #B6B60D",
"b.	c #AAAB0C",
"                                        ",
"                                        ",
"                                        ",
"    .   + @ # $ $ % % & * & * = - ;     ",
"  . - > , ' ; ) ! ~ { ] ^ / ( _ ! : { { ",
"< . [ } | 1 2 3 4 4 5 6 7 8 9 0 * # a b ",
"- c 8 8 d e f g h i f i j j i k l & m n ",
"( o p q r r j g h i i j f f f s t u m m ",
"( v w x y z j A h i B j f f f f C D E m ",
"F G H I r z J K L f f f f f L M N O | m ",
"P Q e y z z J j i i f f f i i R S T - m ",
"U V W i B i j f i i i i i i i W X Y Z ` ",
" .( ..+.@.#.i i $.%.%.&.*.=.*.9 -.;.>.# ",
",.'.).!.~.#.*.#.+.{.].^.#.7 /.&.(.@ + _.",
"{ { :.<.[.}.|.1.2.3.Y %.~.4.' 5.6., :.. ",
"  { . F 1 7.5 8.9.9.0.a.6.b.[.).m . {   ",
"                                        ",
"                                        ",
"                                        ",
"                                        "};
