/* XPM */
static char * ball_xpm[] = {
"20 20 145 2",
"  	c None",
". 	c #C9D117",
"+ 	c #A9AE1C",
"@ 	c #ACB11E",
"# 	c #B1B425",
"$ 	c #B0B21E",
"% 	c #B5B51B",
"& 	c #B5B41B",
"* 	c #B7B71B",
"= 	c #B6B61D",
"- 	c #AFB11E",
"; 	c #C7C814",
"> 	c #CACA15",
", 	c #CBCA13",
"' 	c #C8C715",
") 	c #C6C415",
"! 	c #C4C413",
"~ 	c #D1D114",
"{ 	c #CACD24",
"] 	c #D7D70C",
"^ 	c #E7E50D",
"/ 	c #F6F114",
"( 	c #F7F217",
"_ 	c #F7F216",
": 	c #F5EF17",
"< 	c #F1EC16",
"[ 	c #E1E011",
"} 	c #D5D716",
"| 	c #E2E215",
"1 	c #F4F014",
"2 	c #F8F316",
"3 	c #F9F417",
"4 	c #F9F518",
"5 	c #F9F517",
"6 	c #F2F118",
"7 	c #DFDD16",
"8 	c #EAE712",
"9 	c #F8F317",
"0 	c #F9F416",
"a 	c #F9F418",
"b 	c #F8F518",
"c 	c #F0F41C",
"d 	c #E2E713",
"e 	c #B1B510",
"f 	c #B4B50A",
"g 	c #E3E10D",
"h 	c #EFEB12",
"i 	c #F8F416",
"j 	c #F9F317",
"k 	c #F8F318",
"l 	c #F6F31B",
"m 	c #E4E40F",
"n 	c #E2E315",
"o 	c #B5B912",
"p 	c #BABB08",
"q 	c #D5D406",
"r 	c #F6F115",
"s 	c #F8F217",
"t 	c #F8F117",
"u 	c #EEE912",
"v 	c #EAE718",
"w 	c #BFC42B",
"x 	c #B0B413",
"y 	c #C5C506",
"z 	c #DCDB09",
"A 	c #F6F014",
"B 	c #D3D116",
"C 	c #BDC326",
"D 	c #AEB211",
"E 	c #CBCA05",
"F 	c #ECEA11",
"G 	c #F8F417",
"H 	c #F9F318",
"I 	c #F7F016",
"J 	c #D1D016",
"K 	c #BDC322",
"L 	c #AEB20F",
"M 	c #CCCC04",
"N 	c #F2EF13",
"O 	c #FAF517",
"P 	c #FAF417",
"Q 	c #F7F115",
"R 	c #DDDB1A",
"S 	c #BFC520",
"T 	c #AAAA0D",
"U 	c #CCCB03",
"V 	c #F9F316",
"W 	c #FAF416",
"X 	c #FAF317",
"Y 	c #F8F116",
"Z 	c #F7F114",
"` 	c #D6D319",
" .	c #C1C820",
"..	c #A7A90C",
"+.	c #CAC908",
"@.	c #EAE610",
"#.	c #FAF316",
"$.	c #F6F015",
"%.	c #CECC16",
"&.	c #C1C624",
"*.	c #9D9E0F",
"=.	c #BABA08",
"-.	c #E6E311",
";.	c #F7F316",
">.	c #F9F217",
",.	c #F3ED14",
"'.	c #D1CF16",
").	c #BBBE29",
"!.	c #B3B30F",
"~.	c #DDDC0D",
"{.	c #EEEB13",
"].	c #E7E412",
"^.	c #C1C117",
"/.	c #C5CA10",
"(.	c #E4E917",
"_.	c #F4F419",
":.	c #F6F414",
"<.	c #F3F111",
"[.	c #DBDA2A",
"}.	c #DFE414",
"|.	c #E6E612",
"1.	c #F9F315",
"2.	c #F9F216",
"3.	c #F9F215",
"4.	c #E3DA1F",
"5.	c #D1D717",
"6.	c #D6D916",
"7.	c #D6D411",
"8.	c #E0DD12",
"9.	c #E5E116",
"0.	c #E9E414",
"a.	c #EBE714",
"b.	c #E3DF13",
"c.	c #CFCE11",
"d.	c #C6C31D",
"e.	c #ADA537",
"f.	c #B0B215",
"g.	c #B9BA15",
"h.	c #BEC214",
"i.	c #B9BA14",
"j.	c #B7B716",
"k.	c #B9BC15",
"l.	c #B0B214",
"m.	c #AFAE1E",
"n.	c #9B9A46",
"          . . . . . . . . .             ",
"          + @ # $ % & * = -             ",
"          . ; > , ' ) ' ! ~ {           ",
"          ] ^ / ( ( _ : < [ }           ",
"        | 1 2 3 3 3 3 3 4 5 6           ",
"      7 8 9 3 0 0 0 0 3 3 a b c d       ",
"  e f g h i 3 0 0 0 0 3 3 j k l m n     ",
". o p q r 0 0 0 0 0 0 3 3 j s t u v w . ",
". x y z _ 0 0 0 0 0 0 0 3 j s t A B C . ",
". D E F G 0 0 3 3 3 0 0 j H s t I J K . ",
". L M N 4 O 3 3 3 3 3 O P H s t Q R S . ",
". T U h 3 3 3 3 j V 0 W X j s Y Z `  .. ",
". ..+.@.9 3 3 3 j 0 0 W #.j t t $.%.&.. ",
"  *.=.-.;.0 j j 0 0 0 W #.j >.t ,.'.).. ",
"    !.~.{.G 9 3 3 3 P O P X >.( ].^.    ",
"      /.(._.:.5 3 3 X X #.#.2 <.[.      ",
"          }.|.;.9 2 V 1.2.3.( 4.        ",
"          5.6.7.8.9.0.a.b.c.d.e.        ",
"            . f.g.h.i.j.k.l.m.n.        ",
"            . . . . . . . . .           "};
