/* XPM */
static char * ball_vert_xpm[] = {
"20 20 133 2",
"  	c None",
". 	c #CDCC11",
"+ 	c #CECC11",
"@ 	c #B5B60E",
"# 	c #A7A90C",
"$ 	c #BFBE0F",
"% 	c #B1B20D",
"& 	c #BCBB0F",
"* 	c #CBCA11",
"= 	c #C4C410",
"- 	c #A7A80C",
"; 	c #CFCD11",
"> 	c #C7C610",
", 	c #BBBB0E",
"' 	c #C5C410",
") 	c #ACAD0D",
"! 	c #C5C510",
"~ 	c #D0CE11",
"{ 	c #CAC911",
"] 	c #BCBC0F",
"^ 	c #C5C509",
"/ 	c #CCCB03",
"( 	c #D1D106",
"_ 	c #E7E310",
": 	c #ECE814",
"< 	c #E8E414",
"[ 	c #ACAE0D",
"} 	c #B4B50E",
"| 	c #B6B70E",
"1 	c #C3C210",
"2 	c #E1DE12",
"3 	c #EAE610",
"4 	c #EFEB12",
"5 	c #F2EF13",
"6 	c #ECEA11",
"7 	c #E3E10D",
"8 	c #EFEB14",
"9 	c #EFEA15",
"0 	c #A8AA0C",
"a 	c #BFBF0F",
"b 	c #B3B30E",
"c 	c #E0DC14",
"d 	c #F7F316",
"e 	c #F8F317",
"f 	c #F9F417",
"g 	c #F9F518",
"h 	c #F8F417",
"i 	c #F8F316",
"j 	c #F5F116",
"k 	c #F0EC15",
"l 	c #BDBC0E",
"m 	c #A9AB0C",
"n 	c #B6B60E",
"o 	c #F9F416",
"p 	c #FAF517",
"q 	c #F1ED15",
"r 	c #ECE915",
"s 	c #C3C310",
"t 	c #AAAC0C",
"u 	c #CAC811",
"v 	c #F4EF16",
"w 	c #F9F317",
"x 	c #E6E314",
"y 	c #F5F016",
"z 	c #D4D211",
"A 	c #AAAB0C",
"B 	c #D4D212",
"C 	c #F7F216",
"D 	c #EEEA15",
"E 	c #E7E315",
"F 	c #EFEB16",
"G 	c #EDE915",
"H 	c #EFEB15",
"I 	c #B6B60D",
"J 	c #B3B40E",
"K 	c #EAE615",
"L 	c #F9F316",
"M 	c #E4E113",
"N 	c #C4C30F",
"O 	c #D9D613",
"P 	c #E9E515",
"Q 	c #F1EC15",
"R 	c #E1DD13",
"S 	c #DEDB13",
"T 	c #BABA0F",
"U 	c #FAF416",
"V 	c #F4F016",
"W 	c #F6F116",
"X 	c #DCD912",
"Y 	c #C2C210",
"Z 	c #DCD913",
"` 	c #FAF316",
" .	c #FAF317",
"..	c #FAF417",
"+.	c #CDCB10",
"@.	c #E7E415",
"#.	c #CCCB11",
"$.	c #F9F318",
"%.	c #D8D512",
"&.	c #CECD11",
"*.	c #F2EE16",
"=.	c #F8F117",
"-.	c #F8F217",
";.	c #D3D111",
">.	c #F0EC16",
",.	c #F2ED16",
"'.	c #F8F116",
").	c #F6F216",
"!.	c #B2B30D",
"~.	c #D5D312",
"{.	c #F7F116",
"].	c #F7F114",
"^.	c #F7F115",
"/.	c #D7D512",
"(.	c #ADAE0D",
"_.	c #B7B70E",
":.	c #CCCA11",
"<.	c #DEDB16",
"[.	c #D6D319",
"}.	c #DDDB1A",
"|.	c #E3DF13",
"1.	c #EBE715",
"2.	c #D9D617",
"3.	c #A8A928",
"4.	c #AFAF27",
"5.	c #DFDB1D",
"6.	c #E1DE14",
"7.	c #C8C710",
"8.	c #C8C810",
"9.	c #B8B90E",
"0.	c #BDBD0F",
"a.	c #C4C310",
"b.	c #D2D011",
"        . + @ # # # # $ % & *           ",
"        . = # # - ; > , ' ) ! .         ",
"      ~ { % ] ^ / ( _ : < [ } *         ",
"      > | 1 2 3 4 5 6 7 8 9 0 #         ",
"      a b c d e f g h i j k l m         ",
"      1 n j o f f p o o q r s t         ",
"      ] u v w f f f o o x y z A         ",
"      1 B y w f f f f o q C D 0         ",
"      ] E F o w w f f o k G H I         ",
"      J . K f o L f f o H M : N         ",
"      J O P o o o f o o H Q R S         ",
"      T | P U U U p o o V W X S         ",
"      T Y Z ` `  ...w f o C +.@.        ",
"      % ~ #.f w w $.$.w o q %.K         ",
"      [ s &.*.=.-.-.-.o C C ;.>.        ",
"      ) } ; ,.=.'.=.-.L ).D t &.        ",
"        !.~.v {.].^.'.o W /.(._.        ",
"      * > :.v <.[.}.*.i |.m ! *         ",
"        * * 1.2.3.4.5.6.n 7.. .         ",
"          8.> n n _.9.0.a.b..           "};
