/* XPM */
static char * base_boy_xpm[] = {
"40 40 961 2",
"  	c None",
". 	c #3D3A27",
"+ 	c #3E3B27",
"@ 	c #3E3B28",
"# 	c #3D3B27",
"$ 	c #3C3B21",
"% 	c #3C3A1E",
"& 	c #3D3B24",
"* 	c #64613C",
"= 	c #7A764B",
"- 	c #7B774B",
"; 	c #7B764B",
"> 	c #7A764A",
", 	c #79763F",
"' 	c #78763C",
") 	c #7A7647",
"! 	c #5E5E1D",
"~ 	c #A1A03F",
"{ 	c #C2C04F",
"] 	c #C3C150",
"^ 	c #C0BE4D",
"/ 	c #BEBB49",
"( 	c #C2C04E",
"_ 	c #C2BF49",
": 	c #C2BF47",
"< 	c #C2BF45",
"[ 	c #BEBC3D",
"} 	c #BDBC3E",
"| 	c #C1BF4B",
"1 	c #BEBB48",
"2 	c #BDBA48",
"3 	c #BEBA48",
"4 	c #BFBC4A",
"5 	c #C0BE4E",
"6 	c #A09F41",
"7 	c #575A22",
"8 	c #464706",
"9 	c #818216",
"0 	c #CECD36",
"a 	c #F3F345",
"b 	c #F4F544",
"c 	c #F1F13B",
"d 	c #EEED31",
"e 	c #F2F03B",
"f 	c #F4F33E",
"g 	c #F4F330",
"h 	c #F4F228",
"i 	c #F0EE28",
"j 	c #EFED31",
"k 	c #F3F23E",
"l 	c #F2F13C",
"m 	c #EEEC2F",
"n 	c #EDEB2C",
"o 	c #EDEB2D",
"p 	c #EFEE34",
"q 	c #F2F241",
"r 	c #CACB3A",
"s 	c #707221",
"t 	c #2D300D",
"u 	c #3C3E21",
"v 	c #404318",
"w 	c #414022",
"x 	c #403E26",
"y 	c #42441B",
"z 	c #676A16",
"A 	c #9A9C20",
"B 	c #D7D636",
"C 	c #F6F63F",
"D 	c #F6FA37",
"E 	c #F5F82D",
"F 	c #F6F428",
"G 	c #F9F52B",
"H 	c #FBF72B",
"I 	c #FAF822",
"J 	c #F9F81E",
"K 	c #F9F820",
"L 	c #F7F524",
"M 	c #F7F428",
"N 	c #FAF62D",
"O 	c #F9F62B",
"P 	c #F6F426",
"Q 	c #F6F423",
"R 	c #F6F522",
"S 	c #F6F521",
"T 	c #F3F622",
"U 	c #F5F92D",
"V 	c #FAFB3E",
"W 	c #D1D138",
"X 	c #73711F",
"Y 	c #2D2B0C",
"Z 	c #3D3C17",
"` 	c #716E31",
" .	c #898833",
"..	c #93942D",
"+.	c #969534",
"@.	c #959437",
"#.	c #96972E",
"$.	c #A3A52B",
"%.	c #BDBD2E",
"&.	c #DFDD36",
"*.	c #F2F135",
"=.	c #F1F628",
"-.	c #F1F623",
";.	c #F4F325",
">.	c #F7F31F",
",.	c #F9F41F",
"'.	c #F8F628",
").	c #F7F628",
"!.	c #F7F522",
"~.	c #F6F322",
"{.	c #F8F21B",
"].	c #F7F21D",
"^.	c #F5F323",
"/.	c #F6F321",
"(.	c #F6F422",
"_.	c #F7F629",
":.	c #F6F529",
"<.	c #F5F423",
"[.	c #F2F521",
"}.	c #F3F829",
"|.	c #F8F939",
"1.	c #CFCE36",
"2.	c #706D23",
"3.	c #615E1C",
"4.	c #ADA73A",
"5.	c #D2CE41",
"6.	c #E2E23E",
"7.	c #E6E640",
"8.	c #E5E540",
"9.	c #E5E53E",
"0.	c #E4E33D",
"a.	c #E5E33A",
"b.	c #F0ED2F",
"c.	c #F7F523",
"d.	c #F7F61D",
"e.	c #F6F51E",
"f.	c #F6F421",
"g.	c #F9F61F",
"h.	c #FBF828",
"i.	c #FAF938",
"j.	c #FAF935",
"k.	c #FAF824",
"l.	c #F9F61D",
"m.	c #F8F51B",
"n.	c #F9F518",
"o.	c #F8F418",
"p.	c #F8F41A",
"q.	c #F9F318",
"r.	c #F9F525",
"s.	c #FAF838",
"t.	c #F8F736",
"u.	c #F5F327",
"v.	c #F5F21E",
"w.	c #F8F51F",
"x.	c #FAF828",
"y.	c #CFCD2E",
"z.	c #6F6D2D",
"A.	c #646219",
"B.	c #B2AF34",
"C.	c #DBD83A",
"D.	c #F1EF38",
"E.	c #F5F337",
"F.	c #F4F238",
"G.	c #F3F33A",
"H.	c #F3F03A",
"I.	c #F4ED36",
"J.	c #F7F228",
"K.	c #F9F617",
"L.	c #F9F61C",
"M.	c #F8F620",
"N.	c #FAF81D",
"O.	c #EAEA31",
"P.	c #E9E82D",
"Q.	c #F0EE1D",
"R.	c #F7F41A",
"S.	c #FBF81A",
"T.	c #F9F616",
"U.	c #F9F514",
"V.	c #FAF513",
"W.	c #FBF411",
"X.	c #F8F31E",
"Y.	c #F2F030",
"Z.	c #EDEC2E",
"`.	c #EBE920",
" +	c #ECEC17",
".+	c #F2F216",
"++	c #F8F61E",
"@+	c #CFCD26",
"#+	c #706D29",
"$+	c #52540F",
"%+	c #949623",
"&+	c #BDBB24",
"*+	c #D5D11E",
"=+	c #D9D51C",
"-+	c #D8D41F",
";+	c #D7D625",
">+	c #DED828",
",+	c #EADE27",
"'+	c #F4EC20",
")+	c #F9F619",
"!+	c #F9F618",
"~+	c #FAF81C",
"{+	c #FAF81F",
"]+	c #F6F219",
"^+	c #E5E212",
"/+	c #C6C613",
"(+	c #C1C210",
"_+	c #D6D40E",
":+	c #EFED19",
"<+	c #FCFA1D",
"[+	c #F9F715",
"}+	c #F8F511",
"|+	c #FAF511",
"1+	c #FBF512",
"2+	c #F2EC13",
"3+	c #DCD813",
"4+	c #D1CE11",
"5+	c #D3D10D",
"6+	c #DADF0F",
"7+	c #E7EE15",
"8+	c #F5F61E",
"9+	c #D0CD20",
"0+	c #716C1C",
"a+	c #353606",
"b+	c #626413",
"c+	c #7E7E12",
"d+	c #8F8C0A",
"e+	c #938F0B",
"f+	c #918E0F",
"g+	c #919012",
"h+	c #9D9914",
"i+	c #B8B017",
"j+	c #E2DE1B",
"k+	c #F9F71C",
"l+	c #F9F716",
"m+	c #FBF91A",
"n+	c #F9F71E",
"o+	c #DFDC16",
"p+	c #B9B508",
"q+	c #8D8C02",
"r+	c #848400",
"s+	c #A7A607",
"t+	c #E0DE18",
"u+	c #FDFA1E",
"v+	c #FAF618",
"w+	c #F9F416",
"x+	c #F9F01C",
"y+	c #E4D91C",
"z+	c #ADA60F",
"A+	c #8B8706",
"B+	c #98960B",
"C+	c #C1C417",
"D+	c #E3E71E",
"E+	c #F5F420",
"F+	c #D0CD1E",
"G+	c #716C19",
"H+	c #2B2909",
"I+	c #2D230C",
"J+	c #342004",
"K+	c #564901",
"L+	c #8C8608",
"M+	c #D6D319",
"N+	c #FAF81E",
"O+	c #F8F715",
"P+	c #FBFA18",
"Q+	c #CDC915",
"R+	c #8E8907",
"S+	c #4F4B03",
"T+	c #3A3102",
"U+	c #7D7507",
"V+	c #D4D118",
"W+	c #FCF91E",
"X+	c #FBF61A",
"Y+	c #F9F417",
"Z+	c #F9F419",
"`+	c #F7EB22",
" @	c #DACB23",
".@	c #817416",
"+@	c #524B0F",
"@@	c #AFAF1D",
"#@	c #E3E224",
"$@	c #F5F422",
"%@	c #D0CE1E",
"&@	c #3A3A04",
"*@	c #474904",
"=@	c #4C5006",
"-@	c #4F4F12",
";@	c #544615",
">@	c #5F3C0C",
",@	c #795B07",
"'@	c #A3910E",
")@	c #DDD61B",
"!@	c #CCC814",
"~@	c #8B8708",
"{@	c #494508",
"]@	c #7B640A",
"^@	c #D2CC19",
"/@	c #FBF81F",
"(@	c #FAF41A",
"_@	c #F9F317",
":@	c #F9F319",
"<@	c #DACA24",
"[@	c #82731A",
"}@	c #4E4510",
"|@	c #AFAD1E",
"1@	c #D2CF1E",
"2@	c #716D19",
"3@	c #504E1A",
"4@	c #908E36",
"5@	c #A9A938",
"6@	c #B1B22E",
"7@	c #B4B42E",
"8@	c #B5B130",
"9@	c #B8AF2D",
"0@	c #C1B52C",
"a@	c #D1C72C",
"b@	c #EBE726",
"c@	c #FAF820",
"d@	c #F7F61A",
"e@	c #FBF91C",
"f@	c #CCC914",
"g@	c #8C8708",
"h@	c #4B460A",
"i@	c #776609",
"j@	c #D1CC19",
"k@	c #FAF71F",
"l@	c #F9F418",
"m@	c #F9F51C",
"n@	c #F2EB23",
"o@	c #D2C823",
"p@	c #7D7219",
"q@	c #524512",
"r@	c #B7A828",
"s@	c #EBDD2F",
"t@	c #F8F325",
"u@	c #D1CF1E",
"v@	c #6E6C28",
"w@	c #C4C14E",
"x@	c #E5E450",
"y@	c #EFEF41",
"z@	c #F1F13E",
"A@	c #F1F03F",
"B@	c #F3F23F",
"C@	c #F6F53D",
"D@	c #FAF82F",
"E@	c #FAF821",
"F@	c #F7F61F",
"G@	c #FBF920",
"H@	c #F8F61F",
"I@	c #CDCA14",
"J@	c #8E8909",
"K@	c #4C480A",
"L@	c #707007",
"M@	c #CFCD18",
"N@	c #FAF71E",
"O@	c #FAF51A",
"P@	c #F9F620",
"Q@	c #EDEA24",
"R@	c #C9C621",
"S@	c #777014",
"T@	c #564415",
"U@	c #C0A230",
"V@	c #F2D837",
"W@	c #F9F129",
"X@	c #706C1A",
"Y@	c #6A6C1E",
"Z@	c #BEC13D",
"`@	c #E0E13E",
" #	c #ECEA32",
".#	c #EFEC2F",
"+#	c #EEEC31",
"@#	c #EDED34",
"##	c #F2F235",
"$#	c #F9F932",
"%#	c #FBF927",
"&#	c #FAF71C",
"*#	c #F8F61C",
"=#	c #FCFA1E",
"-#	c #D1CE15",
";#	c #959109",
">#	c #504A08",
",#	c #717204",
"'#	c #CECB14",
")#	c #F9F41A",
"!#	c #F9F51D",
"~#	c #D4C822",
"{#	c #867212",
"]#	c #554216",
"^#	c #B7A729",
"/#	c #D0CF1F",
"(#	c #6D6B1C",
"_#	c #565B0B",
":#	c #9CA21D",
"<#	c #BABC1E",
"[#	c #C6C217",
"}#	c #C9C415",
"|#	c #C8C418",
"1#	c #C6C51F",
"2#	c #D1D120",
"3#	c #E3E11D",
"4#	c #F1EF1B",
"5#	c #FBF919",
"6#	c #F8F71C",
"7#	c #DBDB17",
"8#	c #B1B117",
"9#	c #85801F",
"0#	c #7A721C",
"a#	c #9E9712",
"b#	c #D7D316",
"c#	c #F6F31B",
"d#	c #F8F31A",
"e#	c #F8F419",
"f#	c #F5EE22",
"g#	c #E1D522",
"h#	c #AF9A18",
"i#	c #8B7515",
"j#	c #928A1B",
"k#	c #C2C021",
"l#	c #E8E724",
"m#	c #CFCD20",
"n#	c #6B6B1D",
"o#	c #303302",
"p#	c #595E09",
"q#	c #6B6B0C",
"r#	c #736D0D",
"s#	c #757109",
"t#	c #74710A",
"u#	c #747011",
"v#	c #878410",
"w#	c #ACAA0F",
"x#	c #DFDD19",
"y#	c #F9F81D",
"z#	c #F8F716",
"A#	c #F7F613",
"B#	c #F6F616",
"C#	c #EBF01A",
"D#	c #DBE028",
"E#	c #C7C438",
"F#	c #CBBF35",
"G#	c #DDD025",
"H#	c #E9E821",
"I#	c #F1F620",
"J#	c #F5F41F",
"K#	c #F7F41C",
"L#	c #F8F61A",
"M#	c #F3F520",
"N#	c #EBEB24",
"O#	c #E1D523",
"P#	c #DCD023",
"Q#	c #DEDA24",
"R#	c #E8E723",
"S#	c #F2F123",
"T#	c #F4F225",
"U#	c #CBC822",
"V#	c #6E6A1B",
"W#	c #463E06",
"X#	c #868507",
"Y#	c #D2D41A",
"Z#	c #F5F920",
"`#	c #F1F81A",
" $	c #EFF617",
".$	c #F2F61A",
"+$	c #F1F91F",
"@$	c #ECF42D",
"#$	c #E6E53F",
"$$	c #EBE23F",
"%$	c #F3EA34",
"&$	c #F4F327",
"*$	c #F3F81D",
"=$	c #F6F61C",
"-$	c #F4F61B",
";$	c #F2F71C",
">$	c #F4FB1F",
",$	c #F7F927",
"'$	c #F8F132",
")$	c #F7F031",
"!$	c #F7F623",
"~$	c #F9F722",
"{$	c #CBC921",
"]$	c #6D6A1B",
"^$	c #343304",
"/$	c #424106",
"($	c #4A4807",
"_$	c #4E490C",
":$	c #4F480F",
"<$	c #5D580B",
"[$	c #838409",
"}$	c #C4CB19",
"|$	c #E3EE20",
"1$	c #E0EF1E",
"2$	c #E4F21F",
"3$	c #ECF721",
"4$	c #EBF521",
"5$	c #E8EF2A",
"6$	c #E6E639",
"7$	c #E7E33E",
"8$	c #E9E539",
"9$	c #EBE928",
"0$	c #ECEC12",
"a$	c #ECEA11",
"b$	c #E4E916",
"c$	c #DDEC1B",
"d$	c #EAF11D",
"e$	c #F5F529",
"f$	c #F8F83A",
"g$	c #F7F638",
"h$	c #F5F328",
"i$	c #F8F621",
"j$	c #FCFA21",
"k$	c #CDCC23",
"l$	c #6A6A1E",
"m$	c #3F410A",
"n$	c #767817",
"o$	c #97991A",
"p$	c #ABAB19",
"q$	c #AFAF1B",
"r$	c #AFAE1C",
"s$	c #AFAE1B",
"t$	c #A19F15",
"u$	c #8F8D0D",
"v$	c #989B10",
"w$	c #AAB016",
"x$	c #BEC219",
"y$	c #D7DE1F",
"z$	c #E7F122",
"A$	c #DBE21C",
"B$	c #C3C71B",
"C$	c #ACAC24",
"D$	c #A3A128",
"E$	c #A6A426",
"F$	c #A8A619",
"G$	c #A9A708",
"H$	c #A8A507",
"I$	c #A1A50B",
"J$	c #9BA710",
"K$	c #A8AD11",
"L$	c #C2C51C",
"M$	c #E1EB2D",
"N$	c #F0F72B",
"O$	c #F5F41E",
"P$	c #F7F618",
"Q$	c #FAF922",
"R$	c #FAF933",
"S$	c #CECD31",
"T$	c #696B21",
"U$	c #575814",
"V$	c #9F9F29",
"W$	c #C7C734",
"X$	c #DEDD38",
"Y$	c #E1E032",
"Z$	c #E0DF30",
"`$	c #E0DF37",
" %	c #C8C62E",
".%	c #999615",
"+%	c #666305",
"@%	c #605906",
"#%	c #988E11",
"$%	c #C9CA1B",
"%%	c #E3EC20",
"&%	c #CACF17",
"*%	c #999709",
"=%	c #585703",
"-%	c #373403",
";%	c #393602",
">%	c #353202",
",%	c #333403",
"'%	c #3E4102",
")%	c #828B0B",
"!%	c #CAD819",
"~%	c #EAF219",
"{%	c #F5F511",
"]%	c #F7F50D",
"^%	c #F9F823",
"/%	c #FAFA3C",
"(%	c #CECF39",
"_%	c #6A6B22",
":%	c #66641B",
"<%	c #B7B239",
"[%	c #DFDA4C",
"}%	c #F1ED55",
"|%	c #F1EE49",
"1%	c #F0ED44",
"2%	c #F3EF53",
"3%	c #D6D347",
"4%	c #9A981E",
"5%	c #5A5A02",
"6%	c #464202",
"7%	c #817B07",
"8%	c #BFC217",
"9%	c #E1EB21",
"0%	c #C3C818",
"a%	c #8A8808",
"b%	c #4A4801",
"c%	c #787908",
"d%	c #C9CA15",
"e%	c #EBEA15",
"f%	c #F7F310",
"g%	c #F9F83C",
"h%	c #CDCD39",
"i%	c #696A22",
"j%	c #6B671F",
"k%	c #C0B83E",
"l%	c #E7E04B",
"m%	c #F7F34D",
"n%	c #F7F440",
"o%	c #F6F43C",
"p%	c #FAF74B",
"q%	c #DCD941",
"r%	c #9B991C",
"s%	c #595802",
"t%	c #474105",
"u%	c #857C13",
"v%	c #C4C326",
"w%	c #E9ED30",
"x%	c #D1D322",
"y%	c #A7A407",
"z%	c #838100",
"A%	c #727100",
"B%	c #747200",
"C%	c #757300",
"D%	c #757302",
"E%	c #757305",
"F%	c #747201",
"G%	c #999808",
"H%	c #D3D418",
"I%	c #EAEA1C",
"J%	c #ECE81A",
"K%	c #DDDA16",
"L%	c #D0D023",
"M%	c #D0D038",
"N%	c #AAAB35",
"O%	c #57591F",
"P%	c #69661F",
"Q%	c #BDB73B",
"R%	c #E4E03A",
"S%	c #F8F71D",
"T%	c #FBF926",
"U%	c #DDDA22",
"V%	c #9D9911",
"W%	c #5B5804",
"X%	c #4F450D",
"Y%	c #928321",
"Z%	c #CDC633",
"`%	c #F1F23B",
" &	c #E6E62A",
".&	c #CECD12",
"+&	c #BBB91B",
"@&	c #B4B120",
"#&	c #B5B220",
"$&	c #B6B320",
"%&	c #B5B120",
"&&	c #C4C420",
"*&	c #E1E922",
"=&	c #E8EE23",
"-&	c #D9DA23",
";&	c #AEAD1D",
">&	c #828120",
",&	c #797B2E",
"'&	c #62642B",
")&	c #636416",
"!&	c #B4B52E",
"~&	c #DBDF2D",
"{&	c #EFF41E",
"]&	c #F5F713",
"^&	c #F8F60F",
"/&	c #F8F712",
"(&	c #D9D711",
"_&	c #99970C",
":&	c #575403",
"<&	c #453F12",
"[&	c #857D28",
"}&	c #C4C431",
"|&	c #EEF332",
"1&	c #EEF525",
"2&	c #E7EB2C",
"3&	c #E5E447",
"4&	c #E5E150",
"5&	c #E6E14F",
"6&	c #E8E748",
"7&	c #EDF531",
"8&	c #E9F123",
"9&	c #D6D724",
"0&	c #9A9A19",
"a&	c #494913",
"b&	c #37391B",
"c&	c #38390D",
"d&	c #53540F",
"e&	c #585907",
"f&	c #7E840D",
"g&	c #B7C21F",
"h&	c #DAE424",
"i&	c #EEF522",
"j&	c #F3F71B",
"k&	c #F4F616",
"l&	c #F3F515",
"m&	c #D9DA12",
"n&	c #A9A70A",
"o&	c #848102",
"p&	c #737110",
"q&	c #818025",
"r&	c #ACB128",
"s&	c #D1DA24",
"t&	c #D8E224",
"u&	c #DAE038",
"v&	c #E0DF53",
"w&	c #E3DE5B",
"x&	c #E2DE59",
"y&	c #E2DE58",
"z&	c #E0DF4F",
"A&	c #D9E033",
"B&	c #D2D822",
"C&	c #C1C122",
"D&	c #858516",
"E&	c #656715",
"F&	c #929520",
"G&	c #A0A217",
"H&	c #B2B910",
"I&	c #D0DF1C",
"J&	c #E7F221",
"K&	c #F5F821",
"L&	c #F4F820",
"M&	c #EFF820",
"N&	c #EFF71F",
"O&	c #E2E619",
"P&	c #CDCC0B",
"Q&	c #C5C207",
"R&	c #B7B40B",
"S&	c #959212",
"T&	c #838319",
"U&	c #858821",
"V&	c #878C2A",
"W&	c #8A8E35",
"X&	c #8E8D3F",
"Y&	c #8E8B3F",
"Z&	c #8C8938",
"`&	c #8C8932",
" *	c #8B8831",
".*	c #8A8735",
"+*	c #8A8733",
"@*	c #8B8930",
"#*	c #8C892F",
"$*	c #8B8A2C",
"%*	c #888C24",
"&*	c #848720",
"**	c #797820",
"=*	c #535017",
"-*	c #84832B",
";*	c #BFBE40",
">*	c #D1D139",
",*	c #DCE02A",
"'*	c #E8F122",
")*	c #F0F920",
"!*	c #F5F922",
"~*	c #F2F820",
"{*	c #F3F822",
"]*	c #ECF11E",
"^*	c #E4E71A",
"/*	c #E8E825",
"(*	c #DAD827",
"_*	c #A5A313",
":*	c #6C690B",
"<*	c #2B2C04",
"[*	c #959539",
"}*	c #D8D954",
"|*	c #EFEF4C",
"1*	c #F7F73A",
"2*	c #F9F928",
"3*	c #F1F821",
"4*	c #F4F71C",
"5*	c #F8F71A",
"6*	c #FAF91F",
"7*	c #F4F720",
"8*	c #ECF324",
"9*	c #EFF335",
"0*	c #E1E137",
"a*	c #ACAA1E",
"b*	c #737105",
"c*	c #424006",
"d*	c #343009",
"e*	c #3B360C",
"f*	c #3A360C",
"g*	c #35320C",
"h*	c #2C2A0D",
"i*	c #2B2A09",
"j*	c #332E0A",
"k*	c #363008",
"l*	c #343206",
"m*	c #313006",
"n*	c #2B2B07",
"o*	c #8CA030",
"p*	c #CFE747",
"q*	c #ECF73D",
"r*	c #F9F82B",
"s*	c #F6F718",
"t*	c #F3F619",
"u*	c #F5F616",
"v*	c #F8F614",
"w*	c #F8F617",
"x*	c #F2F21A",
"y*	c #E4E61E",
"z*	c #CECF27",
"A*	c #B4B427",
"B*	c #9C9B18",
"C*	c #878506",
"D*	c #7B7600",
"E*	c #817701",
"F*	c #887C05",
"G*	c #887C04",
"H*	c #7C7409",
"I*	c #65620F",
"J*	c #423F0F",
"K*	c #43400B",
"L*	c #636111",
"M*	c #786C17",
"N*	c #7F7114",
"O*	c #797203",
"P*	c #706E03",
"Q*	c #62610E",
"R*	c #404107",
"S*	c #8BA425",
"T*	c #CDEC37",
"U*	c #EBF729",
"V*	c #F7F612",
"W*	c #F8F611",
"X*	c #F7F611",
"Y*	c #F8F713",
"Z*	c #F9F814",
"`*	c #F8F714",
" =	c #EBE915",
".=	c #D0CC13",
"+=	c #9D9A0C",
"@=	c #747407",
"#=	c #88870E",
"$=	c #A09E24",
"%=	c #B3AF35",
"&=	c #BDB639",
"*=	c #C2B73C",
"==	c #C0B440",
"-=	c #B4AD43",
";=	c #9B9B41",
">=	c #68682D",
",=	c #706B2C",
"'=	c #A29D41",
")=	c #B5AB42",
"!=	c #BBB03E",
"~=	c #B7B139",
"{=	c #B1AE3A",
"]=	c #A2A13A",
"^=	c #707027",
"/=	c #2B2C02",
"(=	c #9BA127",
"_=	c #E0E739",
":=	c #F4F42A",
"<=	c #F8F412",
"[=	c #F8F514",
"}=	c #F8F414",
"|=	c #F9F511",
"1=	c #FBF818",
"2=	c #FDFB1D",
"3=	c #FBFA1D",
"4=	c #E1DF18",
"5=	c #AFAA0D",
"6=	c #736F04",
"7=	c #4F4E00",
"8=	c #7C7A09",
"9=	c #B6B440",
"0=	c #E1DF5F",
"a=	c #E9E764",
"b=	c #E8E467",
"c=	c #E6DE6E",
"d=	c #DDD972",
"e=	c #C6CB6D",
"f=	c #878B4B",
"g=	c #969149",
"h=	c #D8D16B",
"i=	c #E6E16B",
"j=	c #E8E465",
"k=	c #E7E564",
"l=	c #E7E665",
"m=	c #DCDA60",
"n=	c #9A9942",
"o=	c #878620",
"p=	c #C3C131",
"q=	c #D3D02B",
"r=	c #D6D221",
"s=	c #D6D31D",
"t=	c #D6D219",
"u=	c #D7D318",
"v=	c #D9D61D",
"w=	c #DAD822",
"x=	c #D9D727",
"y=	c #BEBC21",
"z=	c #898513",
"A=	c #504C06",
"B=	c #333102",
"C=	c #666312",
"D=	c #A4A23F",
"E=	c #CFCE5A",
"F=	c #D6D65D",
"G=	c #D5D35E",
"H=	c #D4CF63",
"I=	c #CCCB67",
"J=	c #B5BB62",
"K=	c #7B8043",
"L=	c #8D8842",
"M=	c #CAC462",
"N=	c #D5D263",
"O=	c #D5D45E",
"P=	c #D7D65F",
"Q=	c #CDCD5B",
"R=	c #90903E",
"S=	c #4D520E",
"T=	c #75791D",
"U=	c #878828",
"V=	c #8E8D2A",
"W=	c #8F8E21",
"X=	c #8F8E1C",
"Y=	c #908E1D",
"Z=	c #908F22",
"`=	c #8F8E2A",
" -	c #7F7D27",
".-	c #5F5A19",
"+-	c #38340A",
"@-	c #444119",
"#-	c #6D6B2A",
"$-	c #8A8A35",
"%-	c #8F8E31",
"&-	c #91902B",
"*-	c #96942A",
"=-	c #8C8D2B",
"--	c #72782A",
";-	c #494F1A",
">-	c #5E5C1C",
",-	c #88862E",
"'-	c #8F8E35",
")-	c #8E8E38",
"!-	c #8F8F38",
"~-	c #888835",
"{-	c #5F5F22",
"]-	c #393F0E",
"^-	c #484B18",
"/-	c #50511B",
"(-	c #505014",
"_-	c #505011",
":-	c #4F501B",
"<-	c #474619",
"[-	c #36320F",
"}-	c #3D3C16",
"|-	c #4E4E18",
"1-	c #515111",
"2-	c #535307",
"3-	c #585901",
"4-	c #505300",
"5-	c #3C4100",
"6-	c #343403",
"7-	c #4D4D0A",
"8-	c #515114",
"9-	c #505019",
"0-	c #51511A",
"a-	c #4C4D19",
"b-	c #33340E",
"                                                                                ",
"                                                                                ",
"                                                                                ",
"                                                                                ",
"                                                                                ",
"                            . + + + + + + @ # $ % & + + @ @ + + + + + .         ",
"                          * = - ; ; ; ; ; ; > , ' ) ; ; ; ; ; ; ; ; - = *       ",
"                        ! ~ { ] ^ / ^ ( _ : < [ } | ^ 1 2 2 2 2 3 3 4 5 6 7     ",
"                      8 9 0 a b c d e f g h h i j k l m n o o o o n p q r s t   ",
"            u v w x y z A B C D E F G H I J K L M N O P Q R S S R T U V W X Y   ",
"        Z `  ...+.@.#.$.%.&.*.=.-.;.>.,.'.).!.Q ~.{.].^./.(._.:.<.[.}.|.1.2.    ",
"        3.4.5.6.7.8.9.0.a.b.c.d.e.f.g.h.i.j.k.l.m.n.o.p.q.r.s.t.u.v.w.x.y.z.    ",
"        A.B.C.D.E.F.G.H.I.J.K.K.L.M.N.Q O.P.Q.R.S.T.U.V.W.X.Y.Z.`. +.+++@+#+    ",
"        $+%+&+*+=+-+;+>+,+'+)+!+~+{+]+^+/+(+_+:+<+[+}+|+1+2+3+4+5+6+7+8+9+0+    ",
"        a+b+c+d+e+f+g+h+i+j+k+l+m+n+o+p+q+r+s+t+u+v+U.w+x+y+z+A+B+C+D+E+F+G+    ",
"                H+I+J+K+L+M+N+O+P+++Q+R+S+T+U+V+W+X+Y+Z+`+ @.@  +@@@#@$@%@G+    ",
"          &@*@=@-@;@>@,@'@)@N+O+P+++!@~@{@  ]@^@/@(@_@:@`+<@[@  }@|@#@!.1@2@    ",
"        3@4@5@6@7@8@9@0@a@b@c@d@e@++f@g@h@  i@j@k@(@l@m@n@o@p@  q@r@s@t@u@G+    ",
"        v@w@x@y@z@A@A@B@C@D@E@F@G@H@I@J@K@  L@M@N@(@O@P@Q@R@S@  T@U@V@W@%@X@    ",
"        Y@Z@`@ #.#+#@###$#%#&#*#=#g.-#;#>#  ,#'#)#q.Z+!#n@~#{#  ]#^#s@t@/#(#    ",
"        _#:#<#[#}#|#1#2#3#4#)+K.5#6#7#8#9#0#a#b#c#d#e#p.f#g#h#i#j#k#l#R m#n#    ",
"        o#p#q#r#s#t#u#v#w#x#y#z#A#B#C#D#E#F#G#H#I#J#K#L#M#N#O#P#Q#R#S#T#U#V#    ",
"                      W#X#Y#Z#`# $.$+$@$#$$$%$&$*$=$-$;$>$,$'$)$F !$~$Q {$]$    ",
"          ^$/$($_$:$:$<$[$}$|$1$2$3$4$5$6$7$8$9$0$a$b$c$d$e$f$g$h$i$j$k.k$l$    ",
"        m$n$o$p$q$r$s$t$u$v$w$x$y$z$A$B$C$D$E$F$G$H$I$J$K$L$M$N$O$P$Q$R$S$T$    ",
"        U$V$W$X$Y$Z$`$ %.%+%@%#%$%%%&%*%=%  -%;%;%;%>%,%'%)%!%~%{%]%^%/%(%_%    ",
"        :%<%[%}%|%1%2%3%4%5%6%7%8%9%0%a%b%                c%d%e%f%]%!$g%h%i%    ",
"        j%k%l%m%n%o%p%q%r%s%t%u%v%w%x%y%z%A%B%C%C%C%D%E%F%G%H%I%J%K%L%M%N%O%    ",
"        P%Q%R%h$d.S%T%U%V%W%X%Y%Z%`% &.&+&@&#&$&$&$&$&$&%&&&*&=&-&;&>&,&'&      ",
"        )&!&~&{&]&^&/&(&_&:&<&[&}&|&1&2&3&4&5&5&5&5&5&5&4&6&7&8&9&0&a&b&        ",
"  c&d&e&f&g&h&i&j&k&l&m&n&o&p&q&r&s&t&u&v&w&x&y&y&y&y&y&y&z&A&B&C&D&            ",
"  E&F&G&H&I&J&K&L&M&N&O&P&Q&R&S&T&U&V&W&X&Y&Z&`& *.*+*@*#*$*%*&***=*            ",
"  -*;*>*,*'*)*!*L&~*{*]*^*/*(*_*:*                                              ",
"<*[*}*|*1*2*Z#3*4*5*6*7*8*9*0*a*b*c*d*e*f*g*h*        i*j*k*l*m*n*              ",
"  o*p*q*r*J s*t*u*v*w*x*y*z*A*B*C*D*E*F*G*H*I*J*    K*L*M*N*O*P*Q*R*            ",
"  S*T*U*V*W*X*W*Y*Z*`* =.=+=@=#=$=%=&=*===-=;=>=    ,='=)=!=~={=]=^=            ",
"/=(=_=:=<=[=}=|=1=2=3=4=5=6=7=8=9=0=a=b=c=d=e=f=    g=h=i=j=k=l=m=n=            ",
"  o=p=q=r=s=t=u=v=w=x=y=z=A=B=C=D=E=F=G=H=I=J=K=    L=M=N=O=O=P=Q=R=            ",
"  S=T=U=V=W=X=X=Y=Z=`= -.-+-  @-#-$-%-&-*-=---;-    >-,-'-)-)-!-~-{-            ",
"    ]-^-/-(-_-_-_-(-:-<-[-      }-|-1-2-3-4-5-      6-7-8-9-9-0-a-b-            "};
