/* XPM */
static char * boy_down_xpm[] = {
"20 20 248 2",
"  	c None",
". 	c #818036",
"+ 	c #A4A24B",
"@ 	c #A3A049",
"# 	c #A5A24A",
"$ 	c #A5A248",
"% 	c #A4A141",
"& 	c #A3A142",
"* 	c #A29F48",
"= 	c #A29F47",
"- 	c #A39F48",
"; 	c #5C5E17",
"> 	c #B5B52C",
", 	c #F1F33F",
"' 	c #F1F132",
") 	c #F5F235",
"! 	c #F5F329",
"~ 	c #F3F127",
"{ 	c #F3F032",
"] 	c #F2F031",
"^ 	c #F0EE2A",
"/ 	c #F0EE29",
"( 	c #EFEF2A",
"_ 	c #F1F239",
": 	c #A8A82F",
"< 	c #B8B638",
"[ 	c #C2C23A",
"} 	c #C5C535",
"| 	c #DDDB33",
"1 	c #F4F429",
"2 	c #F5F522",
"3 	c #F9F523",
"4 	c #F8F72E",
"5 	c #F8F622",
"6 	c #F8F41D",
"7 	c #F7F31D",
"8 	c #F8F421",
"9 	c #F7F62F",
"0 	c #F4F323",
"a 	c #F6F62B",
"b 	c #ADAB2D",
"c 	c #D5D22E",
"d 	c #E4E12D",
"e 	c #E5E231",
"f 	c #F1E92A",
"g 	c #F9F619",
"h 	c #F9F71D",
"i 	c #F1EE1C",
"j 	c #D8D823",
"k 	c #EBE819",
"l 	c #FAF719",
"m 	c #F9F513",
"n 	c #F7F117",
"o 	c #E3E023",
"p 	c #E1E117",
"q 	c #F0F11B",
"r 	c #ADAA23",
"s 	c #878610",
"t 	c #75720D",
"u 	c #7F790E",
"v 	c #C5C017",
"w 	c #F8F61A",
"x 	c #F8F71B",
"y 	c #C2BE10",
"z 	c #777503",
"A 	c #BEBB11",
"B 	c #FAF61B",
"C 	c #F9F417",
"D 	c #EADF1E",
"E 	c #9D9511",
"F 	c #A3A315",
"G 	c #E9EA21",
"H 	c #AEAB1C",
"I 	c #8D8D26",
"J 	c #928F25",
"K 	c #9F9121",
"L 	c #D2CA21",
"M 	c #F8F61C",
"N 	c #B1AD10",
"O 	c #554F09",
"P 	c #B1A813",
"Q 	c #F9F41C",
"R 	c #F9F31A",
"S 	c #E3D922",
"T 	c #867A1A",
"U 	c #938A1D",
"V 	c #ECE727",
"W 	c #E3E33F",
"X 	c #ECEB37",
"Y 	c #EEED39",
"Z 	c #F7F631",
"` 	c #F9F71E",
" .	c #F8F61E",
"..	c #B5B211",
"+.	c #5D580B",
"@.	c #AEAC10",
"#.	c #F8F31A",
"$.	c #DFD822",
"%.	c #877A15",
"&.	c #9A8723",
"*.	c #F0E42C",
"=.	c #ADAB1D",
"-.	c #A2A017",
";.	c #A9A614",
">.	c #AEAD1A",
",.	c #DAD81A",
"'.	c #F8F619",
").	c #F7F618",
"!.	c #D6D81E",
"~.	c #AEA72C",
"{.	c #D2CC1E",
"].	c #F4F31D",
"^.	c #F7F41B",
"/.	c #ECE822",
"(.	c #C5B71F",
"_.	c #CBC821",
":.	c #EFED24",
"<.	c #AAA81F",
"[.	c #5E590F",
"}.	c #5F5A0C",
"|.	c #AEB013",
"1.	c #E8F01D",
"2.	c #ECF51D",
"3.	c #EAF227",
"4.	c #E5E13B",
"5.	c #ECE82F",
"6.	c #EEEF18",
"7.	c #E9EE1A",
"8.	c #F0F424",
"9.	c #F6F333",
"0.	c #F6F425",
"a.	c #F7F523",
"b.	c #AAA820",
"c.	c #77771B",
"d.	c #BABA2B",
"e.	c #C8C729",
"f.	c #BEBC29",
"g.	c #8E8E10",
"h.	c #A0A113",
"i.	c #D9E01E",
"j.	c #C3C718",
"k.	c #999820",
"l.	c #878517",
"m.	c #878506",
"n.	c #808509",
"o.	c #9CA112",
"p.	c #E1E924",
"q.	c #F6F518",
"r.	c #ABAB2D",
"s.	c #9D9830",
"t.	c #E9E54C",
"u.	c #F3F042",
"v.	c #E6E346",
"w.	c #838116",
"x.	c #706B0B",
"y.	c #D2D624",
"z.	c #B6B716",
"A.	c #767403",
"B.	c #787604",
"C.	c #797604",
"D.	c #787607",
"E.	c #8B8A09",
"F.	c #DBDC18",
"G.	c #ECEA15",
"H.	c #E2E12F",
"I.	c #E8E92E",
"J.	c #F7F61B",
"K.	c #E9E71E",
"L.	c #84820B",
"M.	c #766D1C",
"N.	c #DADA33",
"O.	c #E1E327",
"P.	c #CECC3A",
"Q.	c #CECA3D",
"R.	c #D2D03A",
"S.	c #E5EC27",
"T.	c #C0C11F",
"U.	c #707021",
"V.	c #B3BD19",
"W.	c #E9F022",
"X.	c #F3F71C",
"Y.	c #E7EA18",
"Z.	c #B5B30A",
"`.	c #959317",
" +	c #A7AB22",
".+	c #B9BF30",
"++	c #BFBD4B",
"@+	c #BFBC4A",
"#+	c #BFBB49",
"$+	c #BFBB48",
"%+	c #BEBD43",
"&+	c #B6BB28",
"*+	c #90901D",
"=+	c #D3D444",
"-+	c #ECEF2C",
";+	c #F3F821",
">+	c #F4F81E",
",+	c #F3F61F",
"'+	c #E8EB26",
")+	c #C2C125",
"!+	c #6B690A",
"~+	c #4B4810",
"{+	c #4B4714",
"]+	c #48430F",
"^+	c #45440A",
"/+	c #DDED3A",
"(+	c #F8F71F",
"_+	c #F6F616",
":+	c #F8F715",
"<+	c #F3F117",
"[+	c #CAC91B",
"}+	c #989719",
"|+	c #989522",
"1+	c #A69D2D",
"2+	c #A19832",
"3+	c #75742D",
"4+	c #79752C",
"5+	c #9E9433",
"6+	c #9A962C",
"7+	c #D7D82F",
"8+	c #E6E21B",
"9+	c #E6E316",
"0+	c #E9E71D",
"a+	c #DBD91F",
"b+	c #88840C",
"c+	c #64620E",
"d+	c #C0BE4D",
"e+	c #DBD95F",
"f+	c #D5D067",
"g+	c #A2A758",
"h+	c #B3AE56",
"i+	c #DAD662",
"j+	c #DAD95F",
"k+	c #B7B64F",
"l+	c #6B6E1D",
"m+	c #79791F",
"n+	c #7A7917",
"o+	c #7B7A1A",
"p+	c #727121",
"q+	c #4C4812",
"r+	c #6A6A27",
"s+	c #7B7A26",
"t+	c #7B7B22",
"u+	c #5D6221",
"v+	c #656320",
"w+	c #79792D",
"x+	c #79792E",
"y+	c #656526",
"                                        ",
"                                        ",
"                                        ",
"            . + @ # $ % & @ * = -       ",
"          ; > , ' ) ! ~ { ] ^ / ( _ :   ",
"      < [ } | 1 2 3 4 5 6 7 8 9 0 a b   ",
"      c d e f g h i j k l m n o p q r   ",
"      s t u v w x y z A B C D E F G H   ",
"      I J K L M M N O P Q R S T U V H   ",
"      W X Y Z `  ...+.@.#.Q $.%.&.*.=.  ",
"      -.;.>.,.'.).!.~.{.].^./.(._.:.<.  ",
"        [.}.|.1.2.3.4.5.6.7.8.9.0.a.b.  ",
"    c.d.e.f.g.h.i.j.k.l.m.n.o.p.q.4 r.  ",
"    s.t.u.v.w.x.y.z.A.B.C.D.E.F.G.H.    ",
"      I.J.K.L.M.N.O.P.Q.Q.Q.R.S.T.U.    ",
"    V.W.X.Y.Z.`. +.+++@+#+$+%+&+*+      ",
"  =+-+;+>+,+'+)+!+~+{+      ]+^+        ",
"  /+(+_+:+<+[+}+|+1+2+3+  4+5+6+        ",
"  7+8+9+0+a+b+c+d+e+f+g+  h+i+j+k+      ",
"  l+m+n+o+p+q+  r+s+t+u+  v+w+x+y+      "};
