/* XPM */
static char * boy_sad_xpm[] = {
"40 40 386 2",
"  	c None",
". 	c #9E1D15",
"+ 	c #971E19",
"@ 	c #961D1A",
"# 	c #992018",
"$ 	c #991D18",
"% 	c #971F19",
"& 	c #9A1F17",
"* 	c #941E1B",
"= 	c #9F1517",
"- 	c #BC0310",
"; 	c #B10A12",
"> 	c #9A1818",
", 	c #95201A",
"' 	c #972119",
") 	c #D63500",
"! 	c #F83B00",
"~ 	c #FC3B00",
"{ 	c #FA3800",
"] 	c #F93A00",
"^ 	c #FA3B00",
"/ 	c #FB3B00",
"( 	c #FD3900",
"_ 	c #FF3801",
": 	c #FF3900",
"< 	c #FD3A00",
"[ 	c #FB3700",
"} 	c #F32D00",
"| 	c #C62E00",
"1 	c #97420A",
"2 	c #DB4500",
"3 	c #FF7D15",
"4 	c #FF8D1C",
"5 	c #FF8719",
"6 	c #FF871A",
"7 	c #FF8B1B",
"8 	c #FF8A1B",
"9 	c #FF8C1B",
"0 	c #FF891A",
"a 	c #FF8E1C",
"b 	c #FF8B1A",
"c 	c #FF8819",
"d 	c #FF8A1A",
"e 	c #FF8C1D",
"f 	c #FF6E0F",
"g 	c #C93E00",
"h 	c #755D03",
"i 	c #9A400D",
"j 	c #DD4200",
"k 	c #FF7B15",
"l 	c #FF8014",
"m 	c #FF7E12",
"n 	c #FF8115",
"o 	c #FF8015",
"p 	c #FF8717",
"q 	c #FF820F",
"r 	c #FF8110",
"s 	c #FF800C",
"t 	c #FF810F",
"u 	c #FF8416",
"v 	c #FF8618",
"w 	c #FF7F0F",
"x 	c #FF800D",
"y 	c #FF8B1C",
"z 	c #FF730E",
"A 	c #CB4500",
"B 	c #835104",
"C 	c #FF4E0F",
"D 	c #E53C00",
"E 	c #F25100",
"F 	c #FF7B12",
"G 	c #FF7D0F",
"H 	c #FF7D0E",
"I 	c #FF7E11",
"J 	c #FF7F11",
"K 	c #FF8012",
"L 	c #FF810C",
"M 	c #FF8011",
"N 	c #FF7F12",
"O 	c #FF7E0C",
"P 	c #FF7E0B",
"Q 	c #FF7D0B",
"R 	c #FF7D0A",
"S 	c #FF8216",
"T 	c #FF760F",
"U 	c #EA4B00",
"V 	c #DB3F00",
"W 	c #FF4B0C",
"X 	c #83351A",
"Y 	c #FD2300",
"Z 	c #FF8529",
"` 	c #FF7417",
" .	c #FF780D",
"..	c #FF7F10",
"+.	c #FF8111",
"@.	c #FF8112",
"#.	c #FF8010",
"$.	c #FF800B",
"%.	c #FF810D",
"&.	c #FF7B13",
"*.	c #FF7316",
"=.	c #FF3D12",
"-.	c #DC0B00",
";.	c #942719",
">.	c #FF2E09",
",.	c #FF9C34",
"'.	c #FF9225",
").	c #FF8215",
"!.	c #FF8212",
"~.	c #FF8211",
"{.	c #FF7E16",
"].	c #FF8318",
"^.	c #FF9124",
"/.	c #FF4C1C",
"(.	c #E9000F",
"_.	c #A21E11",
":.	c #FF370A",
"<.	c #FFA033",
"[.	c #FF9123",
"}.	c #FF8214",
"|.	c #FF7F13",
"1.	c #FF8217",
"2.	c #FF9224",
"3.	c #FFA234",
"4.	c #FF581E",
"5.	c #ED000E",
"6.	c #8F3418",
"7.	c #F83C00",
"8.	c #FF8C21",
"9.	c #FF7C11",
"0.	c #FF7B11",
"a.	c #FF861A",
"b.	c #FF9424",
"c.	c #FF580E",
"d.	c #DF1900",
"e.	c #8C3A14",
"f.	c #EE4200",
"g.	c #FF8013",
"h.	c #FF7C0F",
"i.	c #FF7A0B",
"j.	c #FF8A19",
"k.	c #FF5B04",
"l.	c #D82B00",
"m.	c #8C3A15",
"n.	c #EF4300",
"o.	c #FF830E",
"p.	c #FF7F0E",
"q.	c #FF7E15",
"r.	c #FF7E13",
"s.	c #FF7308",
"t.	c #FF7E10",
"u.	c #FF7C10",
"v.	c #FF7A0A",
"w.	c #FF5904",
"x.	c #D92900",
"y.	c #8D3915",
"z.	c #F04300",
"A.	c #FF7207",
"B.	c #BA4200",
"C.	c #EE5300",
"D.	c #F05600",
"E.	c #E14D00",
"F.	c #FF760A",
"G.	c #FF7D14",
"H.	c #FF7D12",
"I.	c #FF5703",
"J.	c #FF7F0D",
"K.	c #696004",
"L.	c #8A4906",
"M.	c #FF770B",
"N.	c #FA6200",
"O.	c #7B5106",
"P.	c #686104",
"Q.	c #FF6C03",
"R.	c #FF7F16",
"S.	c #FF881A",
"T.	c #FF5502",
"U.	c #D82900",
"V.	c #8E3914",
"W.	c #F14400",
"X.	c #DD4A00",
"Y.	c #E74D00",
"Z.	c #FD6500",
"`.	c #9A4408",
" +	c #C64600",
".+	c #FF7D11",
"++	c #FF5602",
"@+	c #F03F00",
"#+	c #FF8319",
"$+	c #FF8317",
"%+	c #FF8213",
"&+	c #FF7B0D",
"*+	c #FF7D13",
"=+	c #8D3914",
"-+	c #EF3B00",
";+	c #FF7E18",
">+	c #FF8017",
",+	c #8E3913",
"'+	c #EF4000",
")+	c #FF8218",
"!+	c #993212",
"~+	c #F34200",
"{+	c #FF8518",
"]+	c #FF820E",
"^+	c #FF7D10",
"/+	c #BD1700",
"(+	c #F93B00",
"_+	c #FF7F18",
":+	c #FF800E",
"<+	c #FF7F14",
"[+	c #B51D03",
"}+	c #F73D00",
"|+	c #FF8119",
"1+	c #FF5302",
"2+	c #D72300",
"3+	c #913715",
"4+	c #F24300",
"5+	c #FF8415",
"6+	c #FF5002",
"7+	c #D71A00",
"8+	c #F04400",
"9+	c #FF7E0F",
"0+	c #FF7508",
"a+	c #FF7A0C",
"b+	c #F45B00",
"c+	c #E94D00",
"d+	c #E84F00",
"e+	c #FF6900",
"f+	c #923316",
"g+	c #F34300",
"h+	c #FF7F0C",
"i+	c #FF8113",
"j+	c #ED5300",
"k+	c #C04300",
"l+	c #964309",
"m+	c #9A4407",
"n+	c #AB4001",
"o+	c #B44100",
"p+	c #B64100",
"q+	c #B84200",
"r+	c #B94400",
"s+	c #AF4000",
"t+	c #D74A00",
"u+	c #FF8418",
"v+	c #A12011",
"w+	c #F83E00",
"x+	c #FF8210",
"y+	c #FF8316",
"z+	c #FF6901",
"A+	c #CE4700",
"B+	c #994508",
"C+	c #EF5300",
"D+	c #FF7106",
"E+	c #FF7509",
"F+	c #FF6F05",
"G+	c #F96000",
"H+	c #D04900",
"I+	c #AB3E01",
"J+	c #CF4800",
"K+	c #FD6400",
"L+	c #B11B06",
"M+	c #F94100",
"N+	c #FF8114",
"O+	c #FF8718",
"P+	c #FF8315",
"Q+	c #FA6300",
"R+	c #D04800",
"S+	c #B74400",
"T+	c #D34900",
"U+	c #FF6E05",
"V+	c #D44700",
"W+	c #9D4409",
"X+	c #B14000",
"Y+	c #FF5102",
"Z+	c #B02804",
"`+	c #F64700",
" @	c #D04700",
".@	c #E04E00",
"+@	c #C84700",
"@@	c #EA4E00",
"#@	c #FF8116",
"$@	c #FF8019",
"%@	c #FF4C00",
"&@	c #9A3510",
"*@	c #F34700",
"=@	c #EC5100",
"-@	c #BD4500",
";@	c #E44C00",
">@	c #EE5400",
",@	c #D54900",
"'@	c #FF6800",
")@	c #FF841A",
"!@	c #8F3914",
"~@	c #EB5000",
"{@	c #E64C00",
"]@	c #E04B00",
"^@	c #F05500",
"/@	c #FC6300",
"(@	c #FF740A",
"_@	c #DE4900",
":@	c #FF7E0D",
"<@	c #A8280A",
"[@	c #F64500",
"}@	c #FF6B03",
"|@	c #FF5902",
"1@	c #D72C00",
"2@	c #C01200",
"3@	c #FB3D00",
"4@	c #FF7F0A",
"5@	c #FF8D22",
"6@	c #FF5108",
"7@	c #DC1F00",
"8@	c #9E1A15",
"9@	c #EE0B00",
"0@	c #FF5011",
"a@	c #FF6E0A",
"b@	c #FF7A01",
"c@	c #FF800A",
"d@	c #FF810E",
"e@	c #FF820D",
"f@	c #FF6706",
"g@	c #FF5411",
"h@	c #FF6227",
"i@	c #FF1612",
"j@	c #E5001F",
"k@	c #802527",
"l@	c #DE000D",
"m@	c #FF1F01",
"n@	c #F64D00",
"o@	c #F56A00",
"p@	c #FF830D",
"q@	c #FF820A",
"r@	c #FF7706",
"s@	c #EC4A00",
"t@	c #F21B00",
"u@	c #FF1B1F",
"v@	c #FF0F3A",
"w@	c #E5003D",
"x@	c #BF3D00",
"y@	c #E34C00",
"z@	c #FF8615",
"A@	c #FF820C",
"B@	c #FF820B",
"C@	c #FF830F",
"D@	c #CF4700",
"E@	c #9C3711",
"F@	c #86440E",
"G@	c #DD3700",
"H@	c #FF7F1D",
"I@	c #FF771C",
"J@	c #FF5F15",
"K@	c #FF6819",
"L@	c #FF6C1B",
"M@	c #FF6E1A",
"N@	c #FF7B1B",
"O@	c #FF7D1B",
"P@	c #FF6213",
"Q@	c #FF6016",
"R@	c #FF6B1A",
"S@	c #FF801C",
"T@	c #FF6E19",
"U@	c #FF6D18",
"V@	c #FF5B12",
"W@	c #C92C00",
"X@	c #66550D",
"Y@	c #7A4314",
"Z@	c #DE2900",
"`@	c #FF7A23",
" #	c #FF521B",
".#	c #FF220B",
"+#	c #FF3617",
"@#	c #FF411B",
"##	c #FF4118",
"$#	c #FF7625",
"%#	c #FF7F27",
"&#	c #FF3511",
"*#	c #FF260F",
"=#	c #FF3D19",
"-#	c #FF421B",
";#	c #FF4419",
">#	c #FF8228",
",#	c #FF4D1A",
"'#	c #FF7C27",
")#	c #FF3210",
"!#	c #CA1000",
"~#	c #614217",
"                                                                                ",
"                                                                                ",
"              . + @ # $ @ $ # @ % & % * * * * * = - ; > ; - = , '               ",
"            ) ! ~ { ] ^ ~ ^ ^ ~ ~ ^ / ~ ~ ~ ~ ~ ( _ : < : _ ( [ } |             ",
"          1 2 3 4 5 6 7 4 7 8 4 9 0 9 a b b 9 4 4 0 c d c 0 4 e f g h           ",
"          i j k 0 l m n 8 n o 5 p q p c r s t u v w x x x w v y z A B           ",
"        C D E F l G H m o I J l K L M N O P Q w K O P R P O K S T U V W         ",
"    X Y Z `  ...+.M @.@.@.@.@.@.@.+.M M +.+.#.x $.t +.+.+.r %.K &.T *.Z =.-.    ",
"    ;.>.,.'.).@.!.~.+.+.!.!.!.+.+.K J J M +.+.t t +.@.@.K #.t N {.].^.,./.(.    ",
"    _.:.<.[.}.@.+.#.#.+.!.!.K J J J J J #.#.#.+.K M M M J J #.|.3 1.2.3.4.5.    ",
"    6.7.8.}.%.!.K J J J J J J J J J J J K +.J J J J K !.!.K J J 9.0.a.b.c.d.    ",
"    e.f.S L x g.g.J J J J J J J J J J J !.K J J J J +.!.!.+.J I h.i...j.k.l.    ",
"    m.n.v o.p.q.r.J J J s.t.J J J J J +.!.K J J J J +.M ..J J I u.v.p.b w.x.    ",
"    y.z.c o.O N N J J A.B.C.t.J J J +.K !.K J J J J ..D.E.F.J |.G.H.S 7 I.x.    ",
"    m.z.5 ~.J.#.+.J t.D.K.L.M.J J J K !.!.K J J J J N.O.P.Q.J r.q.R.S.8 T.U.    ",
"    V.W.S.0 ).+.!.K J h.X.Y.t.J J J K !.!.K J J J J Z.`. +h.J m .+9.l 8 ++U.    ",
"    V.@+#+$+%++.!.!.J J t.t.J J J J K !.!.K J J J J +.&+G J J N *+H.l S.T.U.    ",
"    =+-+;+w L ~.%+!.J J J J J J J J K !.!.K J J J J +.!.+.J J r.3 >+S.8 T.U.    ",
"    ,+'+)+%.$.~.%+!.J J J J J J J J K !.!.K J J J J +.!.+.J J I *+H.l S.T.U.    ",
"    !+~+{+]+$.~.%+!.J J J J J J J J K !.!.K J J J J +.!.K +.#...^+H.o 8 ++x.    ",
"    /+(+_+:+$.~.%+!.J J J J J J J J K !.!.!.#.#.#.#.+.!.!.K #.M @.<+].y T.U.    ",
"    [+}+|++.]+!.+.K J J J J J J J +.K !.!.!.#.#.#.#.#.!.!.M #.+.!.|.1.8 1+2+    ",
"    3+4+0 5+~.!.+.M J J J J J J J #.!.!.!.!.#.#.#.#.#.!.M M #.+.@.I o S.6+7+    ",
"    ,+8+c +.J.~.+.M #.#.M #.9+0+a+b+D.c+c+c+d+e+0+9+#.!.M M #.+.!.|.1.8 1+2+    ",
"    f+g+5 J.h+%+i+M #.#.M a+j+k+l+m+n+o+p+q+r+s+p+t+&+!.M M #.+.!.l u+y T.U.    ",
"    v+w+c ]+x+0 y+M #.9+z+A+B+p+C+D+s.E+s.F+G+H+r+I+J+K+t.M #.+.!.K ).8 T.x.    ",
"    L+M+0 %+N+O+P+M #.Q+R+S+T+U+t.#.M !.!.!.9+H F.V+W+X+U+M #.+.!.+.}.a.Y+U.    ",
"    Z+`+y 1.o %+@.M &+ @k+.@D+M M #.!.!.!.!.#.#.#.H F.+@@@t.#.+.%+!.#@$@%@U.    ",
"    &@*@0 i+#.!.+.t.=@-@;@&+#.M M #.!.!.!.!.#.#.#.#.9+>@,@'@#.|.o |.o )@Y+U.    ",
"    !@8+5 ~.%.!.@.M ~@{@G M M M M M +.!.!.+.M #.#.#.M G ]@^@M |.q.H.g.S.T.U.    ",
"    !@8+S.0 ).@.!.J /@(@N N N N N N @.!.!.@.N N J M M !.^@_@u.g.g.:@w 5 ++U.    ",
"    <@[@c O+%+@.@.K .+N N N N K K K @.!.!.@.N N N M +.@.I }@N n u g.@.b |@1@    ",
"    2@3@|+J.4@x+K J J J #.M M !.+.M +.~.~.+.J J J M +.~.+.M J y+0 {.;+5@6@7@    ",
"    8@9@0@a@b@c@%.d@d@%.e@]+]+q ]+]+]+]+]+]+d@d@d@]+]+]+]+]+d@x+^+f@g@h@i@j@    ",
"    k@l@m@n@o@c@p@q@q@q@q@q@q@q@q@q@q@q@q@q@q@q@q@q@q@q@q@q@q@q@r@s@t@u@v@w@    ",
"          x@y@l z@e@A@A@A@A@A@B@A@A@A@A@A@A@A@A@A@A@A@A@A@A@A@C@0+D@E@          ",
"          F@G@H@I@J@K@L@M@N@O@P@Q@R@L@L@L@L@M@N@S@T@L@L@L@U@S@H@V@W@X@          ",
"          Y@Z@`@ #.#+#@###$#%#&#*#=#-#-#-#@#;#$#>#,#@#-#@#,#Z '#)#!#~#          ",
"                                                                                ",
"                                                                                "};
