/* XPM */
static char * boy_right_xpm[] = {
"20 20 245 2",
"  	c None",
". 	c #A8A82F",
"+ 	c #ADAB2D",
"@ 	c #ADAA23",
"# 	c #AEAB1C",
"$ 	c #ADAB1D",
"% 	c #AAA81F",
"& 	c #AAA820",
"* 	c #ABAB2D",
"= 	c #9C9C2E",
"- 	c #F1F239",
"; 	c #F6F62B",
"> 	c #F0F11B",
", 	c #E9EA21",
"' 	c #ECE727",
") 	c #F0E42C",
"! 	c #EFED24",
"~ 	c #F7F523",
"{ 	c #F8F72E",
"] 	c #E2E12F",
"^ 	c #707021",
"/ 	c #A39F48",
"( 	c #EFEF2A",
"_ 	c #F4F323",
": 	c #E1E117",
"< 	c #A3A315",
"[ 	c #938A1D",
"} 	c #9A8723",
"| 	c #CBC821",
"1 	c #F6F425",
"2 	c #F6F518",
"3 	c #ECEA15",
"4 	c #C0C11F",
"5 	c #90901D",
"6 	c #B7B64F",
"7 	c #656526",
"8 	c #A29F47",
"9 	c #F0EE29",
"0 	c #F7F62F",
"a 	c #E3E023",
"b 	c #9D9511",
"c 	c #867A1A",
"d 	c #877A15",
"e 	c #C5B71F",
"f 	c #F6F333",
"g 	c #E1E924",
"h 	c #DBDC18",
"i 	c #E5EC27",
"j 	c #B6BB28",
"k 	c #45440A",
"l 	c #9A962C",
"m 	c #DAD95F",
"n 	c #79792E",
"o 	c #A29F48",
"p 	c #F0EE2A",
"q 	c #F8F421",
"r 	c #F7F117",
"s 	c #EADF1E",
"t 	c #E3D922",
"u 	c #DFD822",
"v 	c #ECE822",
"w 	c #F0F424",
"x 	c #9CA112",
"y 	c #8B8A09",
"z 	c #D2D03A",
"A 	c #BEBD43",
"B 	c #48430F",
"C 	c #9E9433",
"D 	c #DAD662",
"E 	c #79792D",
"F 	c #A3A049",
"G 	c #F2F031",
"H 	c #F7F31D",
"I 	c #F9F513",
"J 	c #F9F417",
"K 	c #F9F31A",
"L 	c #F9F41C",
"M 	c #F7F41B",
"N 	c #E9EE1A",
"O 	c #808509",
"P 	c #787607",
"Q 	c #CECA3D",
"R 	c #BFBB48",
"S 	c #79752C",
"T 	c #B3AE56",
"U 	c #656320",
"V 	c #A3A142",
"W 	c #F3F032",
"X 	c #F8F41D",
"Y 	c #FAF719",
"Z 	c #FAF61B",
"` 	c #F8F31A",
" .	c #F4F31D",
"..	c #EEEF18",
"+.	c #878506",
"@.	c #797604",
"#.	c #BFBB49",
"$.	c #A4A141",
"%.	c #F3F127",
"&.	c #F8F622",
"*.	c #EBE819",
"=.	c #BEBB11",
"-.	c #B1A813",
";.	c #AEAC10",
">.	c #D2CC1E",
",.	c #ECE82F",
"'.	c #878517",
").	c #787604",
"!.	c #BFBC4A",
"~.	c #A2A758",
"{.	c #5D6221",
"].	c #A5A248",
"^.	c #F5F329",
"/.	c #D8D823",
"(.	c #777503",
"_.	c #554F09",
":.	c #5D580B",
"<.	c #AEA72C",
"[.	c #E5E13B",
"}.	c #999820",
"|.	c #767403",
"1.	c #CECC3A",
"2.	c #BFBD4B",
"3.	c #4B4714",
"4.	c #A19832",
"5.	c #D5D067",
"6.	c #7B7B22",
"7.	c #A5A24A",
"8.	c #F5F235",
"9.	c #F9F523",
"0.	c #F1EE1C",
"a.	c #C2BE10",
"b.	c #B1AD10",
"c.	c #B5B211",
"d.	c #D6D81E",
"e.	c #EAF227",
"f.	c #C3C718",
"g.	c #B6B716",
"h.	c #E1E327",
"i.	c #B9BF30",
"j.	c #4B4810",
"k.	c #A69D2D",
"l.	c #DBD95F",
"m.	c #7B7A26",
"n.	c #F1F132",
"o.	c #F5F522",
"p.	c #F9F71D",
"q.	c #F8F71B",
"r.	c #F8F61C",
"s.	c #F8F61E",
"t.	c #F7F618",
"u.	c #ECF51D",
"v.	c #D9E01E",
"w.	c #D2D624",
"x.	c #DADA33",
"y.	c #A7AB22",
"z.	c #6B690A",
"A.	c #989522",
"B.	c #C0BE4D",
"C.	c #6A6A27",
"D.	c #A4A24B",
"E.	c #F1F33F",
"F.	c #F4F429",
"G.	c #F9F619",
"H.	c #F8F61A",
"I.	c #F9F71E",
"J.	c #F8F619",
"K.	c #E8F01D",
"L.	c #A0A113",
"M.	c #706B0B",
"N.	c #766D1C",
"O.	c #959317",
"P.	c #C2C125",
"Q.	c #818036",
"R.	c #B5B52C",
"S.	c #DDDB33",
"T.	c #F1E92A",
"U.	c #C5C017",
"V.	c #D2CA21",
"W.	c #F7F631",
"X.	c #DAD81A",
"Y.	c #AEB013",
"Z.	c #8E8E10",
"`.	c #838116",
" +	c #84820B",
".+	c #B5B30A",
"++	c #E8EB26",
"@+	c #CAC91B",
"#+	c #4C4812",
"$+	c #5C5E17",
"%+	c #C5C535",
"&+	c #E5E231",
"*+	c #7F790E",
"=+	c #9F9121",
"-+	c #EEED39",
";+	c #AEAD1A",
">+	c #5F5A0C",
",+	c #BEBC29",
"'+	c #E6E346",
")+	c #E9E71E",
"!+	c #E7EA18",
"~+	c #F3F61F",
"{+	c #F3F117",
"]+	c #DBD91F",
"^+	c #727121",
"/+	c #4C4B25",
"(+	c #C2C23A",
"_+	c #E4E12D",
":+	c #75720D",
"<+	c #928F25",
"[+	c #ECEB37",
"}+	c #A9A614",
"|+	c #5E590F",
"1+	c #C8C729",
"2+	c #F3F042",
"3+	c #F7F61B",
"4+	c #F3F71C",
"5+	c #F4F81E",
"6+	c #F8F715",
"7+	c #E9E71D",
"8+	c #7B7A1A",
"9+	c #B8B638",
"0+	c #D5D22E",
"a+	c #8D8D26",
"b+	c #E3E33F",
"c+	c #BABA2B",
"d+	c #E9E54C",
"e+	c #E8E92E",
"f+	c #E9F022",
"g+	c #F3F821",
"h+	c #F6F616",
"i+	c #E6E316",
"j+	c #7A7917",
"k+	c #77771B",
"l+	c #9D9830",
"m+	c #9B9A2A",
"n+	c #B3BD19",
"o+	c #ECEF2C",
"p+	c #F8F71F",
"q+	c #E6E21B",
"r+	c #79791F",
"s+	c #D3D444",
"t+	c #DDED3A",
"u+	c #D7D82F",
"v+	c #6B6E1D",
"                                        ",
"        . + @ # # $ % & * =             ",
"        - ; > , ' ) ! ~ { ] ^           ",
"      / ( _ : < [ } | 1 2 3 4 5     6 7 ",
"      8 9 0 a b c d e f g h i j k l m n ",
"      o p q r s t u v w x y z A B C D E ",
"      F G H I J K L M N O P Q R   S T U ",
"      V W X Y Z L `  ...+.@.Q #.        ",
"      $.%.&.*.=.-.;.>.,.'.).Q !.    ~.{.",
"      ].^.{ /.(._.:.<.[.}.|.1.2.3.4.5.6.",
"      7.8.9.0.a.b.c.d.e.f.g.h.i.j.k.l.m.",
"      F n.o.p.q.r.s.t.u.v.w.x.y.z.A.B.C.",
"      D.E.F.G.H.r.I.J.K.L.M.N.O.P.      ",
"      Q.R.S.T.U.V.W.X.Y.Z.`. +.+++@+  #+",
"        $+%+&+*+=+-+;+>+,+'+)+!+~+{+]+^+",
"        /+(+_+:+<+[+}+|+1+2+3+4+5+6+7+8+",
"          9+0+  a+b+    c+d+e+f+g+h+i+j+",
"                        k+l+m+n+o+p+q+r+",
"                                s+t+u+v+",
"                                        "};
