/* XPM */
static char * boy_up_xpm[] = {
"20 20 252 2",
"  	c None",
". 	c #79792E",
"+ 	c #79792D",
"@ 	c #656320",
"# 	c #5D6221",
"$ 	c #7B7B22",
"% 	c #7B7A26",
"& 	c #6A6A27",
"* 	c #4C4812",
"= 	c #727121",
"- 	c #7B7A1A",
"; 	c #7A7917",
"> 	c #79791F",
", 	c #6B6E1D",
"' 	c #B7B64F",
") 	c #DAD95F",
"! 	c #DAD662",
"~ 	c #B3AE56",
"{ 	c #A2A758",
"] 	c #D5D067",
"^ 	c #DBD95F",
"/ 	c #C0BE4D",
"( 	c #64620E",
"_ 	c #88840C",
": 	c #DBD91F",
"< 	c #E9E71D",
"[ 	c #E6E316",
"} 	c #E6E21B",
"| 	c #D7D82F",
"1 	c #797827",
"2 	c #9A962C",
"3 	c #9E9433",
"4 	c #79752C",
"5 	c #A19832",
"6 	c #A69D2D",
"7 	c #989522",
"8 	c #989719",
"9 	c #CAC91B",
"0 	c #F3F117",
"a 	c #F8F715",
"b 	c #F6F616",
"c 	c #F8F71F",
"d 	c #DDED3A",
"e 	c #45440A",
"f 	c #48430F",
"g 	c #4B4714",
"h 	c #4B4810",
"i 	c #6B690A",
"j 	c #C2C125",
"k 	c #E8EB26",
"l 	c #F3F61F",
"m 	c #F4F81E",
"n 	c #F3F821",
"o 	c #ECEF2C",
"p 	c #D3D444",
"q 	c #90901D",
"r 	c #B6BB28",
"s 	c #BEBD43",
"t 	c #BFBB48",
"u 	c #BFBC4A",
"v 	c #BFBD4B",
"w 	c #B9BF30",
"x 	c #A7AB22",
"y 	c #959317",
"z 	c #B5B30A",
"A 	c #E7EA18",
"B 	c #F3F71C",
"C 	c #E9F022",
"D 	c #B3BD19",
"E 	c #707021",
"F 	c #C0C11F",
"G 	c #E5EC27",
"H 	c #D2D03A",
"I 	c #CECA3D",
"J 	c #CECC3A",
"K 	c #E1E327",
"L 	c #DADA33",
"M 	c #766D1C",
"N 	c #84820B",
"O 	c #E9E71E",
"P 	c #F7F61B",
"Q 	c #E8E92E",
"R 	c #9B9A2A",
"S 	c #9C9C2E",
"T 	c #E2E12F",
"U 	c #ECEA15",
"V 	c #DBDC18",
"W 	c #8B8A09",
"X 	c #787607",
"Y 	c #797604",
"Z 	c #787604",
"` 	c #767403",
" .	c #B6B716",
"..	c #D2D624",
"+.	c #706B0B",
"@.	c #838116",
"#.	c #E6E346",
"$.	c #F3F042",
"%.	c #E9E54C",
"&.	c #9D9830",
"*.	c #ABAB2D",
"=.	c #F8F72E",
"-.	c #F6F518",
";.	c #E1E924",
">.	c #9CA112",
",.	c #808509",
"'.	c #878506",
").	c #878517",
"!.	c #999820",
"~.	c #C3C718",
"{.	c #D9E01E",
"].	c #A0A113",
"^.	c #8E8E10",
"/.	c #BEBC29",
"(.	c #C8C729",
"_.	c #BABA2B",
":.	c #77771B",
"<.	c #AAA820",
"[.	c #F7F523",
"}.	c #F6F425",
"|.	c #F6F333",
"1.	c #F0F424",
"2.	c #E9EE1A",
"3.	c #EEEF18",
"4.	c #ECE82F",
"5.	c #E5E13B",
"6.	c #EAF227",
"7.	c #ECF51D",
"8.	c #E8F01D",
"9.	c #AEB013",
"0.	c #5F5A0C",
"a.	c #5E590F",
"b.	c #AAA81F",
"c.	c #EFED24",
"d.	c #CBC821",
"e.	c #C5B71F",
"f.	c #ECE822",
"g.	c #F7F41B",
"h.	c #F4F31D",
"i.	c #D2CC1E",
"j.	c #AEA72C",
"k.	c #D6D81E",
"l.	c #F7F618",
"m.	c #F8F619",
"n.	c #DAD81A",
"o.	c #AEAD1A",
"p.	c #A9A614",
"q.	c #A2A017",
"r.	c #ADAB1D",
"s.	c #F0E42C",
"t.	c #9A8723",
"u.	c #877A15",
"v.	c #DFD822",
"w.	c #F9F41C",
"x.	c #F8F31A",
"y.	c #AEAC10",
"z.	c #5D580B",
"A.	c #B5B211",
"B.	c #F8F61E",
"C.	c #F9F71E",
"D.	c #F7F631",
"E.	c #EEED39",
"F.	c #ECEB37",
"G.	c #E3E33F",
"H.	c #9F9F37",
"I.	c #AEAB1C",
"J.	c #ECE727",
"K.	c #938A1D",
"L.	c #867A1A",
"M.	c #E3D922",
"N.	c #F9F31A",
"O.	c #B1A813",
"P.	c #554F09",
"Q.	c #B1AD10",
"R.	c #F8F61C",
"S.	c #D2CA21",
"T.	c #9F9121",
"U.	c #928F25",
"V.	c #8D8D26",
"W.	c #6D6B25",
"X.	c #E9EA21",
"Y.	c #A3A315",
"Z.	c #9D9511",
"`.	c #EADF1E",
" +	c #F9F417",
".+	c #FAF61B",
"++	c #BEBB11",
"@+	c #777503",
"#+	c #C2BE10",
"$+	c #F8F71B",
"%+	c #F8F61A",
"&+	c #C5C017",
"*+	c #7F790E",
"=+	c #75720D",
"-+	c #878610",
";+	c #56570F",
">+	c #ADAA23",
",+	c #F0F11B",
"'+	c #E1E117",
")+	c #E3E023",
"!+	c #F7F117",
"~+	c #F9F513",
"{+	c #FAF719",
"]+	c #EBE819",
"^+	c #D8D823",
"/+	c #F1EE1C",
"(+	c #F9F71D",
"_+	c #F9F619",
":+	c #F1E92A",
"<+	c #E5E231",
"[+	c #E4E12D",
"}+	c #D5D22E",
"|+	c #898823",
"1+	c #ADAB2D",
"2+	c #F6F62B",
"3+	c #F4F323",
"4+	c #F7F62F",
"5+	c #F8F421",
"6+	c #F7F31D",
"7+	c #F8F41D",
"8+	c #F8F622",
"9+	c #F9F523",
"0+	c #F5F522",
"a+	c #F4F429",
"b+	c #DDDB33",
"c+	c #C5C535",
"d+	c #C2C23A",
"e+	c #B8B638",
"f+	c #F1F239",
"g+	c #EFEF2A",
"h+	c #F0EE29",
"i+	c #F0EE2A",
"j+	c #F2F031",
"k+	c #F3F032",
"l+	c #F3F127",
"m+	c #F5F329",
"n+	c #F5F235",
"o+	c #F1F132",
"p+	c #F1F33F",
"q+	c #B5B52C",
"r+	c #5C5E17",
"s+	c #4C4B25",
"t+	c #A3A049",
"u+	c #A39F48",
"v+	c #A29F47",
"w+	c #A29F48",
"x+	c #A3A142",
"y+	c #A4A141",
"z+	c #A5A248",
"A+	c #A5A24A",
"B+	c #A4A24B",
"C+	c #818036",
"        . + @   # $ % &   * = - ; > ,   ",
"      ' ) ! ~   { ] ^ / ( _ : < [ } |   ",
"      1 2 3 4     5 6 7 8 9 0 a b c d   ",
"        e f       g h i j k l m n o p   ",
"      q r s t   u v w x y z A B C D     ",
"    E F G H I I I J K L M N O P Q R     ",
"  S T U V W X Y Z `  ...+.@.#.$.%.&.    ",
"  *.=.-.;.>.,.'.).!.~.{.].^./.(._.:.    ",
"  <.[.}.|.1.2.3.4.5.6.7.8.9.0.a.        ",
"  b.c.d.e.f.g.h.i.j.k.l.m.n.o.p.q.      ",
"  r.s.t.u.v.w.x.y.z.A.B.C.D.E.F.G.H.    ",
"  I.J.K.L.M.N.w.O.P.Q.R.R.S.T.U.V.W.    ",
"  I.X.Y.Z.`. +.+++@+#+$+%+&+*+=+-+;+    ",
"  >+,+'+)+!+~+{+]+^+/+(+_+:+<+[+}+|+    ",
"  1+2+3+4+5+6+7+8+=.9+0+a+b+c+d+e+      ",
"    f+g+h+i+j+k+l+m+n+o+p+q+r+s+        ",
"    t+u+v+w+t+x+y+z+A+t+B+C+            ",
"                                        ",
"                                        ",
"                                        "};
