/* XPM */
static char * boy_squish_xpm[] = {
"40 40 534 2",
"  	c None",
". 	c #A7A344",
"+ 	c #C4BD42",
"@ 	c #D4CF49",
"# 	c #CDCD59",
"$ 	c #C9CB5F",
"% 	c #CCCE5E",
"& 	c #DDDA5C",
"* 	c #E1DE5C",
"= 	c #D1D15E",
"- 	c #CFCD55",
"; 	c #D7D045",
"> 	c #D8D041",
", 	c #D8D042",
"' 	c #D8D142",
") 	c #D6CF42",
"! 	c #B1AC32",
"~ 	c #696C11",
"{ 	c #B4B32E",
"] 	c #D5D02D",
"^ 	c #EAE433",
"/ 	c #E8E43E",
"( 	c #E6E342",
"_ 	c #E7E442",
": 	c #EEE940",
"< 	c #F0EB40",
"[ 	c #E9E641",
"} 	c #E8E43B",
"| 	c #ECE530",
"1 	c #ECE52E",
"2 	c #EBE52E",
"3 	c #E9E52E",
"4 	c #EAE52E",
"5 	c #E9E62E",
"6 	c #E8E42E",
"7 	c #BEBC23",
"8 	c #6D710A",
"9 	c #BDC617",
"0 	c #C6CC11",
"a 	c #E4E410",
"b 	c #F9F411",
"c 	c #FBF512",
"d 	c #FBF511",
"e 	c #FBF510",
"f 	c #FBF50F",
"g 	c #FBF50E",
"h 	c #FBF50D",
"i 	c #FAF50F",
"j 	c #F8F50E",
"k 	c #F9F50D",
"l 	c #FAF50D",
"m 	c #F8F50F",
"n 	c #F7F511",
"o 	c #F5F411",
"p 	c #C9C90C",
"q 	c #747704",
"r 	c #BCBD45",
"s 	c #C6C345",
"t 	c #D1CF44",
"u 	c #CCE83F",
"v 	c #C5ED36",
"w 	c #C2D52A",
"x 	c #CAD720",
"y 	c #D8E81A",
"z 	c #EBF114",
"A 	c #FBF513",
"B 	c #FAF513",
"C 	c #F8F511",
"D 	c #F8F60F",
"E 	c #F8F40F",
"F 	c #CECB0A",
"G 	c #7C7E04",
"H 	c #BEC23B",
"I 	c #CECD39",
"J 	c #E1DD37",
"K 	c #DFED32",
"L 	c #D9F02C",
"M 	c #D8E222",
"N 	c #DFE61C",
"O 	c #EAF319",
"P 	c #F3F616",
"Q 	c #F8F513",
"R 	c #FAF413",
"S 	c #FAF412",
"T 	c #FAF315",
"U 	c #F9F322",
"V 	c #F8F337",
"W 	c #F7F14D",
"X 	c #F7F055",
"Y 	c #F8F151",
"Z 	c #FAF439",
"` 	c #FBF718",
" .	c #FAF613",
"..	c #FAF512",
"+.	c #FAF516",
"@.	c #F9F422",
"#.	c #F6F237",
"$.	c #F1EF4E",
"%.	c #EEEE56",
"&.	c #EFEE52",
"*.	c #F3F23A",
"=.	c #F8F61A",
"-.	c #FAF716",
";.	c #D1CD11",
">.	c #807F05",
",.	c #C3CA28",
"'.	c #DADB23",
").	c #F4EF1A",
"!.	c #F6F417",
"~.	c #F2F416",
"{.	c #F2F213",
"].	c #F5F312",
"^.	c #F9F615",
"/.	c #F9F517",
"(.	c #F9F316",
"_.	c #F9F215",
":.	c #F8F11C",
"<.	c #F2ED2E",
"[.	c #EFEA4C",
"}.	c #F2EA6E",
"|.	c #F3EA7B",
"1.	c #F4EC74",
"2.	c #F9F450",
"3.	c #FBF921",
"4.	c #FAF717",
"5.	c #F9F616",
"6.	c #F8F51C",
"7.	c #F4F12E",
"8.	c #EDEC4D",
"9.	c #E2E76F",
"0.	c #DDE47C",
"a.	c #E0E675",
"b.	c #EBED51",
"c.	c #F6F522",
"d.	c #FBF91D",
"e.	c #D2D016",
"f.	c #807E06",
"g.	c #D4D419",
"h.	c #E4E212",
"i.	c #F8F306",
"j.	c #F9F405",
"k.	c #F6F307",
"l.	c #F8F409",
"m.	c #F9F416",
"n.	c #F7F214",
"o.	c #F9F417",
"p.	c #F7F31E",
"q.	c #E2DE25",
"r.	c #D5CF3B",
"s.	c #E4DD68",
"t.	c #FAF744",
"u.	c #FBF920",
"v.	c #FAF619",
"w.	c #F9F617",
"x.	c #F7F41B",
"y.	c #EDEB29",
"z.	c #E3E340",
"A.	c #DDE26A",
"B.	c #E4E343",
"C.	c #EEEB1E",
"D.	c #F9F71E",
"E.	c #D3D118",
"F.	c #808007",
"G.	c #D9D635",
"H.	c #E7E336",
"I.	c #F8F338",
"J.	c #F9F535",
"K.	c #F7F334",
"L.	c #F6F337",
"M.	c #F7F331",
"N.	c #F9F423",
"O.	c #F9F31A",
"P.	c #F8F316",
"Q.	c #F6F215",
"R.	c #F8F51B",
"S.	c #F5F220",
"T.	c #D2CE18",
"U.	c #B3AC10",
"V.	c #FCFA22",
"W.	c #FBF91F",
"X.	c #F9F518",
"Y.	c #F9F515",
"Z.	c #F7F317",
"`.	c #E7E51D",
" +	c #DBDA21",
".+	c #DCD716",
"++	c #E6E217",
"@+	c #F7F41E",
"#+	c #D2D118",
"$+	c #7D7F07",
"%+	c #CACB58",
"&+	c #DDDC5D",
"*+	c #F4F262",
"=+	c #F9F55D",
"-+	c #F8F45B",
";+	c #F6F461",
">+	c #F4F256",
",+	c #F4F03C",
"'+	c #F6F126",
")+	c #F7F219",
"!+	c #F6F31C",
"~+	c #F0EE24",
"{+	c #C9C519",
"]+	c #A49D09",
"^+	c #FCFA21",
"/+	c #FBF81E",
"(+	c #F7F416",
"_+	c #F8F311",
":+	c #F7F311",
"<+	c #E6E311",
"[+	c #D8D611",
"}+	c #D7D409",
"|+	c #E3E012",
"1+	c #F6F41C",
"2+	c #D1D018",
"3+	c #767906",
"4+	c #A6A84E",
"5+	c #B7B752",
"6+	c #CBCA57",
"7+	c #D0CE52",
"8+	c #D0CD51",
"9+	c #CFCE56",
"0+	c #D8D74C",
"a+	c #E7E435",
"b+	c #F3EF25",
"c+	c #F9F41C",
"d+	c #F7F31D",
"e+	c #F6F322",
"f+	c #F0ED27",
"g+	c #D9CB28",
"h+	c #C3AE2D",
"i+	c #BCB33D",
"j+	c #EFEE39",
"k+	c #F8F61F",
"l+	c #F8F315",
"m+	c #F8F30E",
"n+	c #F6F30A",
"o+	c #E7EA08",
"p+	c #D5DC23",
"q+	c #B7BC4F",
"r+	c #DAD927",
"s+	c #EAE81B",
"t+	c #F7F51F",
"u+	c #D0CF18",
"v+	c #787906",
"w+	c #74731D",
"x+	c #7B7B1F",
"y+	c #848421",
"z+	c #87861F",
"A+	c #85851E",
"B+	c #878721",
"C+	c #AEAB1D",
"D+	c #D6D217",
"E+	c #EFEC1B",
"F+	c #FAF71D",
"G+	c #F6F21E",
"H+	c #F4EF27",
"I+	c #F1DC34",
"J+	c #E6CA3C",
"K+	c #CEC541",
"L+	c #C4C651",
"M+	c #CED059",
"N+	c #E7E742",
"O+	c #F6F420",
"P+	c #F9F319",
"Q+	c #F9F41B",
"R+	c #F5F521",
"S+	c #EBF424",
"T+	c #D7E639",
"U+	c #B9BF56",
"V+	c #B2B256",
"W+	c #C6C643",
"X+	c #E2E031",
"Y+	c #F4F224",
"Z+	c #F9F720",
"`+	c #CFCE17",
" @	c #7D7C06",
".@	c #ACA20E",
"+@	c #CDC21A",
"@@	c #EAE319",
"#@	c #FAF517",
"$@	c #F9F317",
"%@	c #F8F21A",
"&@	c #F7F220",
"*@	c #FAEE2A",
"=@	c #F7EA31",
"-@	c #EBE733",
";@	c #E7E73C",
">@	c #EAEA42",
",@	c #F2EF31",
"'@	c #F7F321",
")@	c #F8F439",
"!@	c #F9F74D",
"~@	c #F6F851",
"{@	c #EDF14E",
"]@	c #DFE046",
"^@	c #DDDB3C",
"/@	c #E5E12F",
"(@	c #EFED24",
"_@	c #F7F51B",
":@	c #F7F619",
"<@	c #CBCB11",
"[@	c #777805",
"}@	c #C9B623",
"|@	c #E7DD1A",
"1@	c #F9F314",
"2@	c #F8F216",
"3@	c #F9F418",
"4@	c #FCF81C",
"5@	c #FDFA1E",
"6@	c #FCFA1E",
"7@	c #FCF91E",
"8@	c #FBF61A",
"9@	c #F8F319",
"0@	c #F2F121",
"a@	c #EDEC3E",
"b@	c #EAE554",
"c@	c #E9E459",
"d@	c #EDE84F",
"e@	c #F5F12F",
"f@	c #F9F513",
"g@	c #F7F40F",
"h@	c #F7F50F",
"i@	c #F5F40F",
"j@	c #C9C90A",
"k@	c #717503",
"l@	c #61641E",
"m@	c #727427",
"n@	c #848430",
"o@	c #C9B726",
"p@	c #E8E023",
"q@	c #FCF81E",
"r@	c #F8F416",
"s@	c #FAF518",
"t@	c #FAF617",
"u@	c #F8F515",
"v@	c #F8F413",
"w@	c #F5F316",
"x@	c #E8ED16",
"y@	c #D0D523",
"z@	c #B7B52F",
"A@	c #B2AD31",
"B@	c #C7C22B",
"C@	c #EAE61A",
"D@	c #F7F510",
"E@	c #F6F311",
"F@	c #F7F414",
"G@	c #F7F418",
"H@	c #CAC912",
"I@	c #717505",
"J@	c #8B8C17",
"K@	c #A2A120",
"L@	c #B8B727",
"M@	c #ADAA20",
"N@	c #CAC149",
"O@	c #E7E052",
"P@	c #FAF650",
"Q@	c #FAF73A",
"R@	c #F8F624",
"S@	c #F8F517",
"T@	c #F7F413",
"U@	c #F5F20F",
"V@	c #F5F111",
"W@	c #F3F218",
"X@	c #D9DF0F",
"Y@	c #BEC506",
"Z@	c #9A9A00",
"`@	c #8D8700",
" #	c #B8B600",
".#	c #E3E40C",
"+#	c #F0F113",
"@#	c #F5F320",
"##	c #F8F436",
"$#	c #FAF645",
"%#	c #F9F64A",
"&#	c #CBCA3C",
"*#	c #74771C",
"=#	c #B3BB10",
"-#	c #D0D315",
";#	c #E7E518",
">#	c #BEBB0F",
",#	c #878400",
"'#	c #C3C35E",
")#	c #DBD66C",
"!#	c #EEE86B",
"~#	c #F5F34E",
"{#	c #F7F630",
"]#	c #F7F518",
"^#	c #F6F50F",
"/#	c #F6F510",
"(#	c #F5F310",
"_#	c #F6F312",
":#	c #FBF81A",
"<#	c #F2F11B",
"[#	c #CFD110",
"}#	c #B8BD08",
"|#	c #DEE910",
"1#	c #E8EE17",
"2#	c #F1F22B",
"3#	c #F4F14B",
"4#	c #F4F05E",
"5#	c #F0EE64",
"6#	c #C7C754",
"7#	c #777A2B",
"8#	c #818119",
"9#	c #86840F",
"0#	c #9EAE11",
"a#	c #BAD91C",
"b#	c #DAED19",
"c#	c #EDEE0D",
"d#	c #BFBC05",
"e#	c #999845",
"f#	c #ABA74D",
"g#	c #C0BC4C",
"h#	c #D2D237",
"i#	c #E6E521",
"j#	c #F6F30D",
"k#	c #F8F506",
"l#	c #F6F508",
"m#	c #F6F509",
"n#	c #F6F409",
"o#	c #F9F70F",
"p#	c #F1F20F",
"q#	c #D9DF06",
"r#	c #BEC501",
"s#	c #9A9C08",
"t#	c #96971A",
"u#	c #B8C21D",
"v#	c #D7E816",
"w#	c #E3F216",
"x#	c #E4EF21",
"y#	c #D5D736",
"z#	c #C4BF43",
"A#	c #B9B748",
"B#	c #A7A843",
"C#	c #A3A136",
"D#	c #AAA838",
"E#	c #B6C13A",
"F#	c #C7E63B",
"G#	c #E0F63B",
"H#	c #EDEE37",
"I#	c #BEBB24",
"J#	c #88850D",
"K#	c #6E681A",
"L#	c #7B7713",
"M#	c #918F0C",
"N#	c #A7A90F",
"O#	c #D0CF25",
"P#	c #F5F136",
"Q#	c #FAF739",
"R#	c #F7F637",
"S#	c #F8F634",
"T#	c #F7F635",
"U#	c #F7F638",
"V#	c #F7F639",
"W#	c #F3F439",
"X#	c #E8EE38",
"Y#	c #D1D738",
"Z#	c #B6B73A",
"`#	c #B6B63E",
" $	c #C7CC40",
".$	c #DDEB3E",
"+$	c #E4F540",
"@$	c #DBEC41",
"#$	c #BEC530",
"$$	c #948E11",
"%$	c #7D7B0B",
"&$	c #D5D256",
"*$	c #DEDC5E",
"=$	c #E3E460",
"-$	c #DFE65A",
";$	c #E9EE5D",
">$	c #EDED5F",
",$	c #BDBC44",
"'$	c #88861D",
")$	c #878717",
"!$	c #BDBC42",
"~$	c #F0EE60",
"{$	c #F8F664",
"]$	c #F7F561",
"^$	c #F8F55B",
"/$	c #F8F55D",
"($	c #F6F563",
"_$	c #F6F564",
":$	c #F5F463",
"<$	c #F2F363",
"[$	c #ECED63",
"}$	c #E6E563",
"|$	c #E6E564",
"1$	c #E9EA64",
"2$	c #EFF264",
"3$	c #E9EF6A",
"4$	c #DCE66F",
"5$	c #CBD464",
"6$	c #C4C14C",
"7$	c #CDCB53",
"8$	c #D0CE55",
"9$	c #C9C54E",
"0$	c #CCC951",
"a$	c #D1CF56",
"b$	c #B5B445",
"c$	c #ADAB43",
"d$	c #CECD56",
"e$	c #CFCF59",
"f$	c #CDCD56",
"g$	c #D0CD50",
"h$	c #CFCD52",
"i$	c #CDCD58",
"j$	c #CFCE58",
"k$	c #D1D058",
"l$	c #D3D158",
"m$	c #D3D258",
"n$	c #D2D158",
"o$	c #CACB60",
"p$	c #C0C468",
"q$	c #84831C",
"r$	c #8D8B1F",
"s$	c #939120",
"t$	c #928F1D",
"u$	c #97951F",
"v$	c #9D9C23",
"w$	c #929021",
"x$	c #888A21",
"y$	c #818521",
"z$	c #84851F",
"A$	c #808421",
"B$	c #838522",
"C$	c #898822",
"D$	c #918F21",
"E$	c #959221",
"F$	c #949221",
"G$	c #949222",
"H$	c #92912F",
"I$	c #8F903B",
"                                                                                ",
"                                                                                ",
"                                                                                ",
"                                                                                ",
"                                                                                ",
"                                                                                ",
"                                                                                ",
"                                                                                ",
"                                                                                ",
"                                                                                ",
"                                                                                ",
"                                                                                ",
"                                                                                ",
"                                                                                ",
"                                                                                ",
"                                                                                ",
"                                                                                ",
"                                                                                ",
"                        . + @ # $ % & * = - ; > , , , , , , , , , , ' ) ! ~     ",
"                        { ] ^ / ( _ : < [ } | 1 1 1 1 1 1 2 3 4 2 4 5 6 7 8     ",
"                      9 0 a b c c c d e f g h f e e e e e i j k l m n o p q     ",
"          r s t u v w x y z m h h h g f d A A e g g g g f e B B B C D E F G     ",
"          H I J K L M N O P Q R S T U V W X Y Z `  ...+.@.#.$.%.&.*.=.-.;.>.    ",
"          ,.'.).!.~.{.].C ^./.(._.:.<.[.}.|.1.2.3.4.5.6.7.8.9.0.a.b.c.d.e.f.    ",
"          g.h.i.j.k.k.l.h B m.n.o.p.q.r.s.    t.u.v.w.x.y.z.A.    B.C.D.E.F.    ",
"          G.H.I.J.K.L.M.N.O.P.Q.R.S.T.U.      V.W.X.Y.Z.`. +      .+++@+#+$+    ",
"          %+&+*+=+-+;+>+,+'+)+!+c.~+{+]+      ^+/+(+_+:+<+[+      }+|+1+2+3+    ",
"          4+5+6+7+8+9+0+a+b+c+d+e+f+g+h+i+    j+k+l+m+n+o+p+q+    r+s+t+u+v+    ",
"          w+x+y+z+A+B+C+D+E+F+O.G+H+I+J+K+L+M+N+O+P+Q+R+S+T+U+V+W+X+Y+Z+`+ @    ",
"                      .@+@@@#@$@%@&@*@=@-@;@>@,@d+'@)@!@~@{@]@^@/@(@_@:@<@[@    ",
"                        }@|@..1@2@3@4@5@5@6@7@8@9@0@a@b@c@d@e@f@b g@h@i@j@k@    ",
"          l@m@n@        o@p@q@r@n.o.s@t@u@v@v@Y.w@x@y@z@A@B@C@j D@E@F@G@H@I@    ",
"          J@K@L@M@      N@O@P@Q@R@S@v@T@E@U@V@t@W@X@Y@Z@`@ #.#+#@###$#%#&#*#    ",
"          =#-#;#>#,#    '#)#!#~#{#]#^#/#/#(#_#:#<#[#}#      |#1#2#3#4#5#6#7#    ",
"    8#9#0#a#b#c#d#,#    e#f#g#h#i#j#k#l#m#n#n#o#p#q#r#s#t#u#v#w#x#y#z#A#B#      ",
"    C#D#E#F#G#H#I#J#    K#L#M#N#O#P#Q#R#S#T#U#V#W#X#Y#Z#`# $.$+$@$#$$$%$        ",
"    &$*$=$-$;$>$,$'$          )$!$~${$]$^$/$($_$:$<$[$}$|$1$2$3$4$5$            ",
"    6$7$8$9$0$a$b$              c$d$e$f$g$h$i$# j$k$l$m$m$m$n$o$p$              ",
"    q$r$s$t$u$v$                  w$x$y$A+z$A$B$C$D$E$F$F$F$G$H$I$              ",
"                                                                                "};
