/* XPM */
static char * boy_left_xpm[] = {
"20 20 247 2",
"  	c None",
". 	c #D7D82F",
"+ 	c #DDED3A",
"@ 	c #D3D444",
"# 	c #828318",
"$ 	c #79791F",
"% 	c #E6E21B",
"& 	c #F8F71F",
"* 	c #ECEF2C",
"= 	c #B3BD19",
"- 	c #9B9A2A",
"; 	c #7A7917",
"> 	c #E6E316",
", 	c #F6F616",
"' 	c #F3F821",
") 	c #E9F022",
"! 	c #E8E92E",
"~ 	c #E9E54C",
"{ 	c #A2A017",
"] 	c #E3E33F",
"^ 	c #8D8D26",
"/ 	c #878610",
"( 	c #D5D22E",
"_ 	c #B8B638",
": 	c #7B7A1A",
"< 	c #E9E71D",
"[ 	c #F8F715",
"} 	c #F4F81E",
"| 	c #F3F71C",
"1 	c #F7F61B",
"2 	c #F3F042",
"3 	c #C8C729",
"4 	c #5E590F",
"5 	c #A9A614",
"6 	c #ECEB37",
"7 	c #928F25",
"8 	c #75720D",
"9 	c #E4E12D",
"0 	c #C2C23A",
"a 	c #4C4B25",
"b 	c #727121",
"c 	c #DBD91F",
"d 	c #F3F117",
"e 	c #F3F61F",
"f 	c #E7EA18",
"g 	c #E9E71E",
"h 	c #E6E346",
"i 	c #BEBC29",
"j 	c #5F5A0C",
"k 	c #AEAD1A",
"l 	c #EEED39",
"m 	c #9F9121",
"n 	c #7F790E",
"o 	c #E5E231",
"p 	c #C5C535",
"q 	c #5C5E17",
"r 	c #4C4812",
"s 	c #88840C",
"t 	c #CAC91B",
"u 	c #E8EB26",
"v 	c #B5B30A",
"w 	c #84820B",
"x 	c #838116",
"y 	c #8E8E10",
"z 	c #AEB013",
"A 	c #DAD81A",
"B 	c #F7F631",
"C 	c #D2CA21",
"D 	c #C5C017",
"E 	c #F1E92A",
"F 	c #DDDB33",
"G 	c #B5B52C",
"H 	c #818036",
"I 	c #64620E",
"J 	c #989719",
"K 	c #C2C125",
"L 	c #959317",
"M 	c #766D1C",
"N 	c #706B0B",
"O 	c #A0A113",
"P 	c #E8F01D",
"Q 	c #F8F619",
"R 	c #F9F71E",
"S 	c #F8F61C",
"T 	c #F8F61A",
"U 	c #F9F619",
"V 	c #F4F429",
"W 	c #F1F33F",
"X 	c #A4A24B",
"Y 	c #6A6A27",
"Z 	c #C0BE4D",
"` 	c #989522",
" .	c #6B690A",
"..	c #A7AB22",
"+.	c #DADA33",
"@.	c #D2D624",
"#.	c #D9E01E",
"$.	c #ECF51D",
"%.	c #F7F618",
"&.	c #F8F61E",
"*.	c #F8F71B",
"=.	c #F9F71D",
"-.	c #F5F522",
";.	c #F1F132",
">.	c #A3A049",
",.	c #7B7A26",
"'.	c #DBD95F",
").	c #A69D2D",
"!.	c #4B4810",
"~.	c #B9BF30",
"{.	c #E1E327",
"].	c #B6B716",
"^.	c #C3C718",
"/.	c #EAF227",
"(.	c #D6D81E",
"_.	c #B5B211",
":.	c #B1AD10",
"<.	c #C2BE10",
"[.	c #F1EE1C",
"}.	c #F9F523",
"|.	c #F5F235",
"1.	c #A5A24A",
"2.	c #7B7B22",
"3.	c #D5D067",
"4.	c #A19832",
"5.	c #4B4714",
"6.	c #BFBD4B",
"7.	c #CECC3A",
"8.	c #767403",
"9.	c #999820",
"0.	c #E5E13B",
"a.	c #AEA72C",
"b.	c #5D580B",
"c.	c #554F09",
"d.	c #777503",
"e.	c #D8D823",
"f.	c #F8F72E",
"g.	c #F5F329",
"h.	c #A5A248",
"i.	c #5D6221",
"j.	c #A2A758",
"k.	c #75742D",
"l.	c #BFBC4A",
"m.	c #CECA3D",
"n.	c #787604",
"o.	c #878517",
"p.	c #ECE82F",
"q.	c #D2CC1E",
"r.	c #AEAC10",
"s.	c #B1A813",
"t.	c #BEBB11",
"u.	c #EBE819",
"v.	c #F8F622",
"w.	c #F3F127",
"x.	c #A4A141",
"y.	c #BFBB49",
"z.	c #797604",
"A.	c #878506",
"B.	c #EEEF18",
"C.	c #F4F31D",
"D.	c #F8F31A",
"E.	c #F9F41C",
"F.	c #FAF61B",
"G.	c #FAF719",
"H.	c #F8F41D",
"I.	c #F3F032",
"J.	c #A3A142",
"K.	c #656320",
"L.	c #B3AE56",
"M.	c #79752C",
"N.	c #BFBB48",
"O.	c #787607",
"P.	c #808509",
"Q.	c #E9EE1A",
"R.	c #F7F41B",
"S.	c #F9F31A",
"T.	c #F9F417",
"U.	c #F9F513",
"V.	c #F7F31D",
"W.	c #F2F031",
"X.	c #79792D",
"Y.	c #DAD662",
"Z.	c #9E9433",
"`.	c #48430F",
" +	c #BEBD43",
".+	c #D2D03A",
"++	c #8B8A09",
"@+	c #9CA112",
"#+	c #F0F424",
"$+	c #ECE822",
"%+	c #DFD822",
"&+	c #E3D922",
"*+	c #EADF1E",
"=+	c #F7F117",
"-+	c #F8F421",
";+	c #F0EE2A",
">+	c #A29F48",
",+	c #79792E",
"'+	c #DAD95F",
")+	c #9A962C",
"!+	c #45440A",
"~+	c #B6BB28",
"{+	c #E5EC27",
"]+	c #DBDC18",
"^+	c #E1E924",
"/+	c #F6F333",
"(+	c #C5B71F",
"_+	c #877A15",
":+	c #867A1A",
"<+	c #9D9511",
"[+	c #E3E023",
"}+	c #F7F62F",
"|+	c #F0EE29",
"1+	c #A29F47",
"2+	c #656526",
"3+	c #B7B64F",
"4+	c #797827",
"5+	c #90901D",
"6+	c #C0C11F",
"7+	c #ECEA15",
"8+	c #F6F518",
"9+	c #F6F425",
"0+	c #CBC821",
"a+	c #9A8723",
"b+	c #938A1D",
"c+	c #A3A315",
"d+	c #E1E117",
"e+	c #F4F323",
"f+	c #EFEF2A",
"g+	c #A39F48",
"h+	c #707021",
"i+	c #E2E12F",
"j+	c #F7F523",
"k+	c #EFED24",
"l+	c #F0E42C",
"m+	c #ECE727",
"n+	c #E9EA21",
"o+	c #F0F11B",
"p+	c #F6F62B",
"q+	c #F1F239",
"r+	c #ABAB2D",
"s+	c #AAA820",
"t+	c #AAA81F",
"u+	c #ADAB1D",
"v+	c #AEAB1C",
"w+	c #ADAA23",
"x+	c #ADAB2D",
"                                        ",
"  . + @ #                               ",
"$ % & * = -                             ",
"; > , ' ) ! ~     { ] ^ / ( _           ",
": < [ } | 1 2 3 4 5 6 7 8 9 0 a         ",
"b c d e f g h i j k l m n o p q         ",
"r s t u v w x y z A B C D E F G H       ",
"  I J K L M N O P Q R S T U V W X       ",
"Y Z `  ...+.@.#.$.%.&.S *.=.-.;.>.      ",
",.'.).!.~.{.].^./.(._.:.<.[.}.|.1.      ",
"2.3.4.5.6.7.8.9.0.a.b.c.d.e.f.g.h.      ",
"i.j.k.  l.m.n.o.p.q.r.s.t.u.v.w.x.      ",
"        y.m.z.A.B.C.D.E.F.G.H.I.J.      ",
"K.L.M.  N.m.O.P.Q.R.E.S.T.U.V.W.>.      ",
"X.Y.Z.`. +.+++@+#+$+%+&+*+=+-+;+>+      ",
",+'+)+!+~+{+]+^+/+(+_+:+<+[+}+|+1+      ",
"2+3+4+  5+6+7+8+9+0+a+b+c+d+e+f+g+      ",
"          h+i+f.j+k+l+m+n+o+p+q+>.      ",
"              r+s+t+u+v+v+w+x+          ",
"                                        "};
