/* XPM */
static char * boy_stand_xpm[] = {
"40 40 754 2",
"  	c None",
". 	c #6C6F06",
"+ 	c #B6B312",
"@ 	c #DCD715",
"# 	c #D9D60E",
"$ 	c #CED018",
"% 	c #C6CC23",
"& 	c #D3D31E",
"* 	c #DEDA1C",
"= 	c #DCDB23",
"- 	c #D1D426",
"; 	c #C6CD25",
"> 	c #D8D61C",
", 	c #C8CE23",
"' 	c #CCD126",
") 	c #D9DA26",
"! 	c #DCDC26",
"~ 	c #DBDB26",
"{ 	c #C6CD26",
"] 	c #D1D425",
"^ 	c #DAD82F",
"/ 	c #D6D040",
"( 	c #C1BA47",
"_ 	c #A5A047",
": 	c #4A471A",
"< 	c #77781F",
"[ 	c #BFBD28",
"} 	c #E4E02C",
"| 	c #E3E02A",
"1 	c #DEDF2E",
"2 	c #DCDF33",
"3 	c #E1E030",
"4 	c #E5E22E",
"5 	c #E4E231",
"6 	c #E0E133",
"7 	c #DCE034",
"8 	c #E3E12F",
"9 	c #DDE033",
"0 	c #E0E335",
"a 	c #E8E834",
"b 	c #E9E935",
"c 	c #E5E433",
"d 	c #E0E132",
"e 	c #E4E23B",
"f 	c #E4DE4E",
"g 	c #CBC654",
"h 	c #A6A454",
"i 	c #7C6727",
"j 	c #6E5524",
"k 	c #675A1D",
"l 	c #757122",
"m 	c #99972D",
"n 	c #D1CE36",
"o 	c #EFEC3B",
"p 	c #F1ED3B",
"q 	c #F3F13D",
"r 	c #F6F63F",
"s 	c #F3F23D",
"t 	c #F0ED3B",
"u 	c #F0ED3C",
"v 	c #F2EF3C",
"w 	c #F6F53E",
"x 	c #F8F83F",
"y 	c #F9F93F",
"z 	c #F7F63F",
"A 	c #F2F03D",
"B 	c #F3F23E",
"C 	c #F2EF45",
"D 	c #F6F157",
"E 	c #DAD75E",
"F 	c #ACAC5F",
"G 	c #9EAE0F",
"H 	c #D4E51E",
"I 	c #CEC925",
"J 	c #C4B725",
"K 	c #C0C121",
"L 	c #C7C920",
"M 	c #D7D224",
"N 	c #EBE628",
"O 	c #F7F22B",
"P 	c #F8F32B",
"Q 	c #FAF52C",
"R 	c #FCF82D",
"S 	c #F9F52C",
"T 	c #F9F62D",
"U 	c #FBF82F",
"V 	c #F9F52D",
"W 	c #F9F42C",
"X 	c #FBF72D",
"Y 	c #FBF92E",
"Z 	c #F9F82E",
"` 	c #F8F72E",
" .	c #F7F42E",
"..	c #F9F730",
"+.	c #FCFB32",
"@.	c #F7F532",
"#.	c #FAF741",
"$.	c #E1E04C",
"%.	c #BABA52",
"&.	c #5A600C",
"*.	c #A2AE15",
"=.	c #DEEA1F",
"-.	c #EEEC25",
";.	c #F0E826",
">.	c #EFF225",
",.	c #F2F41F",
"'.	c #F8F318",
").	c #FAF413",
"!.	c #FBF510",
"~.	c #FAF510",
"{.	c #F7F410",
"].	c #F4F313",
"^.	c #F4F416",
"/.	c #F8F513",
"(.	c #F9F511",
"_.	c #F7F511",
":.	c #F7F512",
"<.	c #F7F514",
"[.	c #F8F517",
"}.	c #F7F41A",
"|.	c #F4F31C",
"1.	c #F2F316",
"2.	c #F4F515",
"3.	c #FAF820",
"4.	c #E5E434",
"5.	c #C3C343",
"6.	c #60641A",
"7.	c #ABAE1F",
"8.	c #E8EA25",
"9.	c #F4F227",
"0.	c #F4F027",
"a.	c #F4F326",
"b.	c #F6F421",
"c.	c #F9F418",
"d.	c #FBF412",
"e.	c #FBF50E",
"f.	c #F6F30E",
"g.	c #E9EE0D",
"h.	c #E3EC0D",
"i.	c #E6ED0F",
"j.	c #F2F10E",
"k.	c #FAF50E",
"l.	c #FAF50F",
"m.	c #F9F613",
"n.	c #F8F515",
"o.	c #F6F212",
"p.	c #EDE910",
"q.	c #E2E00F",
"r.	c #E1E50D",
"s.	c #EAF011",
"t.	c #F8F81D",
"u.	c #E7E533",
"v.	c #C3C442",
"w.	c #5F6317",
"x.	c #ADAC24",
"y.	c #EAE930",
"z.	c #F0F42B",
"A.	c #EEF324",
"B.	c #F4F322",
"C.	c #F7F41E",
"D.	c #F9F419",
"E.	c #FAF514",
"F.	c #FAF512",
"G.	c #FAF513",
"H.	c #FAF518",
"I.	c #ECEA18",
"J.	c #CACF0E",
"K.	c #C3CE09",
"L.	c #DAE40C",
"M.	c #E1E30C",
"N.	c #E9E60F",
"O.	c #F7F315",
"P.	c #FCF716",
"Q.	c #FBF614",
"R.	c #FCF819",
"S.	c #F3F019",
"T.	c #DCD810",
"U.	c #D2CE09",
"V.	c #D3D107",
"W.	c #C5CA07",
"X.	c #D1D60F",
"Y.	c #F2F21D",
"Z.	c #E8E733",
"`.	c #C4C442",
" +	c #5A5E0A",
".+	c #ABAA28",
"++	c #E9E83A",
"@+	c #E9F42F",
"#+	c #E7F41E",
"$+	c #F4F61B",
"%+	c #F9F619",
"&+	c #F9F518",
"*+	c #F9F416",
"=+	c #F8F521",
"-+	c #E0DE21",
";+	c #9E9E0F",
">+	c #767902",
",+	c #BFC208",
"'+	c #CFCF10",
")+	c #F2F01B",
"!+	c #FDFB1C",
"~+	c #FAF718",
"{+	c #FDFB1D",
"]+	c #ECE91B",
"^+	c #B2B00D",
"/+	c #939002",
"(+	c #8E8E02",
"_+	c #B0AF0C",
":+	c #EBE91D",
"<+	c #E7E635",
"[+	c #C1C245",
"}+	c #5C5A14",
"|+	c #B0AE2D",
"1+	c #EFF03E",
"2+	c #ECF931",
"3+	c #E8F71E",
"4+	c #F8FB1C",
"5+	c #FCF919",
"6+	c #F9F514",
"7+	c #F9F315",
"8+	c #F7F41C",
"9+	c #F7F31B",
"0+	c #F8F319",
"a+	c #F8F422",
"b+	c #DDDB22",
"c+	c #8D8D10",
"d+	c #2F3300",
"e+	c #B2B606",
"f+	c #C8CA10",
"g+	c #F1F01C",
"h+	c #F9F716",
"i+	c #FCFA1C",
"j+	c #E9E71C",
"k+	c #A6A40C",
"l+	c #747100",
"m+	c #666501",
"n+	c #A19F0B",
"o+	c #E7E51E",
"p+	c #E2E13F",
"q+	c #B4B556",
"r+	c #5E581B",
"s+	c #ABA92F",
"t+	c #DBDC3A",
"u+	c #D5E02E",
"v+	c #D0DE1F",
"w+	c #E0E21F",
"x+	c #E5E21C",
"y+	c #E5E116",
"z+	c #F0EB15",
"A+	c #F7F41D",
"B+	c #F7F31C",
"C+	c #F8F219",
"D+	c #F8F320",
"E+	c #E2DF20",
"F+	c #A5A511",
"G+	c #8D8C08",
"H+	c #CACA0B",
"I+	c #D4D510",
"J+	c #F2F11A",
"K+	c #FAFA1A",
"L+	c #F5F617",
"M+	c #F9F91B",
"N+	c #EAE81A",
"O+	c #B8B50F",
"P+	c #A5A109",
"Q+	c #9B990A",
"R+	c #B2B00F",
"S+	c #EAE81E",
"T+	c #E0DF42",
"U+	c #B0B25A",
"V+	c #828028",
"W+	c #8B8A2A",
"X+	c #858925",
"Y+	c #828820",
"Z+	c #8B8B20",
"`+	c #96941F",
" @	c #ADAB1C",
".@	c #DBD916",
"+@	c #F6F414",
"@@	c #F9F317",
"#@	c #EEE91A",
"$@	c #D5D116",
"%@	c #D0CC15",
"&@	c #DED917",
"*@	c #E6E212",
"=@	c #EDEA10",
"-@	c #F5F313",
";@	c #F5F71A",
">@	c #F1F71E",
",@	c #EFED15",
"'@	c #D9D514",
")@	c #D4CF15",
"!@	c #DBD617",
"~@	c #D2CE15",
"{@	c #DAD617",
"]@	c #F4F11F",
"^@	c #E5E438",
"/@	c #BEBF4A",
"(@	c #2F271F",
"_@	c #342B20",
":@	c #352C20",
"<@	c #373120",
"[@	c #57541C",
"}@	c #868517",
"|@	c #D0CE14",
"1@	c #F7F414",
"2@	c #FAF616",
"3@	c #F9F516",
"4@	c #F8F414",
"5@	c #F8F415",
"6@	c #F6F118",
"7@	c #EFEB1B",
"8@	c #EBE826",
"9@	c #EBE92D",
"0@	c #EFF024",
"a@	c #F4F518",
"b@	c #F6F514",
"c@	c #F6F719",
"d@	c #F4F81E",
"e@	c #F8F91B",
"f@	c #F6F519",
"g@	c #EAEC1B",
"h@	c #E7E825",
"i@	c #EAE82D",
"j@	c #E9E527",
"k@	c #EEEA1F",
"l@	c #F9F620",
"m@	c #E6E532",
"n@	c #C4C542",
"o@	c #7F7E0B",
"p@	c #CDCB13",
"q@	c #F7F519",
"r@	c #F9F719",
"s@	c #F7F616",
"t@	c #F7F513",
"u@	c #F8F516",
"v@	c #F9F61A",
"w@	c #F9F71F",
"x@	c #FAF82F",
"y@	c #F8F83B",
"z@	c #F3F830",
"A@	c #F1F720",
"B@	c #F5F61A",
"C@	c #F5F318",
"D@	c #F2F119",
"E@	c #F3F11D",
"F@	c #F1F221",
"G@	c #ECF225",
"H@	c #F0F532",
"I@	c #F5F431",
"J@	c #F5F325",
"K@	c #FAF825",
"L@	c #E4E335",
"M@	c #C1C143",
"N@	c #8D8D00",
"O@	c #7E7D0C",
"P@	c #797B17",
"Q@	c #C7CB1C",
"R@	c #F1F61F",
"S@	c #F2F81F",
"T@	c #F7F516",
"U@	c #F7F51A",
"V@	c #F8F51D",
"W@	c #FAF61D",
"X@	c #FAF625",
"Y@	c #F8F62B",
"Z@	c #F6F725",
"`@	c #F2F71D",
" #	c #ECF51C",
".#	c #DCE319",
"+#	c #C7C716",
"@#	c #BDBA19",
"##	c #C2C126",
"$#	c #D8D836",
"%#	c #ECEB37",
"&#	c #F9F62E",
"*#	c #F8F623",
"=#	c #F8F624",
"-#	c #FAF935",
";#	c #E0DE3F",
">#	c #B4B245",
",#	c #9F9B3F",
"'#	c #A9A63F",
")#	c #9A983A",
"!#	c #8B8B36",
"~#	c #73781E",
"{#	c #C3CC21",
"]#	c #EEF823",
"^#	c #F1FA22",
"/#	c #F4F71D",
"(#	c #F7F417",
"_#	c #F6F41D",
":#	c #F6F41F",
"<#	c #F8F31A",
"[#	c #F7F215",
"}#	c #F6F213",
"|#	c #F6F417",
"1#	c #F3F61C",
"2#	c #E8F31F",
"3#	c #C5D01B",
"4#	c #909212",
"5#	c #787614",
"6#	c #918D27",
"7#	c #BFB838",
"8#	c #E0DA32",
"9#	c #F9F70F",
"0#	c #F8F720",
"a#	c #F8FA38",
"b#	c #DCDD42",
"c#	c #B1AE46",
"d#	c #666238",
"e#	c #ACA657",
"f#	c #D8D16B",
"g#	c #CAC863",
"h#	c #B7B959",
"i#	c #6D711F",
"j#	c #C0C922",
"k#	c #EEF623",
"l#	c #F6F922",
"m#	c #F7F61C",
"n#	c #F6F215",
"o#	c #F5F31C",
"p#	c #F6F31F",
"q#	c #F7F21A",
"r#	c #F7F114",
"s#	c #F5F112",
"t#	c #F2F51B",
"u#	c #F0F722",
"v#	c #C4C61C",
"w#	c #71710B",
"x#	c #4D4B0A",
"y#	c #A9A320",
"z#	c #D1CD1F",
"A#	c #F8F51C",
"B#	c #FAF815",
"C#	c #F5F619",
"D#	c #F0F629",
"E#	c #DAE039",
"F#	c #BBBC43",
"G#	c #9F9E16",
"H#	c #8F8F2A",
"I#	c #BFBC4A",
"J#	c #ECE762",
"K#	c #DBD960",
"L#	c #C3C55A",
"M#	c #696D21",
"N#	c #AAB128",
"O#	c #C6CC29",
"P#	c #D2D223",
"Q#	c #E3DD1E",
"R#	c #F1E91C",
"S#	c #F5F01B",
"T#	c #F5F21A",
"U#	c #F6F116",
"V#	c #F2EF11",
"W#	c #EDEF10",
"X#	c #EEF218",
"Y#	c #EFF41D",
"Z#	c #EBEF1E",
"`#	c #C7CA15",
" $	c #8D8E01",
".$	c #8A8900",
"+$	c #ADAA00",
"@$	c #B5B100",
"#$	c #D5D20E",
"$$	c #F4F218",
"%$	c #ECEA14",
"&$	c #D8D813",
"*$	c #C6CC1E",
"=$	c #B0B72C",
"-$	c #9B9E36",
";$	c #6F7126",
">$	c #A09E24",
",$	c #BAB81F",
"'$	c #BABB18",
")$	c #D7D722",
"!$	c #F2F032",
"~$	c #DAD941",
"{$	c #C0C048",
"]$	c #6B6C31",
"^$	c #77782F",
"/$	c #8F8E24",
"($	c #C4BC22",
"_$	c #EEE123",
":$	c #F6EE1C",
"<$	c #EEF011",
"[$	c #E6ED10",
"}$	c #EEF012",
"|$	c #F1F113",
"1$	c #E7ED13",
"2$	c #D3DA17",
"3$	c #BCBE1D",
"4$	c #B6B41F",
"5$	c #BEBB1D",
"6$	c #D1CE16",
"7$	c #E6E413",
"8$	c #F0EF13",
"9$	c #D4D20E",
"0$	c #A9A711",
"a$	c #7F801C",
"b$	c #5C6220",
"c$	c #4F5520",
"d$	c #878446",
"e$	c #BFBC4C",
"f$	c #E0DD47",
"g$	c #E0DF2E",
"h$	c #ECEB1A",
"i$	c #F6F422",
"j$	c #E0DD39",
"k$	c #CCC745",
"l$	c #3C3A2B",
"m$	c #D7D123",
"n$	c #F7EF23",
"o$	c #FAF41C",
"p$	c #FAF716",
"q$	c #F9F91A",
"r$	c #F5F719",
"s$	c #F7F617",
"t$	c #F8F615",
"u$	c #EEF036",
"v$	c #E7E54C",
"w$	c #E3DF4F",
"x$	c #E5E14A",
"y$	c #EDEC3C",
"z$	c #F7F62C",
"A$	c #F6F41C",
"B$	c #CBC910",
"C$	c #98960D",
"D$	c #6C6B18",
"E$	c #96924E",
"F$	c #D5D155",
"G$	c #F9F551",
"H$	c #F7F335",
"I$	c #F8F51F",
"J$	c #F8F524",
"K$	c #E6E135",
"L$	c #D3CD3D",
"M$	c #D9D41D",
"N$	c #E6E420",
"O$	c #E6E31C",
"P$	c #E5E21A",
"Q$	c #E8E61D",
"R$	c #EAE821",
"S$	c #EAE823",
"T$	c #E6E41E",
"U$	c #E5E219",
"V$	c #E7E51F",
"W$	c #E7E43D",
"X$	c #E5E155",
"Y$	c #E5E059",
"Z$	c #E5E153",
"`$	c #E6E544",
" %	c #E9E834",
".%	c #E4E226",
"+%	c #B7B519",
"@%	c #898711",
"#%	c #969432",
"$%	c #D8D536",
"%%	c #FCF933",
"&%	c #FAF524",
"*%	c #F9F41A",
"=%	c #E8E628",
"-%	c #D1CF2A",
";%	c #AFAB1A",
">%	c #96920C",
",%	c #938F0E",
"'%	c #95910D",
")%	c #9B920C",
"!%	c #A38F0D",
"~%	c #A89A17",
"{%	c #A8A51E",
"]%	c #A3A11C",
"^%	c #9F9D1A",
"/%	c #A09E1B",
"(%	c #A5A324",
"_%	c #A8A72B",
":%	c #A3A224",
"<%	c #A09E28",
"[%	c #A09D34",
"}%	c #A09D36",
"|%	c #A09D33",
"1%	c #A09E2B",
"2%	c #A5A42A",
"3%	c #A4A42C",
"4%	c #848424",
"5%	c #63631C",
"6%	c #959525",
"7%	c #D8D621",
"8%	c #F8F315",
"9%	c #F7F419",
"0%	c #EEED1F",
"a%	c #E0DF2F",
"b%	c #CECC43",
"c%	c #C7C446",
"d%	c #C7C343",
"e%	c #C7C447",
"f%	c #C7C244",
"g%	c #C7BC33",
"h%	c #B7AC26",
"i%	c #8B8721",
"j%	c #706F1C",
"k%	c #6B691A",
"l%	c #6B691B",
"m%	c #737226",
"n%	c #7B7B2F",
"o%	c #747326",
"p%	c #6B681A",
"q%	c #6B6918",
"r%	c #6B6915",
"s%	c #6B6914",
"t%	c #747325",
"u%	c #79792F",
"v%	c #636429",
"w%	c #95952F",
"x%	c #D8D627",
"y%	c #FCF91D",
"z%	c #F7F313",
"A%	c #F8F519",
"B%	c #F5F321",
"C%	c #F0EF3E",
"D%	c #EDEB5F",
"E%	c #EDEA64",
"F%	c #F0EB5E",
"G%	c #F1EE63",
"H%	c #EFEE5F",
"I%	c #ECE947",
"J%	c #E3E036",
"K%	c #949430",
"L%	c #D8D628",
"M%	c #FCFA1D",
"N%	c #F6F30F",
"O%	c #F7F518",
"P%	c #F6F32C",
"Q%	c #EBE842",
"R%	c #D4D155",
"S%	c #D1CA54",
"T%	c #DFD44A",
"U%	c #EEE74A",
"V%	c #F4F346",
"W%	c #EAEE34",
"X%	c #D0D522",
"Y%	c #929105",
"Z%	c #6D6A00",
"`%	c #6A6B00",
" &	c #6A6A00",
".&	c #676700",
"+&	c #535300",
"@&	c #9C982E",
"#&	c #DAD727",
"$&	c #FBFA1E",
"%&	c #F6F513",
"&&	c #EFEE2F",
"*&	c #DDDC3D",
"=&	c #B7B344",
"-&	c #A79B3A",
";&	c #BAAB25",
">&	c #E0D719",
",&	c #F3F112",
"'&	c #E9EE0F",
")&	c #D0D515",
"!&	c #AFAE20",
"~&	c #A1A02F",
"{&	c #9E9D35",
"]&	c #9F9D32",
"^&	c #9E9D32",
"/&	c #9E9D36",
"(&	c #9D9D37",
"_&	c #9F9D31",
":&	c #9F9E33",
"<&	c #9A9935",
"[&	c #7E7E32",
"}&	c #64652F",
"|&	c #AB9D28",
"1&	c #DDD725",
"2&	c #F8F821",
"3&	c #F2F821",
"4&	c #F5F91F",
"5&	c #E1E328",
"6&	c #CACF2F",
"7&	c #7E7524",
"8&	c #928A0F",
"9&	c #D3CD0D",
"0&	c #F7F30D",
"a&	c #F6F310",
"b&	c #EFEE26",
"c&	c #E8E83E",
"d&	c #E4E356",
"e&	c #E2E160",
"f&	c #E4E05A",
"g&	c #E3E15C",
"h&	c #E2E162",
"i&	c #E1E163",
"j&	c #E1E063",
"k&	c #E2E061",
"l&	c #E4E15A",
"m&	c #E5E25C",
"n&	c #DCDB61",
"o&	c #B6B65C",
"p&	c #929457",
"q&	c #9D912D",
"r&	c #CEC730",
"s&	c #E8E633",
"t&	c #DFE434",
"u&	c #E4E734",
"v&	c #E8E634",
"w&	c #C9CA3A",
"x&	c #ACB13E",
"y&	c #757213",
"z&	c #C2BD24",
"A&	c #E9E32E",
"B&	c #E7E22E",
"C&	c #E5E338",
"D&	c #E6E646",
"E&	c #E5E754",
"F&	c #E5E759",
"G&	c #E6E754",
"H&	c #E6E755",
"I&	c #E4E75B",
"J&	c #E4E75C",
"K&	c #E4E65C",
"L&	c #E3E460",
"M&	c #E4E45F",
"N&	c #E6E656",
"O&	c #E7E855",
"P&	c #DFE15A",
"Q&	c #B6B858",
"R&	c #8E9055",
"S&	c #7D7B35",
"T&	c #B7B13D",
"U&	c #D2CD42",
"V&	c #C7C743",
"W&	c #CCCA42",
"X&	c #D2CB44",
"Y&	c #B0AB4C",
"Z&	c #8F8C52",
"`&	c #6E681F",
" *	c #B3AB35",
".*	c #D3CD42",
"+*	c #C8C742",
"@*	c #C2C344",
"#*	c #C3C543",
"$*	c #C5CA3A",
"%*	c #C6CE31",
"&*	c #C6CE2F",
"**	c #C6CE30",
"=*	c #C6CE32",
"-*	c #C6CD34",
";*	c #C4C742",
">*	c #C3C645",
",*	c #C5CB36",
"'*	c #C7CF2F",
")*	c #C0C832",
"!*	c #989D37",
"~*	c #6F723A",
"                                                                                ",
"                                                                                ",
"                                                                                ",
"                                                                                ",
"                                                                                ",
"                                                                                ",
"                                                                                ",
"                                                                                ",
"                                                                                ",
"                                                                                ",
"                                                                                ",
"                                                                                ",
"                        . + @ # $ % & * = - ; & > , ' ) ! ! ~ - { ] ^ / ( _     ",
"                      : < [ } | 1 2 3 4 5 6 7 3 8 9 0 a b a c 6 7 d e f g h     ",
"                i j k l m n o p q r s t u s r q v w x y y z A B r s C D E F     ",
"            G H I J K L M N O P Q R S P P T U V W X Y Z Z `  ...+.` @.#.$.%.    ",
"          &.*.=.-.;.>.,.'.).!.!.!.!.!.~.{.].^./.!.!.(._.:.<.[.}.|.1.2.3.4.5.    ",
"          6.7.8.9.0.a.b.c.d.e.e.e.e.e.f.g.h.i.j.k.e.e.l.m.n.o.p.q.r.s.t.u.v.    ",
"          w.x.y.z.A.B.C.D.E.F.F.F.G.H.I.J.K.L.M.N.O.P.Q.R.S.T.U.V.W.X.Y.Z.`.    ",
"           +.+++@+#+$+%+&+*+*+*+*+c.=+-+;+>+  ,+'+)+!+~+{+]+^+/+  (+_+:+<+[+    ",
"          }+|+1+2+3+4+5+6+7+'.8+9+0+a+b+c+d+  e+f+g+!+h+i+j+k+l+  m+n+o+p+q+    ",
"          r+s+t+u+v+w+x+y+z+'.A+B+C+D+E+F+G+  H+I+J+K+L+M+N+O+P+  Q+R+S+T+U+    ",
"            V+W+X+Y+Z+`+ @.@+@&+c.@@0+#@$@%@&@*@=@-@;@>@;@,@'@)@!@~@{@]@^@/@    ",
"              (@_@:@<@[@}@|@1@2@3@4@5@6@7@8@9@0@a@b@c@d@e@f@g@h@i@j@k@l@m@n@    ",
"                        o@p@q@r@s@t@u@v@w@x@y@z@A@B@C@D@E@F@G@H@y@I@J@K@L@M@    ",
"              N@O@      P@Q@R@S@$+T@U@V@W@X@Y@Z@`@ #.#+#@###$#%#&#*#=#-#;#>#    ",
"            ,#'#)#!#    ~#{#]#^#/#(#_#:#<#[#}#|#1#2#3#4#5#6#7#8#<#9#0#a#b#c#    ",
"          d#e#f#g#h#    i#j#k#l#m#n#o#p#q#r#s#t#u#A.v#w#x#  y#z#A#B#C#D#E#F#    ",
"        G#H#I#J#K#L#    M#N#O#P#Q#R#S#T#U#V#W#X#Y#Z#`# $.$+$@$#$$$%$&$*$=$-$    ",
"    ;$>$,$'$)$!$~${$      ]$^$/$($_$:$}#o.<$[$}$|$1$2$3$4$5$6$7$8$9$0$a$b$c$    ",
"    d$e$f$g$h$i$j$k$        l$  m$n$o$p$5+q$r$s$t$;@u$v$w$x$y$z$A$B$C$D$        ",
"    E$F$G$H$I$J$K$L$            M$N$O$P$Q$R$S$T$U$V$W$X$Y$Z$`$ %.%+%@%          ",
"    #%$%%%&%*%8+=%-%;%>%,%'%)%!%~%{%]%^%/%(%_%:%^%/%<%[%}%|%1%2%3%4%5%          ",
"    6%7%i+*+8%9%0%a%b%c%d%e%f%g%h%i%j%k%l%m%n%o%l%p%q%r%s%r%q%t%u%v%            ",
"    w%x%y%5@z%A%B%C%D%E%F%G%H%I%J%                                              ",
"    K%L%M%4@N%O%P%Q%R%S%T%U%V%W%X%Y%Z%`% & & & & & & & & & & &`%.&+&            ",
"    @&#&$&s$%&q@&&*&=&-&;&>&,&'&)&!&~&{&]&^&/&(&(&(&(&(&(&{&_&:&<&[&}&          ",
"    |&1&2&3&4&0#5&6&  7&8&9&0&a&b&c&d&e&f&g&h&i&i&i&i&i&j&k&l&m&n&o&p&          ",
"    q&r&s&t&u&v&w&x&    y&z&A&B&C&D&E&F&G&H&I&J&I&I&I&K&L&M&N&O&P&Q&R&          ",
"    S&T&U&V&W&X&Y&Z&    `& *.*+*@*#*$*%*&***%*=*=*=*%*-*;*>*,*'*)*!*~*          "};
