/* XPM */
static char * closed_off_xpm[] = {
"20 20 139 2",
"  	c #741EC6",
". 	c #781CC9",
"+ 	c #6D23BF",
"@ 	c #6C18D6",
"# 	c #6D1DC9",
"$ 	c #721FC4",
"% 	c #7021C2",
"& 	c #761CC8",
"* 	c #6F21C1",
"= 	c #2F0756",
"- 	c #2A074E",
"; 	c #20043E",
"> 	c #21043E",
", 	c #260648",
"' 	c #6D1AD2",
") 	c #521490",
"! 	c #350A5F",
"~ 	c #6E22C0",
"{ 	c #33095C",
"] 	c #2D0753",
"^ 	c #2B0751",
"/ 	c #2B0750",
"( 	c #6E23C0",
"_ 	c #240444",
": 	c #440F78",
"< 	c #29064D",
"[ 	c #240544",
"} 	c #300857",
"| 	c #2A064F",
"1 	c #2B064F",
"2 	c #2A064E",
"3 	c #2D0752",
"4 	c #491081",
"5 	c #2D0754",
"6 	c #6C19D5",
"7 	c #2F0857",
"8 	c #50138D",
"9 	c #2F0856",
"0 	c #2E0755",
"a 	c #4B1184",
"b 	c #390B67",
"c 	c #6D19D4",
"d 	c #6F22C1",
"e 	c #27064A",
"f 	c #1F043C",
"g 	c #1F043B",
"h 	c #260547",
"i 	c #4D1288",
"j 	c #250545",
"k 	c #47107E",
"l 	c #300858",
"m 	c #1C0337",
"n 	c #1A0333",
"o 	c #28064B",
"p 	c #2E0754",
"q 	c #50138C",
"r 	c #4A1183",
"s 	c #360A62",
"t 	c #350A60",
"u 	c #310859",
"v 	c #34095F",
"w 	c #3C0C6C",
"x 	c #32085A",
"y 	c #1E043B",
"z 	c #1A0334",
"A 	c #230542",
"B 	c #4C1286",
"C 	c #21043F",
"D 	c #460F7C",
"E 	c #1C0336",
"F 	c #190332",
"G 	c #240545",
"H 	c #2B074F",
"I 	c #50148D",
"J 	c #33095E",
"K 	c #220441",
"L 	c #180331",
"M 	c #0F0121",
"N 	c #190331",
"O 	c #20043D",
"P 	c #481080",
"Q 	c #51148E",
"R 	c #230443",
"S 	c #1D0339",
"T 	c #1E033A",
"U 	c #20033D",
"V 	c #460F7B",
"W 	c #220442",
"X 	c #210540",
"Y 	c #180231",
"Z 	c #48107E",
"` 	c #31085A",
" .	c #210440",
"..	c #1B0335",
"+.	c #0D011F",
"@.	c #04000C",
"#.	c #03000B",
"$.	c #03000A",
"%.	c #0E0120",
"&.	c #190232",
"*.	c #450F7A",
"=.	c #180230",
"-.	c #16022D",
";.	c #1D043A",
">.	c #1E043A",
",.	c #250647",
"'.	c #4F138A",
").	c #2A074F",
"!.	c #220440",
"~.	c #270649",
"{.	c #4E1389",
"].	c #29064C",
"^.	c #48107F",
"/.	c #0E0121",
"(.	c #491182",
"_.	c #15022B",
":.	c #060011",
"<.	c #430E76",
"[.	c #120127",
"}.	c #100123",
"|.	c #190333",
"1.	c #28064A",
"2.	c #7014DD",
"3.	c #4E1289",
"4.	c #34095E",
"5.	c #33095D",
"6.	c #3C0C6B",
"7.	c #7613DD",
"8.	c #491181",
"9.	c #7513DD",
"0.	c #701FC8",
"a.	c #6D1DCB",
"b.	c #6D1CCD",
"c.	c #6C1CCD",
"d.	c #6C1CCB",
"e.	c #6B1BD0",
"f.	c #6C1DCB",
"g.	c #6A19D3",
"h.	c #6D1AD1",
"  . + @ + + @ + + + # + # # @ + $ # $ % ",
"& * = - - - - - - = + + + + ; > + , * ' ",
"$ , ) ! ~ { { { { ~ ] ^ / / ( ~ _ : < @ ",
"+ [ } * ~ | | | ~ 1 2 2 ~ 2 2 3 4 5 + 6 ",
"+ 3 ~ 7 8 9 2 2 2 2 2 2 2 2 0 a b ] < c ",
"d e f g h i h g g g g g g j k l m n + @ ",
"( o o o o p q p o o o o 3 r s < o ] t ( ",
"~ ~ ~ u u u t ) t u u v i w x u u 3 2 ~ ",
"+ + y z z z z A B A C D p E n n n F F + ",
"+ + ; [ G G G G H I a J K ; ; F F L M + ",
"+ F N F F F F F O P Q R S T T [ [ [ ~ ~ ",
"+ S F F F F N U V ] W B X Y Y Y Y Y + + ",
"+ ; [ [ [ [ h Z `  .F  .B ..+.@.#.$.$.+ ",
"+ %.%.%.%.&.*.^ =.-.;.>.,.'.).e e [ ( ( ",
"( [ ; ; h Z ` !.; ; ; ; ; ~.{.~.; [ [ ( ",
"+ + [ ].^.` !.O F N N Y /.%.z (._.@.$.+ ",
":.:.+ <.< [.}.}.|.n n z C C C H {.1.+ + ",
"2.~ 3.d 4.5.5.5.5.5.5.5.5.5.5.5.b % 6.' ",
"7.8.4.h ( j ( j ( ( ( j j j j ( j ( '.9.",
"$ 0.# a.b.+ @ c.+ d.+ + + + + e.f.c.g.h."};
