/* XPM */
static char * collectible_xpm[] = {
"20 20 135 2",
"  	c #000000",
". 	c #010100",
"+ 	c #020200",
"@ 	c #040400",
"# 	c #0E0E00",
"$ 	c #050500",
"% 	c #060600",
"& 	c #1A1A00",
"* 	c #161600",
"= 	c #222200",
"- 	c #272700",
"; 	c #030205",
"> 	c #2F243A",
", 	c #373517",
"' 	c #5F5F01",
") 	c #434300",
"! 	c #4E4E00",
"~ 	c #4B4B00",
"{ 	c #46460A",
"] 	c #31292C",
"^ 	c #0B0808",
"/ 	c #272223",
"( 	c #4E3C5F",
"_ 	c #514356",
": 	c #4A490E",
"< 	c #1E1B09",
"[ 	c #33320A",
"} 	c #231F14",
"| 	c #645B4D",
"1 	c #56485B",
"2 	c #51415E",
"3 	c #130920",
"4 	c #030300",
"5 	c #252500",
"6 	c #191906",
"7 	c #302A28",
"8 	c #50395D",
"9 	c #401043",
"0 	c #4A0552",
"a 	c #50065B",
"b 	c #480453",
"c 	c #462953",
"d 	c #584C56",
"e 	c #2F2A26",
"f 	c #2B2A05",
"g 	c #010001",
"h 	c #353500",
"i 	c #1D1D00",
"j 	c #3A3905",
"k 	c #472442",
"l 	c #653011",
"m 	c #8F7000",
"n 	c #998000",
"o 	c #896700",
"p 	c #4D0856",
"q 	c #423D1C",
"r 	c #3E3E03",
"s 	c #444400",
"t 	c #141400",
"u 	c #010000",
"v 	c #090900",
"w 	c #474607",
"x 	c #480F4C",
"y 	c #917200",
"z 	c #AFAF00",
"A 	c #B9B900",
"B 	c #A59000",
"C 	c #5C0767",
"D 	c #3C341D",
"E 	c #535201",
"F 	c #494900",
"G 	c #121200",
"H 	c #020101",
"I 	c #131300",
"J 	c #2E2E00",
"K 	c #515006",
"L 	c #4F1053",
"M 	c #9E8700",
"N 	c #BDBD00",
"O 	c #C8C800",
"P 	c #B2B200",
"Q 	c #581832",
"R 	c #2A1D21",
"S 	c #585701",
"T 	c #373700",
"U 	c #151500",
"V 	c #181800",
"W 	c #474705",
"X 	c #490F4D",
"Y 	c #ABA000",
"Z 	c #B4B400",
"` 	c #A08A00",
" .	c #590A60",
"..	c #433D1F",
"+.	c #565602",
"@.	c #3A3A00",
"#.	c #0F0F00",
"$.	c #010101",
"%.	c #1E1E00",
"&.	c #151503",
"*.	c #2F2D0E",
"=.	c #300D35",
"-.	c #4D0C53",
";.	c #5B1248",
">.	c #5B2719",
",.	c #5A0662",
"'.	c #3E1545",
").	c #514748",
"!.	c #393527",
"~.	c #131301",
"{.	c #080009",
"].	c #1A1618",
"^.	c #43354F",
"/.	c #56465D",
"(.	c #3E3723",
"_.	c #2C1728",
":.	c #321F2A",
"<.	c #382D25",
"[.	c #443E35",
"}.	c #56495A",
"|.	c #312D24",
"1.	c #040402",
"2.	c #251F24",
"3.	c #353312",
"4.	c #414005",
"5.	c #272508",
"6.	c #373709",
"7.	c #131108",
"8.	c #1A1123",
"9.	c #080609",
"0.	c #292900",
"a.	c #2C2C00",
"b.	c #323200",
"c.	c #2B2B00",
"d.	c #070700",
"                                        ",
"                                        ",
"                  . +                   ",
"                . @ # $ .               ",
"              % & * = - # ;             ",
"            > , ' ) ! ~ { ]             ",
"        ^ / ( _ : < [ } | 1 2 3         ",
"      4 5 6 7 8 9 0 a b c d e f + g     ",
"      4 h i j k l m n o p q r s t u     ",
"      v i i w x y z A B C D E F G H     ",
"        I J K L M N O P Q R S T U .     ",
"        V = W X m Y Z `  ...+.@.#.$.    ",
"        %.&.*.=.-.;.>.,.'.).!.~.. g     ",
"{.        ].^./.(._.:.<.[.}.|.1..       ",
"            2.3.4.5.6.W 7.8.            ",
"            9.v i 0.a.b.c.              ",
"                . $ d.$ $               ",
"                                        ",
"                                        ",
"                                        "};
