/* XPM */
static char * enemy_3_xpm[] = {
"20 20 305 2",
"  	c #000000",
". 	c #032C20",
"+ 	c #085843",
"@ 	c #085C46",
"# 	c #021610",
"$ 	c #053E30",
"% 	c #09634C",
"& 	c #054333",
"* 	c #010D08",
"= 	c #010202",
"- 	c #062019",
"; 	c #093226",
"> 	c #071913",
", 	c #010303",
"' 	c #060F0F",
") 	c #157E63",
"! 	c #24DFB0",
"~ 	c #25E9B8",
"{ 	c #125746",
"] 	c #1CA685",
"^ 	c #26F6C4",
"/ 	c #1CAF8C",
"( 	c #043227",
"_ 	c #051B16",
": 	c #073228",
"< 	c #021511",
"[ 	c #073027",
"} 	c #1B9576",
"| 	c #22C29C",
"1 	c #19745D",
"2 	c #052C23",
"3 	c #1A8A72",
"4 	c #23D0AA",
"5 	c #28F4C6",
"6 	c #29FBCB",
"7 	c #22C7A3",
"8 	c #24DCB4",
"9 	c #28FDCE",
"0 	c #1FB795",
"a 	c #06392E",
"b 	c #167562",
"c 	c #1EB797",
"d 	c #0E634F",
"e 	c #0B4035",
"f 	c #23C6A2",
"g 	c #2BFDD1",
"h 	c #1D997E",
"i 	c #06382E",
"j 	c #20B897",
"k 	c #29FFD0",
"l 	c #29FDD0",
"m 	c #2AFDD2",
"n 	c #29FDD2",
"o 	c #2AFDD1",
"p 	c #28FDCF",
"q 	c #1FB797",
"r 	c #05382E",
"s 	c #1A977F",
"t 	c #27EFC8",
"u 	c #148C6E",
"v 	c #092B25",
"w 	c #1D8973",
"x 	c #20AE90",
"y 	c #22B592",
"z 	c #20BF9D",
"A 	c #20B698",
"B 	c #1FAD90",
"C 	c #1EAA8D",
"D 	c #1EAD91",
"E 	c #1EAD8F",
"F 	c #1FAF90",
"G 	c #1EB090",
"H 	c #1FB796",
"I 	c #1FBF9B",
"J 	c #20B795",
"K 	c #1DA587",
"L 	c #0E5E4B",
"M 	c #011F18",
"N 	c #0B5A49",
"O 	c #0B5E4C",
"P 	c #0B5F4D",
"Q 	c #24C6A1",
"R 	c #27EAC2",
"S 	c #1DB393",
"T 	c #010203",
"U 	c #021E17",
"V 	c #021F18",
"W 	c #022018",
"X 	c #010706",
"Y 	c #1DAF8C",
"Z 	c #26E9BB",
"` 	c #20C09A",
" .	c #0A5A46",
"..	c #042B22",
"+.	c #0A5C4A",
"@.	c #2AE5BD",
"#.	c #29E8C1",
"$.	c #29E9C1",
"%.	c #21A387",
"&.	c #156D5B",
"*.	c #0E4E40",
"=.	c #0E4A3A",
"-.	c #146652",
";.	c #1FA083",
">.	c #26DCB3",
",.	c #13745E",
"'.	c #0A5A49",
").	c #2AE6BE",
"!.	c #2CF7CE",
"~.	c #2CFCD1",
"{.	c #21977F",
"].	c #010D0A",
"^.	c #072F24",
"/.	c #115F4D",
"(.	c #12695A",
"_.	c #126758",
":.	c #0F6758",
"<.	c #03342A",
"[.	c #010E0A",
"}.	c #1E967D",
"|.	c #28EFC8",
"1.	c #1B9B7E",
"2.	c #186251",
"3.	c #05251E",
"4.	c #032A21",
"5.	c #17816B",
"6.	c #27D2AF",
"7.	c #2EFCD2",
"8.	c #209980",
"9.	c #021712",
"0.	c #147059",
"a.	c #26D3B0",
"b.	c #28E5C3",
"c.	c #28E3C1",
"d.	c #22C8A7",
"e.	c #0A5E4D",
"f.	c #021812",
"g.	c #1E997F",
"h.	c #2BF9CF",
"i.	c #29E8C3",
"j.	c #2DE0BB",
"k.	c #0D5B4A",
"l.	c #000D08",
"m.	c #0D5143",
"n.	c #24C4A2",
"o.	c #2FFBD3",
"p.	c #209A82",
"q.	c #167A63",
"r.	c #29E6C1",
"s.	c #2BF9D6",
"t.	c #2BFAD3",
"u.	c #25DFBB",
"v.	c #0D6E5C",
"w.	c #021510",
"x.	c #1E947B",
"y.	c #2CFCD2",
"z.	c #2BF4CD",
"A.	c #2BEAC1",
"B.	c #0B5E4B",
"C.	c #0B5D48",
"D.	c #2BE8BA",
"E.	c #2CF4C9",
"F.	c #2FFCD4",
"G.	c #219D84",
"H.	c #021914",
"I.	c #167D65",
"J.	c #29E8C2",
"K.	c #2CFBD7",
"L.	c #2CFBD4",
"M.	c #26DFBB",
"N.	c #0C6A59",
"O.	c #20947C",
"P.	c #2CF1CA",
"Q.	c #21A188",
"R.	c #116454",
"S.	c #02261F",
"T.	c #0C4D3D",
"U.	c #2DC9A4",
"V.	c #2FE9C2",
"W.	c #30FBD5",
"X.	c #229983",
"Y.	c #14644E",
"Z.	c #25BF9A",
"`.	c #26CEAB",
" +	c #27D2AD",
".+	c #1FB696",
"++	c #023028",
"@+	c #20927A",
"#+	c #2BF0CA",
"$+	c #24B297",
"%+	c #1C9479",
"&+	c #05392D",
"*+	c #030606",
"=+	c #164D42",
"-+	c #28C9A8",
";+	c #31FED7",
">+	c #239780",
",+	c #0D0B0D",
"'+	c #08150F",
")+	c #112E25",
"!+	c #112F29",
"~+	c #124135",
"{+	c #0E4033",
"]+	c #000D0A",
"^+	c #21937C",
"/+	c #2EFFD6",
"(+	c #2EFFD7",
"_+	c #30F8CC",
":+	c #0D644F",
"<+	c #0D3027",
"[+	c #21977C",
"}+	c #23C09E",
"|+	c #25AD8C",
"1+	c #229F82",
"2+	c #17755F",
"3+	c #177A62",
"4+	c #20A485",
"5+	c #25AD8E",
"6+	c #27BE9F",
"7+	c #28C2A0",
"8+	c #24BB97",
"9+	c #084838",
"0+	c #030F0A",
"a+	c #093B2F",
"b+	c #094B3C",
"c+	c #27C29B",
"d+	c #2CECC3",
"e+	c #26B592",
"f+	c #19332A",
"g+	c #1A3A2F",
"h+	c #18382D",
"i+	c #1B3830",
"j+	c #1B3330",
"k+	c #27BA9A",
"l+	c #2DEEC6",
"m+	c #26BF9A",
"n+	c #0B4739",
"o+	c #0A4234",
"p+	c #063C2E",
"q+	c #01120B",
"r+	c #123C2F",
"s+	c #2CB294",
"t+	c #30E3C1",
"u+	c #2CAD93",
"v+	c #238D76",
"w+	c #29B598",
"x+	c #2DDBB5",
"y+	c #2DD8B4",
"z+	c #2CD8B3",
"A+	c #2CD9B3",
"B+	c #2DD8B5",
"C+	c #2FD9B9",
"D+	c #2CB99D",
"E+	c #268D77",
"F+	c #2AAD8F",
"G+	c #2DD0AB",
"H+	c #1B755D",
"I+	c #124435",
"J+	c #2DC2A1",
"K+	c #33F3D6",
"L+	c #289581",
"M+	c #0D3931",
"N+	c #2DB69D",
"O+	c #34FBD5",
"P+	c #33EFCF",
"Q+	c #33F1CD",
"R+	c #33F9CE",
"S+	c #32F6CC",
"T+	c #33F2CD",
"U+	c #2CB296",
"V+	c #0C392E",
"W+	c #27917C",
"X+	c #30E4C5",
"Y+	c #1C8266",
"Z+	c #0A2419",
"`+	c #1D7058",
" @	c #1F9679",
".@	c #1A5E49",
"+@	c #0D3B30",
"@@	c #30BB9F",
"#@	c #35E9C6",
"$@	c #26A085",
"%@	c #2B9D7D",
"&@	c #34F4C9",
"*@	c #2ED5AF",
"=@	c #1F9074",
"-@	c #1B6853",
";@	c #061E17",
">@	c #195C4C",
",@	c #1E8F76",
"'@	c #0F4636",
")@	c #0D3A2F",
"!@	c #31BF9F",
"~@	c #35E5BF",
"{@	c #186C5A",
"]@	c #265143",
"^@	c #36F5C9",
"/@	c #2CC6A3",
"(@	c #02120D",
"_@	c #0E4D3E",
":@	c #105E4C",
"<@	c #042921",
"[@	c #0A1E17",
"}@	c #106450",
"|@	c #0C5041",
"              . + @ # $ % & *           ",
"  = - ; > , ' ) ! ~ { ] ^ / ( _ : <     ",
"  [ } | 1 2 3 4 5 6 7 8 9 0 a b c d     ",
"  e f g h i j k l m n o p q r s t u     ",
"  v w x y z A B C D E F G H I J K L     ",
"M N O P Q R S T U V V W X Y Z `  ...    ",
"+.@.#.$.%.&.*.            =.-.;.>.,.    ",
"'.).!.~.{.].  ^./.(._.:.<.  [.}.|.1.2.3.",
"4.5.6.7.8.9.  0.a.b.c.d.e.  f.g.h.i.j.k.",
"l.m.n.o.p.f.  q.r.s.t.u.v.  w.x.y.z.A.B.",
"C.D.E.F.G.H.  I.J.K.L.M.N.  w.O.P.Q.R.S.",
"T.U.V.W.X.9.  Y.Z.`. +.+++  w.@+#+$+%+&+",
"*+=+-+;+>+,+  '+)+!+~+{+]+    ^+/+(+_+:+",
"  <+[+}+|+1+2+            3+4+5+6+7+8+9+",
"  0+a+b+c+d+e+f+g+g+h+i+j+k+l+m+n+o+p+q+",
"  r+s+t+u+v+w+x+y+z+A+B+C+D+E+F+G+H+    ",
"  I+J+K+L+M+N+O+P+Q+R+S+T+U+V+W+X+Y+    ",
"  Z+`+ @.@+@@@#@$@%@&@*@=@-@;@>@,@'@    ",
"          )@!@~@{@]@^@/@                ",
"          (@_@:@<@[@}@|@                "};
