/* XPM */
static char * enemy_2_xpm[] = {
"20 20 288 2",
"  	c #000000",
". 	c #07231B",
"+ 	c #155B47",
"@ 	c #28BBA0",
"# 	c #30D7B8",
"$ 	c #269D82",
"% 	c #0C372C",
"& 	c #209379",
"* 	c #2DB496",
"= 	c #1B715E",
"- 	c #165547",
"; 	c #2AAC95",
"> 	c #2FDBBB",
", 	c #1F917A",
"' 	c #0F5141",
") 	c #0F4135",
"! 	c #2BBF9F",
"~ 	c #34DDBB",
"{ 	c #2DB69B",
"] 	c #1B7463",
"^ 	c #25957D",
"/ 	c #28B796",
"( 	c #17866C",
"_ 	c #21A98B",
": 	c #22A388",
"< 	c #219178",
"[ 	c #1A846B",
"} 	c #1C7C65",
"| 	c #235F4E",
"1 	c #25987E",
"2 	c #32E4C2",
"3 	c #31E4C2",
"4 	c #29B498",
"5 	c #28C6A3",
"6 	c #29D0AA",
"7 	c #25B190",
"8 	c #2BE1BD",
"9 	c #2EEBC6",
"0 	c #2EE2BB",
"a 	c #2ADCB1",
"b 	c #10745B",
"c 	c #1A866D",
"d 	c #32E4BB",
"e 	c #30CBA5",
"f 	c #2EC8A8",
"g 	c #32EBC9",
"h 	c #2EDEBA",
"i 	c #25A587",
"j 	c #23A989",
"k 	c #209B7F",
"l 	c #1D7D67",
"m 	c #25AF95",
"n 	c #2EEECA",
"o 	c #2EF8CF",
"p 	c #26D3AD",
"q 	c #126C59",
"r 	c #198068",
"s 	c #2ED4AE",
"t 	c #33F3C8",
"u 	c #32F0C9",
"v 	c #2DDBB7",
"w 	c #249B81",
"x 	c #14261F",
"y 	c #0C4839",
"z 	c #0A4336",
"A 	c #060000",
"B 	c #156758",
"C 	c #24B296",
"D 	c #2DEEC8",
"E 	c #2AE2BD",
"F 	c #23C0A0",
"G 	c #23C5A3",
"H 	c #199A7E",
"I 	c #031D15",
"J 	c #186F59",
"K 	c #2CD1AE",
"L 	c #31F1C8",
"M 	c #2DDDB7",
"N 	c #239B80",
"O 	c #153027",
"P 	c #05120D",
"Q 	c #07110C",
"R 	c #093225",
"S 	c #021912",
"T 	c #010E0B",
"U 	c #136958",
"V 	c #23B094",
"W 	c #2CEEC6",
"X 	c #2CF4CB",
"Y 	c #2BF1C9",
"Z 	c #26D6B0",
"` 	c #012119",
" .	c #0A3227",
"..	c #228D75",
"+.	c #30DCBA",
"@.	c #2FDDBB",
"#.	c #142E25",
"$.	c #05130F",
"%.	c #0B1C19",
"&.	c #1A7E65",
"*.	c #1C9275",
"=.	c #10614D",
"-.	c #022018",
";.	c #010D09",
">.	c #136756",
",.	c #23AF92",
"'.	c #2AEBC3",
").	c #27E1BB",
"!.	c #17947A",
"~.	c #145848",
"{.	c #155144",
"].	c #1B7260",
"^.	c #2BB69B",
"/.	c #27A68D",
"(.	c #162523",
"_.	c #051410",
":.	c #0C2F25",
"<.	c #1B8C73",
"[.	c #26CEAB",
"}.	c #28DFBA",
"|.	c #1FB092",
"1.	c #10614E",
"2.	c #021C14",
"3.	c #000303",
"4.	c #166F5C",
"5.	c #22B293",
"6.	c #199C80",
"7.	c #147662",
"8.	c #1A836D",
"9.	c #26B096",
"0.	c #29A58D",
"a.	c #26957C",
"b.	c #2AC8A7",
"c.	c #24AD8F",
"d.	c #0C4B3C",
"e.	c #031B15",
"f.	c #167D66",
"g.	c #26CFAB",
"h.	c #2BF4CE",
"i.	c #2BF8D4",
"j.	c #28E2BE",
"k.	c #1C9F82",
"l.	c #083F31",
"m.	c #052921",
"n.	c #157763",
"o.	c #24CBA7",
"p.	c #21B795",
"q.	c #22BC9B",
"r.	c #26D8B1",
"s.	c #26B396",
"t.	c #2CCAA8",
"u.	c #26B392",
"v.	c #29D1AC",
"w.	c #1EA082",
"x.	c #094637",
"y.	c #000E0C",
"z.	c #127E68",
"A.	c #25D8B4",
"B.	c #2BF6D0",
"C.	c #2BF6D2",
"D.	c #27E1BF",
"E.	c #1B987F",
"F.	c #07362A",
"G.	c #06352B",
"H.	c #1AA185",
"I.	c #23D3AE",
"J.	c #1FB090",
"K.	c #20B091",
"L.	c #25D4AD",
"M.	c #15654F",
"N.	c #187860",
"O.	c #19846C",
"P.	c #25B091",
"Q.	c #197D67",
"R.	c #000C08",
"S.	c #064C40",
"T.	c #19A58A",
"U.	c #25DBB8",
"V.	c #27DDBC",
"W.	c #1CA68E",
"X.	c #0C5145",
"Y.	c #011711",
"Z.	c #178E75",
"`.	c #20B698",
" +	c #137E67",
".+	c #105A49",
"++	c #17745D",
"@+	c #04271E",
"#+	c #15745E",
"$+	c #26BE9E",
"%+	c #2BE2BE",
"&+	c #23AB8F",
"*+	c #136251",
"=+	c #011B15",
"-+	c #085547",
";+	c #16927A",
">+	c #18957D",
",+	c #0C5246",
"'+	c #021A15",
")+	c #011610",
"!+	c #127561",
"~+	c #20BD9C",
"{+	c #25E2B9",
"]+	c #1CA083",
"^+	c #041B14",
"/+	c #22B391",
"(+	c #2DEEC6",
"_+	c #2CF1CB",
":+	c #29E3BF",
"<+	c #22A98E",
"[+	c #136352",
"}+	c #010C09",
"|+	c #03382D",
"1+	c #053D33",
"2+	c #011914",
"3+	c #127762",
"4+	c #20BD9E",
"5+	c #28F2C7",
"6+	c #27F0C4",
"7+	c #1DAA8A",
"8+	c #1A9A7D",
"9+	c #28D5B0",
"0+	c #22AC91",
"a+	c #27CDAC",
"b+	c #2AE9C3",
"c+	c #21AD90",
"d+	c #126654",
"e+	c #010504",
"f+	c #05261D",
"g+	c #053327",
"h+	c #127862",
"i+	c #20BE9D",
"j+	c #28F1C8",
"k+	c #29FDCF",
"l+	c #27EEC0",
"m+	c #1CAC88",
"n+	c #063E31",
"o+	c #157461",
"p+	c #25CAA9",
"q+	c #2BF7CF",
"r+	c #29ECC4",
"s+	c #20AC8F",
"t+	c #146D5A",
"u+	c #14735C",
"v+	c #1A9E7E",
"w+	c #168E73",
"x+	c #20C09D",
"y+	c #28F1C7",
"z+	c #26E5BD",
"A+	c #23D7AE",
"B+	c #24E2B2",
"C+	c #149272",
"D+	c #2AE2BB",
"E+	c #2AE5C0",
"F+	c #25D9B4",
"G+	c #26DDB7",
"H+	c #20AD8D",
"I+	c #21C8A0",
"J+	c #22D2A9",
"K+	c #1FB796",
"L+	c #24E2B9",
"M+	c #28F9CC",
"N+	c #22CDA7",
"O+	c #157961",
"P+	c #0F745A",
"Q+	c #1A947A",
"R+	c #20A085",
"S+	c #178068",
"T+	c #1CA888",
"U+	c #179476",
"V+	c #1EB491",
"W+	c #1DB190",
"X+	c #127E67",
"Y+	c #1EB594",
"Z+	c #25E9BD",
"`+	c #22D9AE",
" @	c #0E6953",
".@	c #0D5F4C",
"+@	c #1FB393",
"@@	c #1DAC8F",
"#@	c #0E5B4C",
"$@	c #0F6B56",
"%@	c #1AA987",
"&@	c #149777",
"*@	c #0B5845",
"=@	c #1DB897",
"-@	c #21C8A6",
";@	c #14725F",
"              . + @ # $ %               ",
"          & * = - ; > , ' )             ",
"          ! ~ { ] ^ / ( _ : < [         ",
"      } | 1 2 3 4 5 6 7 8 9 0 a b       ",
"    c d e f g h i j k l m n o p q       ",
"    r s t u v w x y z A B C D E F G H   ",
"  I J K L M N O P Q R S T U V W X Y Z ` ",
"   ...+.@.w #.$.%.&.*.=.-.;.>.,.'.).!.  ",
"~.{.].^./.(._.:.<.[.}.|.1.2.3.4.5.6.7.8.",
"9.0.a.b.c.d.e.f.g.h.i.j.k.l.m.n.o.p.q.r.",
"s.t.u.v.w.x.y.z.A.B.C.D.E.F.G.H.I.J.K.L.",
"M.N.O.P.Q.  R.S.T.U.V.W.X.Y.  Z.`. +.+++",
"@+#+$+%+&+*+;.=+-+;+>+,+'+)+!+~+{+]+  ^+",
"  /+(+_+:+<+[+}+Y.|+1+2+)+3+4+5+6+7+    ",
"  8+9+0+a+b+c+d+e+f+g+  h+i+j+k+l+m+    ",
"    n+o+p+q+r+s+t+u+v+w+x+y+z+A+B+C+    ",
"      h+D+E+F+G+H+I+J+K+L+M+N+O+P+      ",
"        Q+R+S+T+U+V+W+X+Y+Z+`+ @        ",
"                .@+@@@#@$@%@&@          ",
"                *@=@-@;@                "};
