/* XPM */
static char * enemy_4_xpm[] = {
"20 20 283 2",
"  	c #000000",
". 	c #1A836D",
"+ 	c #26D8B1",
"@ 	c #25D4AD",
"# 	c #17745D",
"$ 	c #041B14",
"% 	c #199A7E",
"& 	c #26D6B0",
"* 	c #17947A",
"= 	c #147662",
"- 	c #22BC9B",
"; 	c #20B091",
"> 	c #105A49",
", 	c #23C5A3",
"' 	c #2BF1C9",
") 	c #27E1BB",
"! 	c #199C80",
"~ 	c #21B795",
"{ 	c #1FB090",
"] 	c #137E67",
"^ 	c #1CA083",
"/ 	c #1DAA8A",
"( 	c #1CAC88",
"_ 	c #149272",
": 	c #23C0A0",
"< 	c #2CF4CB",
"[ 	c #2AEBC3",
"} 	c #22B293",
"| 	c #24CBA7",
"1 	c #23D3AE",
"2 	c #20B698",
"3 	c #25E2B9",
"4 	c #27F0C4",
"5 	c #27EEC0",
"6 	c #24E2B2",
"7 	c #0F745A",
"8 	c #1A846B",
"9 	c #2ADCB1",
"0 	c #26D3AD",
"a 	c #2AE2BD",
"b 	c #2CEEC6",
"c 	c #23AF92",
"d 	c #166F5C",
"e 	c #157763",
"f 	c #1AA185",
"g 	c #178E75",
"h 	c #20BD9C",
"i 	c #28F2C7",
"j 	c #29FDCF",
"k 	c #23D7AE",
"l 	c #157961",
"m 	c #0E6953",
"n 	c #219178",
"o 	c #2EE2BB",
"p 	c #2EF8CF",
"q 	c #2DEEC8",
"r 	c #23B094",
"s 	c #136756",
"t 	c #000303",
"u 	c #052921",
"v 	c #06352B",
"w 	c #127561",
"x 	c #20BD9E",
"y 	c #28F1C8",
"z 	c #26E5BD",
"A 	c #22CDA7",
"B 	c #22D9AE",
"C 	c #149777",
"D 	c #0F4135",
"E 	c #22A388",
"F 	c #2EEBC6",
"G 	c #2EEECA",
"H 	c #24B296",
"I 	c #136958",
"J 	c #010D09",
"K 	c #021C14",
"L 	c #083F31",
"M 	c #07362A",
"N 	c #011711",
"O 	c #011610",
"P 	c #127762",
"Q 	c #20BE9D",
"R 	c #28F1C7",
"S 	c #28F9CC",
"T 	c #25E9BD",
"U 	c #1AA987",
"V 	c #0C372C",
"W 	c #0F5141",
"X 	c #21A98B",
"Y 	c #2BE1BD",
"Z 	c #25AF95",
"` 	c #156758",
" .	c #010E0B",
"..	c #022018",
"+.	c #10614E",
"@.	c #1C9F82",
"#.	c #1B987F",
"$.	c #0C5145",
"%.	c #021A15",
"&.	c #127862",
"*.	c #20C09D",
"=.	c #24E2B9",
"-.	c #1EB594",
";.	c #0F6B56",
">.	c #269D82",
",.	c #1F917A",
"'.	c #17866C",
").	c #25B190",
"!.	c #1D7D67",
"~.	c #060000",
"{.	c #021912",
"].	c #10614D",
"^.	c #1FB092",
"/.	c #28E2BE",
"(.	c #27E1BF",
"_.	c #1CA68E",
":.	c #0C5246",
"<.	c #011914",
"[.	c #168E73",
"}.	c #1FB796",
"|.	c #127E67",
"1.	c #0E5B4C",
"2.	c #14725F",
"3.	c #30D7B8",
"4.	c #2FDBBB",
"5.	c #28B796",
"6.	c #29D0AA",
"7.	c #209B7F",
"8.	c #0A4336",
"9.	c #093225",
"0.	c #1C9275",
"a.	c #28DFBA",
"b.	c #2BF8D4",
"c.	c #2BF6D2",
"d.	c #27DDBC",
"e.	c #18957D",
"f.	c #053D33",
"g.	c #053327",
"h.	c #1A9E7E",
"i.	c #22D2A9",
"j.	c #1DB190",
"k.	c #1DAC8F",
"l.	c #21C8A6",
"m.	c #28BBA0",
"n.	c #2AAC95",
"o.	c #25957D",
"p.	c #28C6A3",
"q.	c #23A989",
"r.	c #0C4839",
"s.	c #07110C",
"t.	c #1A7E65",
"u.	c #26CEAB",
"v.	c #2BF4CE",
"w.	c #2BF6D0",
"x.	c #25DBB8",
"y.	c #16927A",
"z.	c #03382D",
"A.	c #05261D",
"B.	c #14735C",
"C.	c #21C8A0",
"D.	c #1EB491",
"E.	c #1FB393",
"F.	c #1DB897",
"G.	c #155B47",
"H.	c #165547",
"I.	c #1B7463",
"J.	c #29B498",
"K.	c #25A587",
"L.	c #14261F",
"M.	c #05120D",
"N.	c #0B1C19",
"O.	c #1B8C73",
"P.	c #26CFAB",
"Q.	c #25D8B4",
"R.	c #19A58A",
"S.	c #085547",
"T.	c #010504",
"U.	c #146D5A",
"V.	c #20AD8D",
"W.	c #179476",
"X.	c #0D5F4C",
"Y.	c #0B5845",
"Z.	c #07231B",
"`.	c #1B715E",
" +	c #2DB69B",
".+	c #31E4C2",
"++	c #2EDEBA",
"@+	c #249B81",
"#+	c #153027",
"$+	c #05130F",
"%+	c #0C2F25",
"&+	c #167D66",
"*+	c #127E68",
"=+	c #064C40",
"-+	c #011B15",
";+	c #010C09",
">+	c #126654",
",+	c #20AC8F",
"'+	c #26DDB7",
")+	c #1CA888",
"!+	c #2DB496",
"~+	c #34DDBB",
"{+	c #32E4C2",
"]+	c #32EBC9",
"^+	c #2DDBB7",
"/+	c #239B80",
"(+	c #142E25",
"_+	c #051410",
":+	c #031B15",
"<+	c #000E0C",
"[+	c #000C08",
"}+	c #136352",
"|+	c #21AD90",
"1+	c #29ECC4",
"2+	c #25D9B4",
"3+	c #178068",
"4+	c #2BBF9F",
"5+	c #25987E",
"6+	c #2EC8A8",
"7+	c #32F0C9",
"8+	c #2DDDB7",
"9+	c #162523",
"0+	c #0C4B3C",
"a+	c #094637",
"b+	c #136251",
"c+	c #22A98E",
"d+	c #2AE9C3",
"e+	c #2BF7CF",
"f+	c #2AE5C0",
"g+	c #20A085",
"h+	c #1F5546",
"i+	c #30CBA5",
"j+	c #33F3C8",
"k+	c #31F1C8",
"l+	c #2FDDBB",
"m+	c #27A68D",
"n+	c #24AD8F",
"o+	c #1EA082",
"p+	c #197D67",
"q+	c #23AB8F",
"r+	c #29E3BF",
"s+	c #27CDAC",
"t+	c #25CAA9",
"u+	c #2AE2BB",
"v+	c #1A947A",
"w+	c #1C7C65",
"x+	c #32E4BB",
"y+	c #2ED4AE",
"z+	c #2CD1AE",
"A+	c #30DCBA",
"B+	c #2BB69B",
"C+	c #2AC8A7",
"D+	c #29D1AC",
"E+	c #25B091",
"F+	c #2BE2BE",
"G+	c #2CF1CB",
"H+	c #22AC91",
"I+	c #157461",
"J+	c #1A866D",
"K+	c #198068",
"L+	c #186F59",
"M+	c #228D75",
"N+	c #1B7260",
"O+	c #26957C",
"P+	c #26B392",
"Q+	c #19846C",
"R+	c #26BE9E",
"S+	c #2DEEC6",
"T+	c #28D5B0",
"U+	c #031D15",
"V+	c #0A3227",
"W+	c #155144",
"X+	c #29A58D",
"Y+	c #2CCAA8",
"Z+	c #187860",
"`+	c #15745E",
" @	c #22B391",
".@	c #1A9A7D",
"+@	c #145848",
"@@	c #26B096",
"#@	c #26B396",
"$@	c #15654F",
"%@	c #04271E",
"                . + @ # $               ",
"          % & * = - ; >                 ",
"          , ' ) ! ~ { ] ^ / ( _         ",
"          : < [ } | 1 2 3 4 5 6 7       ",
"    8 9 0 a b c d e f g h i j k l m     ",
"    n o p q r s t u v   w x y z A B C   ",
"  D E F G H I J K L M N O P Q R S T U   ",
"V W X Y Z `  ...+.@.#.$.%.O &.*.=.-.;.  ",
">.,.'.).!.~.{.].^./.(._.:.<.  [.}.|.1.2.",
"3.4.5.6.7.8.9.0.a.b.c.d.e.f.g.h.i.j.k.l.",
"m.n.o.p.q.r.s.t.u.v.w.x.y.z.A.B.C.D.E.F.",
"G.H.I.J.K.L.M.N.O.P.Q.R.S.N T.U.V.W.X.Y.",
"Z.`. +.+++@+#+$+%+&+*+=+-+;+>+,+'+)+    ",
"  !+~+{+]+^+/+(+_+:+<+[+J }+|+1+2+3+    ",
"    4+5+6+7+8+@+9+0+a+  b+c+d+e+f+g+    ",
"      h+i+j+k+l+m+n+o+p+q+r+s+t+u+v+    ",
"      w+x+y+z+A+B+C+D+E+F+G+H+I+&.      ",
"        J+K+L+M+N+O+P+Q+R+S+T+          ",
"            U+V+W+X+Y+Z+`+ @.@          ",
"                +@@@#@$@%@              "};
