/* XPM */
static char * enemy_1_xpm[] = {
"20 20 305 2",
"  	c #000000",
". 	c #030606",
"+ 	c #0C4D3D",
"@ 	c #0B5D48",
"# 	c #000D08",
"$ 	c #032A21",
"% 	c #0A5A49",
"& 	c #0A5C4A",
"* 	c #011F18",
"= 	c #0A2419",
"- 	c #124435",
"; 	c #123C2F",
"> 	c #030F0A",
", 	c #0D3027",
"' 	c #164D42",
") 	c #2DC9A4",
"! 	c #2BE8BA",
"~ 	c #0D5143",
"{ 	c #17816B",
"] 	c #2AE6BE",
"^ 	c #2AE5BD",
"/ 	c #0B5A49",
"( 	c #092B25",
"_ 	c #0B4035",
": 	c #073027",
"< 	c #010202",
"[ 	c #1D7058",
"} 	c #2DC2A1",
"| 	c #2CB294",
"1 	c #093B2F",
"2 	c #21977C",
"3 	c #28C9A8",
"4 	c #2FE9C2",
"5 	c #2CF4C9",
"6 	c #24C4A2",
"7 	c #27D2AF",
"8 	c #2CF7CE",
"9 	c #29E8C1",
"0 	c #0B5E4C",
"a 	c #1D8973",
"b 	c #23C6A2",
"c 	c #1B9576",
"d 	c #062019",
"e 	c #1F9679",
"f 	c #33F3D6",
"g 	c #30E3C1",
"h 	c #094B3C",
"i 	c #23C09E",
"j 	c #31FED7",
"k 	c #30FBD5",
"l 	c #2FFCD4",
"m 	c #2FFBD3",
"n 	c #2EFCD2",
"o 	c #2CFCD1",
"p 	c #29E9C1",
"q 	c #0B5F4D",
"r 	c #20AE90",
"s 	c #2BFDD1",
"t 	c #22C29C",
"u 	c #093226",
"v 	c #1A5E49",
"w 	c #289581",
"x 	c #2CAD93",
"y 	c #27C29B",
"z 	c #25AD8C",
"A 	c #239780",
"B 	c #229983",
"C 	c #219D84",
"D 	c #209A82",
"E 	c #209980",
"F 	c #21977F",
"G 	c #21A387",
"H 	c #24C6A1",
"I 	c #22B592",
"J 	c #1D997E",
"K 	c #19745D",
"L 	c #071913",
"M 	c #02120D",
"N 	c #0D3A2F",
"O 	c #0D3B30",
"P 	c #0D3931",
"Q 	c #238D76",
"R 	c #2CECC3",
"S 	c #229F82",
"T 	c #0D0B0D",
"U 	c #021712",
"V 	c #021914",
"W 	c #021812",
"X 	c #010D0A",
"Y 	c #156D5B",
"Z 	c #27EAC2",
"` 	c #20BF9D",
" .	c #06382E",
"..	c #052C23",
"+.	c #010303",
"@.	c #0E4D3E",
"#.	c #31BF9F",
"$.	c #30BB9F",
"%.	c #2DB69D",
"&.	c #29B598",
"*.	c #26B592",
"=.	c #17755F",
"-.	c #0E4E40",
";.	c #1DB393",
">.	c #20B698",
",.	c #20B897",
"'.	c #1A8A72",
").	c #060F0F",
"!.	c #105E4C",
"~.	c #35E5BF",
"{.	c #35E9C6",
"].	c #34FBD5",
"^.	c #2DDBB5",
"/.	c #19332A",
"(.	c #08150F",
"_.	c #14644E",
":.	c #167D65",
"<.	c #167A63",
"[.	c #147059",
"}.	c #072F24",
"|.	c #010203",
"1.	c #1FAD90",
"2.	c #29FFD0",
"3.	c #23D0AA",
"4.	c #157E63",
"5.	c #032C20",
"6.	c #042921",
"7.	c #186C5A",
"8.	c #26A085",
"9.	c #33EFCF",
"0.	c #2DD8B4",
"a.	c #1A3A2F",
"b.	c #112E25",
"c.	c #25BF9A",
"d.	c #29E8C2",
"e.	c #29E6C1",
"f.	c #26D3B0",
"g.	c #115F4D",
"h.	c #021E17",
"i.	c #1EAA8D",
"j.	c #29FDD0",
"k.	c #28F4C6",
"l.	c #24DFB0",
"m.	c #085843",
"n.	c #0A1E17",
"o.	c #265143",
"p.	c #2B9D7D",
"q.	c #33F1CD",
"r.	c #2CD8B3",
"s.	c #112F29",
"t.	c #26CEAB",
"u.	c #2CFBD7",
"v.	c #2BF9D6",
"w.	c #28E5C3",
"x.	c #12695A",
"y.	c #021F18",
"z.	c #1EAD91",
"A.	c #2AFDD2",
"B.	c #29FBCB",
"C.	c #25E9B8",
"D.	c #085C46",
"E.	c #106450",
"F.	c #36F5C9",
"G.	c #34F4C9",
"H.	c #33F9CE",
"I.	c #2CD9B3",
"J.	c #18382D",
"K.	c #124135",
"L.	c #27D2AD",
"M.	c #2CFBD4",
"N.	c #2BFAD3",
"O.	c #28E3C1",
"P.	c #126758",
"Q.	c #1EAD8F",
"R.	c #29FDD2",
"S.	c #22C7A3",
"T.	c #125746",
"U.	c #021610",
"V.	c #0C5041",
"W.	c #2CC6A3",
"X.	c #2ED5AF",
"Y.	c #32F6CC",
"Z.	c #2DD8B5",
"`.	c #1B3830",
" +	c #0E4033",
".+	c #1FB696",
"++	c #26DFBB",
"@+	c #25DFBB",
"#+	c #22C8A7",
"$+	c #0F6758",
"%+	c #022018",
"&+	c #1FAF90",
"*+	c #2AFDD1",
"=+	c #24DCB4",
"-+	c #1CA685",
";+	c #053E30",
">+	c #1F9074",
",+	c #33F2CD",
"'+	c #2FD9B9",
")+	c #1B3330",
"!+	c #000D0A",
"~+	c #023028",
"{+	c #0C6A59",
"]+	c #0D6E5C",
"^+	c #0A5E4D",
"/+	c #03342A",
"(+	c #010706",
"_+	c #1EB090",
":+	c #28FDCF",
"<+	c #28FDCE",
"[+	c #26F6C4",
"}+	c #09634C",
"|+	c #1B6853",
"1+	c #2CB296",
"2+	c #2CB99D",
"3+	c #27BA9A",
"4+	c #177A62",
"5+	c #0E4A3A",
"6+	c #1DAF8C",
"7+	c #1FB796",
"8+	c #1FB797",
"9+	c #1FB795",
"0+	c #1CAF8C",
"a+	c #054333",
"b+	c #061E17",
"c+	c #0C392E",
"d+	c #268D77",
"e+	c #2DEEC6",
"f+	c #20A485",
"g+	c #021510",
"h+	c #010E0A",
"i+	c #146652",
"j+	c #26E9BB",
"k+	c #1FBF9B",
"l+	c #05382E",
"m+	c #06392E",
"n+	c #043227",
"o+	c #010D08",
"p+	c #195C4C",
"q+	c #27917C",
"r+	c #2AAD8F",
"s+	c #26BF9A",
"t+	c #25AD8E",
"u+	c #21937C",
"v+	c #20927A",
"w+	c #20947C",
"x+	c #1E947B",
"y+	c #1E997F",
"z+	c #1E967D",
"A+	c #1FA083",
"B+	c #20C09A",
"C+	c #20B795",
"D+	c #1A977F",
"E+	c #167562",
"F+	c #051B16",
"G+	c #1E8F76",
"H+	c #30E4C5",
"I+	c #2DD0AB",
"J+	c #0B4739",
"K+	c #27BE9F",
"L+	c #2EFFD6",
"M+	c #2BF0CA",
"N+	c #2CF1CA",
"O+	c #2CFCD2",
"P+	c #2BF9CF",
"Q+	c #28EFC8",
"R+	c #26DCB3",
"S+	c #0A5A46",
"T+	c #1DA587",
"U+	c #27EFC8",
"V+	c #1EB797",
"W+	c #073228",
"X+	c #0F4636",
"Y+	c #1C8266",
"Z+	c #1B755D",
"`+	c #0A4234",
" @	c #28C2A0",
".@	c #2EFFD7",
"+@	c #24B297",
"@@	c #21A188",
"#@	c #2BF4CD",
"$@	c #29E8C3",
"%@	c #1B9B7E",
"&@	c #13745E",
"*@	c #042B22",
"=@	c #0E5E4B",
"-@	c #148C6E",
";@	c #0E634F",
">@	c #021511",
",@	c #063C2E",
"'@	c #24BB97",
")@	c #30F8CC",
"!@	c #1C9479",
"~@	c #116454",
"{@	c #2BEAC1",
"]@	c #2DE0BB",
"^@	c #186251",
"/@	c #01120B",
"(@	c #084838",
"_@	c #0D644F",
":@	c #05392D",
"<@	c #02261F",
"[@	c #0B5E4B",
"}@	c #0D5B4A",
"|@	c #05251E",
"              . + @ # $ % & *           ",
"    = - ; > , ' ) ! ~ { ] ^ / ( _ : <   ",
"    [ } | 1 2 3 4 5 6 7 8 9 0 a b c d   ",
"    e f g h i j k l m n o p q r s t u   ",
"    v w x y z A B C D E F G H I J K L   ",
"M N O P Q R S T U V W U X Y Z `  ...+.  ",
"@.#.$.%.&.*.=.            -.;.>.,.'.).  ",
"!.~.{.].^./.  (._.:.<.[.}.  |.1.2.3.4.5.",
"6.7.8.9.0.a.  b.c.d.e.f.g.  h.i.j.k.l.m.",
"n.o.p.q.r.a.  s.t.u.v.w.x.  y.z.A.B.C.D.",
"E.F.G.H.I.J.  K.L.M.N.O.P.  y.Q.R.S.T.U.",
"V.W.X.Y.Z.`.   +.+++@+#+$+  %+&+*+=+-+;+",
"    >+,+'+)+  !+~+{+]+^+/+  (+_+:+<+[+}+",
"    |+1+2+3+4+            5+6+7+8+9+0+a+",
"    b+c+d+e+f+  g+g+g+W h+i+j+k+l+m+n+o+",
"    p+q+r+s+t+u+v+w+x+y+z+A+B+C+D+E+F+  ",
"    G+H+I+J+K+L+M+N+O+P+Q+R+S+T+U+V+W+  ",
"    X+Y+Z+`+ @.@+@@@#@$@%@&@*@=@-@;@>@  ",
"          ,@'@)@!@~@{@]@^@              ",
"          /@(@_@:@<@[@}@|@              "};
