/* XPM */
static char * exit_closed_xpm[] = {
"20 20 210 2",
"  	c #C932B0",
". 	c #6C18D6",
"+ 	c #DE2DD1",
"@ 	c #DD2FCD",
"# 	c #DB2DCB",
"$ 	c #80217C",
"% 	c #E33AC8",
"& 	c #E237CA",
"* 	c #E034CC",
"= 	c #E134CC",
"- 	c #DE34C8",
"; 	c #DB35C1",
"> 	c #D211C7",
", 	c #DE37C0",
"' 	c #D733BC",
") 	c #E135CC",
"! 	c #E339C8",
"~ 	c #DF31CE",
"{ 	c #E136CB",
"] 	c #E135CB",
"^ 	c #E139C5",
"/ 	c #DE37C2",
"( 	c #D934BD",
"_ 	c #D43FBA",
": 	c #E239C6",
"< 	c #E339C7",
"[ 	c #CA2DB0",
"} 	c #841875",
"| 	c #772365",
"1 	c #772464",
"2 	c #772366",
"3 	c #762266",
"4 	c #772364",
"5 	c #772465",
"6 	c #9E2D6E",
"7 	c #DD2ECF",
"8 	c #DD32C9",
"9 	c #E037C7",
"0 	c #C62DA2",
"a 	c #370335",
"b 	c #2E0C2E",
"c 	c #540B48",
"d 	c #64183C",
"e 	c #591845",
"f 	c #53064E",
"g 	c #501C49",
"h 	c #530D4F",
"i 	c #540B4E",
"j 	c #4D1151",
"k 	c #481B43",
"l 	c #270827",
"m 	c #510C4B",
"n 	c #DB32C4",
"o 	c #DF36C6",
"p 	c #C0359F",
"q 	c #120019",
"r 	c #D434B9",
"s 	c #421C3C",
"t 	c #3F0B39",
"u 	c #CE3CB7",
"v 	c #DC37C0",
"w 	c #D230B7",
"x 	c #C42DA9",
"y 	c #07001B",
"z 	c #CB34AB",
"A 	c #7E2B72",
"B 	c #A93393",
"C 	c #5C1656",
"D 	c #3E202C",
"E 	c #D135A3",
"F 	c #C42D95",
"G 	c #060315",
"H 	c #43083B",
"I 	c #220321",
"J 	c #230422",
"K 	c #260327",
"L 	c #20031F",
"M 	c #9D2D6F",
"N 	c #591A52",
"O 	c #401233",
"P 	c #CD3BB5",
"Q 	c #E038C4",
"R 	c #C42D9B",
"S 	c #050017",
"T 	c #C62CAB",
"U 	c #210817",
"V 	c #000400",
"W 	c #010400",
"X 	c #010300",
"Y 	c #000200",
"Z 	c #000300",
"` 	c #561B4E",
" .	c #3F1B32",
"..	c #CD35A7",
"+.	c #DA35BF",
"@.	c #E53BC8",
"#.	c #C42CA6",
"$.	c #070015",
"%.	c #C82EAF",
"&.	c #220222",
"*.	c #000102",
"=.	c #030303",
"-.	c #010302",
";.	c #4F1E47",
">.	c #3F172F",
",.	c #CF3AB2",
"'.	c #DC36C0",
").	c #C036AA",
"!.	c #07000F",
"~.	c #D435BA",
"{.	c #010103",
"].	c #010301",
"^.	c #82266E",
"/.	c #5A1853",
"(.	c #3F1830",
"_.	c #CD3BB6",
":.	c #DA34C1",
"<.	c #C232AA",
"[.	c #14011A",
"}.	c #C62DAE",
"|.	c #210220",
"1.	c #000100",
"2.	c #000000",
"3.	c #531D4B",
"4.	c #3C1B35",
"5.	c #E033CD",
"6.	c #DC12D2",
"7.	c #C42FAC",
"8.	c #15041B",
"9.	c #D234B9",
"0.	c #450442",
"a.	c #39033C",
"b.	c #3F0440",
"c.	c #3E043F",
"d.	c #3C063E",
"e.	c #3B063E",
"f.	c #983788",
"g.	c #5E1557",
"h.	c #3C1F34",
"i.	c #D62FBF",
"j.	c #BF36A9",
"k.	c #0E001A",
"l.	c #D73AC0",
"m.	c #9E339A",
"n.	c #8C3F77",
"o.	c #893979",
"p.	c #AA3396",
"q.	c #5C1755",
"r.	c #40123A",
"s.	c #E033CB",
"t.	c #E237C9",
"u.	c #E236CB",
"v.	c #C431AC",
"w.	c #190021",
"x.	c #401A39",
"y.	c #3C1E34",
"z.	c #CA3AB3",
"A.	c #DD34C4",
"B.	c #D917D0",
"C.	c #D42FBE",
"D.	c #C330AB",
"E.	c #1F0122",
"F.	c #1E0024",
"G.	c #340F37",
"H.	c #210729",
"I.	c #2E0631",
"J.	c #290230",
"K.	c #2F0A2F",
"L.	c #2B092D",
"M.	c #310731",
"N.	c #2E003C",
"O.	c #2F002F",
"P.	c #15080C",
"Q.	c #410B3D",
"R.	c #DB33C3",
"S.	c #D734BC",
"T.	c #C438AE",
"U.	c #6D226A",
"V.	c #5C2256",
"W.	c #662164",
"X.	c #612547",
"Y.	c #5E2158",
"Z.	c #5E2157",
"`.	c #5F2159",
" +	c #642163",
".+	c #5D2157",
"++	c #7C256A",
"@+	c #E13AC5",
"#+	c #B92B8C",
"$+	c #BA2FA5",
"%+	c #DE38C3",
"&+	c #D93DC0",
"*+	c #DE3DC4",
"=+	c #E33AC7",
"-+	c #DF38C4",
";+	c #E238C9",
">+	c #DE38C2",
",+	c #C840AF",
"'+	c #CC39B3",
")+	c #D439BE",
"!+	c #D43BBB",
"~+	c #CD38B5",
"{+	c #D53CBC",
"]+	c #D738BD",
"^+	c #D63ABC",
"/+	c #D936BE",
"(+	c #D83BC2",
"_+	c #D639BC",
":+	c #D13BB1",
"<+	c #9D1D7E",
"  . . . . . + . . + . . . @ . . . #     ",
"  . $ % & & * = . . $ . . $ - - ; . . . ",
"> . , ' ) ) ! ~ { ~ { ] * & ^ ^ / ( _ . ",
". : < [ } | 1 2 | 3 | | | 4 5 | 6 $ 7 . ",
". 8 9 0 a b c d e f g h i j k l m $ n . ",
". o ^ p q $ $ $ r $ $ $ r $ $ s t u $   ",
". v w x y $ z r r r A r r B $ C D E $ $ ",
". ^ $ F G $ r H I J J K L M $ N O P / : ",
". Q ^ R S r T U V W X Y Z r $ `  ...+.: ",
". @.' #.$.$ %.&.*.r $ =.-.r r ;.>.,.) . ",
". $ '.).!.$ ~.&.X $ $ {.].^.$ /.(._.$ . ",
". $ :.<.[.r }.|.1.Z 1.Z 2.r $ 3.4.$ . 5.",
"6.$ 5.7.8.$ 9.0.a.b.c.d.e.f.r g.h.$ . . ",
". ) i.j.k.$ l.m.r n.o.r r p.$ q.r._.s.t.",
". u.& v.w.$ $ $ $ r $ r $ $ $ x.y.z.A.. ",
"B.. C.D.E.F.G.H.I.J.K.L.M.N.O.P.Q.$ R.. ",
". S.$ T.U.V.W.X.Y.Z.Z.Z.Z.`. +.+++$ @+. ",
"#+$+$ %+&+*+=+-+=+=+=+=+=+=+;+=+>+$ ,+. ",
"    $ '+. )+!+~+$ $ {+]+^+/+(+_+. :+<+. ",
". . .     . .   . . . $ .   . . . . . . "};
