/* XPM */
static char * exit_open_xpm[] = {
"20 20 152 2",
"  	c #FBFB00",
". 	c #EEEE00",
"+ 	c #FFFF0C",
"@ 	c #FFFF0D",
"# 	c #FFFF09",
"$ 	c #A18500",
"% 	c #FFFF1E",
"& 	c #FFFF1A",
"* 	c #FFFF15",
"= 	c #FFFF16",
"- 	c #FFFF13",
"; 	c #FFFF11",
"> 	c #DEE300",
", 	c #FFFF0B",
"' 	c #FFFF17",
") 	c #FFFF1D",
"! 	c #FFFF18",
"~ 	c #FFFF1B",
"{ 	c #FFFF0E",
"] 	c #FFFF14",
"^ 	c #FFFF1C",
"/ 	c #F7F700",
"( 	c #9C7500",
"_ 	c #9A7C00",
": 	c #9B7E00",
"< 	c #987900",
"[ 	c #9B7F00",
"} 	c #C6CB00",
"| 	c #FFFF10",
"1 	c #F3F300",
"2 	c #370335",
"3 	c #2E0C2E",
"4 	c #540B48",
"5 	c #7A4102",
"6 	c #502127",
"7 	c #53064E",
"8 	c #4E1E3F",
"9 	c #530D4F",
"0 	c #540B4E",
"a 	c #4D1151",
"b 	c #481B43",
"c 	c #270827",
"d 	c #510C4B",
"e 	c #F5F500",
"f 	c #120019",
"g 	c #421C3C",
"h 	c #3F0B39",
"i 	c #FFFF03",
"j 	c #F1F100",
"k 	c #07001B",
"l 	c #FFFF00",
"m 	c #A99700",
"n 	c #D0DC00",
"o 	c #522030",
"p 	c #3E202C",
"q 	c #FFFF07",
"r 	c #060315",
"s 	c #43083B",
"t 	c #220321",
"u 	c #230422",
"v 	c #260327",
"w 	c #20031F",
"x 	c #C6CA00",
"y 	c #4E2529",
"z 	c #401233",
"A 	c #FFFF19",
"B 	c #050017",
"C 	c #F2F200",
"D 	c #210817",
"E 	c #000400",
"F 	c #010400",
"G 	c #010300",
"H 	c #000200",
"I 	c #000300",
"J 	c #4E232D",
"K 	c #3F1B32",
"L 	c #FFFF21",
"M 	c #F0F000",
"N 	c #070015",
"O 	c #F6F600",
"P 	c #220222",
"Q 	c #000102",
"R 	c #030303",
"S 	c #010302",
"T 	c #4B2238",
"U 	c #3F172F",
"V 	c #FFFF0A",
"W 	c #07000F",
"X 	c #010103",
"Y 	c #010301",
"Z 	c #A89000",
"` 	c #51212E",
" .	c #3F1830",
"..	c #FFFF0F",
"+.	c #F4F400",
"@.	c #14011A",
"#.	c #210220",
"$.	c #000100",
"%.	c #000000",
"&.	c #4D232F",
"*.	c #3C1B35",
"=.	c #15041B",
"-.	c #450442",
";.	c #39033C",
">.	c #3F0440",
",.	c #3E043F",
"'.	c #3C063E",
").	c #3B063E",
"!.	c #BFCF00",
"~.	c #52212D",
"{.	c #3C1F34",
"].	c #FFFF06",
"^.	c #0E001A",
"/.	c #FFFF12",
"(.	c #C2D100",
"_.	c #BACB00",
":.	c #C0C200",
"<.	c #D2DD00",
"[.	c #51222C",
"}.	c #40123A",
"|.	c #190021",
"1.	c #401A39",
"2.	c #3C1E34",
"3.	c #FFFF05",
"4.	c #FFFF04",
"5.	c #1F0122",
"6.	c #1E0024",
"7.	c #340F37",
"8.	c #210729",
"9.	c #2E0631",
"0.	c #290230",
"a.	c #2F0A2F",
"b.	c #2B092D",
"c.	c #310731",
"d.	c #2E003C",
"e.	c #2F002F",
"f.	c #15080C",
"g.	c #410B3D",
"h.	c #FCFC00",
"i.	c #8F6F00",
"j.	c #6E4C10",
"k.	c #876300",
"l.	c #866400",
"m.	c #704C0F",
"n.	c #724D0D",
"o.	c #734F0D",
"p.	c #815D04",
"q.	c #6E4A10",
"r.	c #A18700",
"s.	c #E0E400",
"t.	c #E9E900",
"u.	c #BA9A00",
"  . . . . . + . . + . . . @ . . . #     ",
"  . $ % & & * = . . $ . . $ - - ; . . . ",
"> . = , ' ' ) ; ! ; ! ' * & ~ ~ = { ] . ",
". ^ ) / ( _ : _ _ < _ _ _ _ [ _ } $ + . ",
". | ! 1 2 3 4 5 6 7 8 9 0 a b c d $ { . ",
". = ~ e f $ $ $ # $ $ $ # $ $ g h , $   ",
". ] i j k $ l # # # m # # n $ o p q $ $ ",
". ~ $ j r $ # s t u u v w x $ y z # = ^ ",
". A ~ j B # C D E F G H I # $ J K i | ^ ",
". L , M N $ O P Q # $ R S # # T U V ' . ",
". $ - O W $ V P G $ $ X Y Z $ `  .# $ . ",
". $ ..+.@.# 1 #.$.I $.I %.# $ &.*.$ . ] ",
". $ ] 1 =.$ q -.;.>.,.'.).!.# ~.{.$ . . ",
". ' ].e ^.$ /.(.# _.:.# # <.$ [.}.# ] & ",
". A & e |.$ $ $ $ # $ # $ $ $ 1.2.3./.. ",
"M . 4.1 5.6.7.8.9.0.a.b.c.d.e.f.g.$ ... ",
". + $ h.i.j.k.l.m.n.n.n.n.o.p.q.r.$ ^ . ",
"s.t.$ ' ' ^ % ! % % % % % % ~ % ' $ # . ",
"    $ ].. { | ].$ $ /.| ; | ] | . @ u.. ",
". . .     . .   . . . $ .   . . . . . . "};
