/* XPM */
static char * horz_sl_xpm[] = {
"20 20 125 2",
"  	c None",
". 	c #C5C749",
"+ 	c #C7C64A",
"@ 	c #C7C651",
"# 	c #C6C651",
"$ 	c #C4C648",
"% 	c #E1E437",
"& 	c #F2F721",
"* 	c #F7F619",
"= 	c #F6F418",
"- 	c #F6F518",
"; 	c #EEF520",
"> 	c #D5DF36",
", 	c #DFDC40",
"' 	c #EFEC2A",
") 	c #F7F519",
"! 	c #F8F515",
"~ 	c #F7F617",
"{ 	c #F3F619",
"] 	c #F2F517",
"^ 	c #E8EA28",
"/ 	c #D8E43D",
"( 	c #9F9C38",
"_ 	c #B7B33E",
": 	c #F0ED26",
"< 	c #FAF515",
"[ 	c #FAF316",
"} 	c #FAF416",
"| 	c #FAF417",
"1 	c #F9F417",
"2 	c #F8F519",
"3 	c #F5F61B",
"4 	c #F3F617",
"5 	c #E2EE20",
"6 	c #B2B43E",
"7 	c #9C9A3E",
"8 	c #D6D41F",
"9 	c #F2EC21",
"0 	c #F8F21A",
"a 	c #FAF517",
"b 	c #F8F618",
"c 	c #F6F517",
"d 	c #F3F416",
"e 	c #EEEF28",
"f 	c #D1D038",
"g 	c #99970C",
"h 	c #DEDB1A",
"i 	c #F9F41A",
"j 	c #FAF317",
"k 	c #F8F51B",
"l 	c #F6F81E",
"m 	c #D9D820",
"n 	c #7E7C1C",
"o 	c #DFDC1A",
"p 	c #FAF419",
"q 	c #F9F518",
"r 	c #D9D722",
"s 	c #7D7927",
"t 	c #DEDC1A",
"u 	c #FBF619",
"v 	c #DAD722",
"w 	c #7D7A25",
"x 	c #FBF519",
"y 	c #D9D724",
"z 	c #7C782A",
"A 	c #FAF618",
"B 	c #DAD821",
"C 	c #818024",
"D 	c #99970F",
"E 	c #DEDC1B",
"F 	c #DAD824",
"G 	c #85842A",
"H 	c #999914",
"I 	c #DDDC1C",
"J 	c #FAF418",
"K 	c #F9F418",
"L 	c #F9F317",
"M 	c #F9F416",
"N 	c #D7D51C",
"O 	c #78781D",
"P 	c #919129",
"Q 	c #DCDA25",
"R 	c #F9F316",
"S 	c #F9F318",
"T 	c #F8F318",
"U 	c #F5F61D",
"V 	c #D5D41D",
"W 	c #78771D",
"X 	c #D3D236",
"Y 	c #F0EC21",
"Z 	c #F7F117",
"` 	c #F9F517",
" .	c #F5F319",
"..	c #EFED1C",
"+.	c #8C8D27",
"@.	c #AEAD1A",
"#.	c #F1EF25",
"$.	c #F9F618",
"%.	c #F8F416",
"&.	c #F7F212",
"*.	c #F9F514",
"=.	c #E8EF1C",
"-.	c #B3B51B",
";.	c #D8D732",
">.	c #E8E61D",
",.	c #F6F419",
"'.	c #F8F415",
").	c #F7F215",
"!.	c #F8F315",
"~.	c #F7F518",
"{.	c #EAE91E",
"].	c #DADA1F",
"^.	c #D2D317",
"/.	c #F3F41A",
"(.	c #F5F318",
"_.	c #F5F216",
":.	c #F5F316",
"<.	c #F3F41B",
"[.	c #D1D824",
"}.	c #AFAE1C",
"|.	c #ADAE1E",
"1.	c #AFAE1F",
"2.	c #B1AF27",
"3.	c #ACAE20",
"4.	c #A9B020",
"                                        ",
"              . + @ # # $               ",
"            % & * = = - ; >             ",
"          , ' ) ! ! ~ { ] ^ /           ",
"      ( _ : < [ } | 1 2 3 4 5 6 7       ",
"      8 9 0 } [ [ } } a b c d e f       ",
"    g h i j a | } a a a a k 2 l m n     ",
"    g o p [ | a [ } | | a a 1 q r s     ",
"    g t p [ | | [ [ [ | a a a u v w     ",
"    g h i [ a | [ [ [ | a a a x y z     ",
"    g h i } a a a a a a a a a A B C     ",
"    D E i } a a a a a a a a 1 1 F G     ",
"    H I i [ a a a | | a J K L M N O     ",
"    P Q K R a a M M | a S S T U V W     ",
"      X Y Z ` 1 M M a a 1 1  ...8       ",
"      +.@.#.$.L L L S %.&.*.=.-.        ",
"          ;.>.,.'.).!.%.~.{.].          ",
"            ^./.(._.:.<.; [.            ",
"              }.|.1.2.3.4.              ",
"                                        "};
