/* XPM */
static char * jump_1_xpm[] = {
"40 40 418 2",
"  	c None",
". 	c #7F8033",
"+ 	c #7C7A34",
"@ 	c #7B7935",
"# 	c #7D7E33",
"$ 	c #7D7C34",
"% 	c #7C7B34",
"& 	c #7E7E33",
"* 	c #7A7735",
"= 	c #7D7837",
"- 	c #85793A",
"; 	c #827939",
"> 	c #7C7736",
", 	c #7B7A34",
"' 	c #7C7D33",
") 	c #B8B61E",
"! 	c #CFCE29",
"~ 	c #D1CF2B",
"{ 	c #CFCD2B",
"] 	c #CFCE2A",
"^ 	c #D0CF2A",
"/ 	c #D0CF2B",
"( 	c #D1CE2C",
"_ 	c #D2CE2E",
": 	c #D2CE2D",
"< 	c #D1CF2C",
"[ 	c #CFCD2C",
"} 	c #C7C62C",
"| 	c #A5A620",
"1 	c #95920C",
"2 	c #C5C416",
"3 	c #F3F420",
"4 	c #F8FA21",
"5 	c #F6F820",
"6 	c #F9F720",
"7 	c #FAF920",
"8 	c #FAFA21",
"9 	c #FAF820",
"0 	c #FAFA20",
"a 	c #FAF81F",
"b 	c #FAFB20",
"c 	c #FBFA1E",
"d 	c #FCF91D",
"e 	c #FCF91E",
"f 	c #FBFA20",
"g 	c #FAF81E",
"h 	c #FBF91E",
"i 	c #F7F923",
"j 	c #E8EB23",
"k 	c #B0B316",
"l 	c #717503",
"m 	c #969611",
"n 	c #C0C419",
"o 	c #EBF321",
"p 	c #ECF920",
"q 	c #EBF61D",
"r 	c #F6F41B",
"s 	c #F7F61D",
"t 	c #F3F921",
"u 	c #F8F51C",
"v 	c #F4F820",
"w 	c #F4F91D",
"x 	c #F7F717",
"y 	c #F3F91F",
"z 	c #F7F618",
"A 	c #F8F413",
"B 	c #F8F516",
"C 	c #F4F81D",
"D 	c #F3F81F",
"E 	c #F6F518",
"F 	c #F8F414",
"G 	c #EEF922",
"H 	c #E0EE1F",
"I 	c #B1B912",
"J 	c #838304",
"K 	c #D9DB33",
"L 	c #BEC71E",
"M 	c #D0D81A",
"N 	c #EDF31E",
"O 	c #EEF61D",
"P 	c #EDF41A",
"Q 	c #F5F318",
"R 	c #F3F61E",
"S 	c #F6F41A",
"T 	c #F7F419",
"U 	c #F3F61D",
"V 	c #F4F61B",
"W 	c #F6F615",
"X 	c #F4F61A",
"Y 	c #F3F51C",
"Z 	c #F5F416",
"` 	c #F7F313",
" .	c #F6F314",
"..	c #F3F519",
"+.	c #F2F61B",
"@.	c #F6F313",
"#.	c #F6F415",
"$.	c #F3F61B",
"%.	c #EFF71E",
"&.	c #E5F01E",
"*.	c #C8D317",
"=.	c #B9C11A",
"-.	c #D8D932",
";.	c #777924",
">.	c #C7C536",
",.	c #ECEE3A",
"'.	c #E0EE28",
").	c #E6F11B",
"!.	c #F6F519",
"~.	c #F8F618",
"{.	c #F8F518",
"].	c #F9F518",
"^.	c #F9F517",
"/.	c #F9F417",
"(.	c #F8F517",
"_.	c #F7F515",
":.	c #F6F514",
"<.	c #F9F516",
"[.	c #F9F513",
"}.	c #F8F519",
"|.	c #F2F31F",
"1.	c #E4F01E",
"2.	c #E0EE27",
"3.	c #D8D039",
"4.	c #AF9F2D",
"5.	c #7F7E2E",
"6.	c #CDCB3B",
"7.	c #F3F63D",
"8.	c #EDF82C",
"9.	c #EFF71D",
"0.	c #F8F619",
"a.	c #FAF517",
"b.	c #FAF516",
"c.	c #FAF416",
"d.	c #FAF417",
"e.	c #FAF316",
"f.	c #F9F515",
"g.	c #F9F418",
"h.	c #F9F416",
"i.	c #FAF414",
"j.	c #F8F419",
"k.	c #F5F420",
"l.	c #EDF621",
"m.	c #EDF82B",
"n.	c #F4F63D",
"o.	c #DAD641",
"p.	c #ACA33D",
"q.	c #84822F",
"r.	c #CFD039",
"s.	c #F5F939",
"t.	c #F2F929",
"u.	c #F3F71C",
"v.	c #F9F317",
"w.	c #F8F41A",
"x.	c #F5F41F",
"y.	c #EEF620",
"z.	c #EFF92A",
"A.	c #F8FA39",
"B.	c #DDDC40",
"C.	c #ACA941",
"D.	c #858422",
"E.	c #C9CF29",
"F.	c #F0F729",
"G.	c #F4F71C",
"H.	c #F6F616",
"I.	c #F9F618",
"J.	c #F6F21A",
"K.	c #EBF31D",
"L.	c #EAF722",
"M.	c #F8FA29",
"N.	c #E0DF2D",
"O.	c #AFB02F",
"P.	c #84851B",
"Q.	c #CACF1F",
"R.	c #F3F71E",
"S.	c #F7F51B",
"T.	c #F9F419",
"U.	c #FAF216",
"V.	c #F7F117",
"W.	c #EEF218",
"X.	c #EEF51A",
"Y.	c #F9FA1E",
"Z.	c #E1E022",
"`.	c #B1B325",
" +	c #83851C",
".+	c #D0D01F",
"++	c #F9F81E",
"@+	c #F8F715",
"#+	c #F6F517",
"$+	c #F6F41E",
"%+	c #F8F31A",
"&+	c #F9F217",
"*+	c #F8F117",
"=+	c #F4F115",
"-+	c #E0DF23",
";+	c #B1B326",
">+	c #83851D",
",+	c #D1D01F",
"'+	c #F7F41A",
")+	c #F9F318",
"!+	c #F9F319",
"~+	c #F6F31D",
"{+	c #F2F41D",
"]+	c #F4F71E",
"^+	c #DFDE23",
"/+	c #B0B326",
"(+	c #84851C",
"_+	c #F9F81F",
":+	c #F7F719",
"<+	c #F6F516",
"[+	c #F2F520",
"}+	c #F3F821",
"|+	c #F9F921",
"1+	c #DEDD23",
"2+	c #B0B226",
"3+	c #87851B",
"4+	c #D2D01F",
"5+	c #F8F821",
"6+	c #F3F920",
"7+	c #F3F71D",
"8+	c #F9F218",
"9+	c #F7F219",
"0+	c #F7F51C",
"a+	c #DEDE23",
"b+	c #D0CD20",
"c+	c #F6F622",
"d+	c #F3F71F",
"e+	c #F4F71B",
"f+	c #F7F21B",
"g+	c #F5F31C",
"h+	c #F6F61D",
"i+	c #F9F820",
"j+	c #86841B",
"k+	c #CDCB22",
"l+	c #F4F323",
"m+	c #F7F614",
"n+	c #F9F617",
"o+	c #FAF518",
"p+	c #F1F521",
"q+	c #F2F821",
"r+	c #F8F921",
"s+	c #87851A",
"t+	c #CFCE20",
"u+	c #F7F520",
"v+	c #F7F615",
"w+	c #F7F513",
"x+	c #F8F318",
"y+	c #8A8921",
"z+	c #D1D022",
"A+	c #F8F71F",
"B+	c #F8F615",
"C+	c #F9F316",
"D+	c #F8F217",
"E+	c #F8F219",
"F+	c #F9F41B",
"G+	c #91902C",
"H+	c #D0CE29",
"I+	c #F5F322",
"J+	c #F7F516",
"K+	c #F7F41C",
"L+	c #F8F51F",
"M+	c #FAF821",
"N+	c #8F8E29",
"O+	c #D0CF27",
"P+	c #F6F422",
"Q+	c #F7F41B",
"R+	c #F8F51E",
"S+	c #DEDB23",
"T+	c #B1AB26",
"U+	c #89871D",
"V+	c #D2D020",
"W+	c #FAF71A",
"X+	c #FAF71F",
"Y+	c #DED923",
"Z+	c #B1A326",
"`+	c #D2D01E",
" @	c #F7F415",
".@	c #878421",
"+@	c #D2D021",
"@@	c #FAF71E",
"#@	c #F7F414",
"$@	c #F9F619",
"%@	c #F9F519",
"&@	c #F8F61F",
"*@	c #85822D",
"=@	c #D1CF27",
"-@	c #F8F617",
";@	c #FBF81E",
">@	c #FAF61B",
",@	c #F9F61B",
"'@	c #8C892B",
")@	c #D3D126",
"!@	c #F8F71A",
"~@	c #F8F61B",
"{@	c #FAF81D",
"]@	c #FAF61A",
"^@	c #F9F61A",
"/@	c #F8F621",
"(@	c #DCDB25",
"_@	c #939121",
":@	c #D5D321",
"<@	c #F7F61F",
"[@	c #F7F51D",
"}@	c #F9F51C",
"|@	c #F5F323",
"1@	c #D9D926",
"2@	c #AFB226",
"3@	c #8E8C1C",
"4@	c #D4D21F",
"5@	c #F8F61A",
"6@	c #F7F518",
"7@	c #F8F521",
"8@	c #88861B",
"9@	c #F7F21A",
"0@	c #F8F51A",
"a@	c #F7F315",
"b@	c #F8F416",
"c@	c #8E8C24",
"d@	c #D4D222",
"e@	c #F9F91F",
"f@	c #F4F91E",
"g@	c #FAF51A",
"h@	c #FAF71B",
"i@	c #E0DF21",
"j@	c #B1B324",
"k@	c #91902F",
"l@	c #D1D02A",
"m@	c #F5F517",
"n@	c #F5F514",
"o@	c #F8F629",
"p@	c #DCDC2B",
"q@	c #AEB02C",
"r@	c #7E7D35",
"s@	c #B6B538",
"t@	c #DBDC34",
"u@	c #E6EB1E",
"v@	c #EFF20E",
"w@	c #F6F513",
"x@	c #FAF413",
"y@	c #FBF412",
"z@	c #FAF412",
"A@	c #FAF512",
"B@	c #FAF513",
"C@	c #FBF513",
"D@	c #FAF515",
"E@	c #F6F319",
"F@	c #E5E71E",
"G@	c #DADE32",
"H@	c #DCDD49",
"I@	c #C4C44D",
"J@	c #9D9C48",
"K@	c #6D6A38",
"L@	c #9E9E40",
"M@	c #C1C53B",
"N@	c #CED71F",
"O@	c #E2E70E",
"P@	c #FBF611",
"Q@	c #FBF50E",
"R@	c #FAF50F",
"S@	c #F2EF13",
"T@	c #D1D319",
"U@	c #B7BE34",
"V@	c #BFC357",
"W@	c #AFB05E",
"X@	c #8F8B56",
"Y@	c #A9AB14",
"Z@	c #CECF14",
"`@	c #FDF817",
" #	c #FBF511",
".#	c #FBF510",
"+#	c #FAF510",
"@#	c #FBF613",
"##	c #F1EE16",
"$#	c #BCBD12",
"%#	c #89901D",
"&#	c #828311",
"*#	c #B4BE1F",
"=#	c #E3F12B",
"-#	c #E7ED2E",
";#	c #E6E22E",
">#	c #EAE42E",
",#	c #ECE52E",
"'#	c #ECE72D",
")#	c #E9F02A",
"!#	c #E6F129",
"~#	c #E5E52D",
"{#	c #E7E22E",
"]#	c #EBE52E",
"^#	c #E8F229",
"/#	c #EBE92D",
"(#	c #EBE92C",
"_#	c #EAF12B",
":#	c #E3E02E",
"<#	c #A9A620",
"[#	c #63650E",
"}#	c #6E7618",
"|#	c #9BB727",
"1#	c #C5EB37",
"2#	c #C7DB3F",
"3#	c #C8C742",
"4#	c #D4CD42",
"5#	c #D8CF42",
"6#	c #D6D341",
"7#	c #D0E83C",
"8#	c #C9EC3A",
"9#	c #C5D040",
"0#	c #CCC742",
"a#	c #D6CF42",
"b#	c #D8D042",
"c#	c #D7D441",
"d#	c #CFE83C",
"e#	c #CDED3A",
"f#	c #D5D940",
"g#	c #CEEE3A",
"h#	c #D1EA3C",
"i#	c #D0CD3F",
"j#	c #9C952E",
"k#	c #5E591A",
"                                                                                ",
"                                                                                ",
"              . + @ # $ @ $ # @ % & % * * * * * = - ; > ; - = , '               ",
"            ) ! ~ { ] ^ ~ ^ ^ ~ ~ ^ / ~ ~ ~ ~ ~ ( _ : < : _ ( [ } |             ",
"          1 2 3 4 5 6 7 8 7 9 8 0 a 0 b c d e f 8 a g h g a 8 i j k l           ",
"          m n o p q r s t s u v w x w y z A B C D E F F F E D G H I J           ",
"        K L M N O P Q r R S T U V W X Y Z `  ...+.Z ` @.` #.$.%.&.*.=.-.        ",
"    ;.>.,.'.).!.~.{.].].].].].].].^././.^.^.(._.:.B ^.^.^.<.[.}.|.1.2.,.3.4.    ",
"    5.6.7.8.9.0.a.b.^.^.a.a.a.c.c.d.e.e./.^.^.f.f.^.].].g.h.i.j.k.l.m.n.o.p.    ",
"    q.r.s.t.u.0.^.h.h.c.a.a.d.e.e.e.e.e.h.h.h.c.d./././.v.v.h.w.x.y.z.A.B.C.    ",
"    D.E.F.G.H.I.d.e.e.e.e.e.e.e.e.e.e.e.d.c.e.e.e.e.d.a.a.d.e.v.J.K.L.M.N.O.    ",
"    P.Q.R.W _.S.T.e.e.e.e.e.e.e.e.e.e.e.a.d.e.e.e.e.c.a.a.c.e.U.V.W.X.Y.Z.`.    ",
"     +.+++@+#+$+%+e.e.e.e.e.e.e.e.e.e.c.a.d.e.e.e.e.c.a.c.e.e.&+*+=+#+c -+;+    ",
"    >+,+g @+#.'+)+e.e.e.e.e.e.e.e.e.c.d.a.d.e.e.e.e.c.a.c.e.e.!+~+{+]+7 ^+/+    ",
"    (+,+_+:+<+h.c.e.e.e.e.e.e.e.e.e.d.a.a.d.e.e.e.e.c.a.c.e.e.%+$+[+}+|+1+2+    ",
"    3+4+5+6+7+~.a.d.e.e.e.e.e.e.e.e.d.a.a.d.e.e.e.e.c.a.c.e.e.8+9+J.0+9 a+2+    ",
"    3+b+c+d+e+~.a.a.e.e.e.e.e.e.e.e.d.a.a.d.e.e.e.e.c.a.c.e.e.)+f+g+h+i+1+2+    ",
"    j+k+l+E m+n+o+a.e.e.e.e.e.e.e.e.d.a.a.d.e.e.e.e.c.a.c.e.e.%+x.p+q+r+1+2+    ",
"    s+t+u+v+w+n+o+a.e.e.e.e.e.e.e.e.d.a.a.d.e.e.e.e.c.a.c.e.e.x+f+g+h+i+1+2+    ",
"    y+z+A+B+w+n+o+a.e.e.e.e.e.e.e.e.d.a.a.d.e.e.e.e.c.a.d.c.h.C+D+E+F+9 a+/+    ",
"    G+H+I+J+w+n+o+a.e.e.e.e.e.e.e.e.d.a.a.a.h.h.h.h.c.a.a.d.h./.].K+L+M+1+2+    ",
"    N+O+P+~.B+I.^.d.e.e.e.e.e.e.e.c.d.a.a.a.h.h.h.h.h.a.a./.h.^.I.Q+R+9 S+T+    ",
"    U+V+a W+n+I.^./.e.e.e.e.e.e.e.h.a.a.a.a.h.h.h.h.h.a././.h.^.].x+F+X+Y+Z+    ",
"    s+`+g ^. @n+^./.h.h./.h.h.h.h.h./.a.a.a.h.h.h.h.h.a././.h.^.I.Q+R+9 S+T+    ",
"    .@+@@@ @#@$@%@/.h.h./.h.h././.h././.a.a.h.h.h.h.h.a././.h.^.I.0+&@M+1+2+    ",
"    *@=@g B+-@;@>@/.h.h./.h.h././.h././.a.a.h.h.h.h.h.a././.h.^.I.}.,@9 1+/+    ",
"    '@)@a !@~@{@]@/.h.h./.h.h././.h./.a.a.a.h.h.h.h.h.a././.h.^.I.^.^@/@(@2+    ",
"    _@:@M+<@[@$@]./.h.h./.h.h././.h.a.a.a.a.h.h.h.h.h.a././.h.^.$@I.}@|@1@2@    ",
"    3@4@a 5@6@I.^./.h.h./.h.h././.h.a.a.a.a.h.h.h.h.h.a././.h.w.[@w.F+7@(@2+    ",
"    8@`+_+:+H.I.]./././././././././.^.a.a.^./.h.h.h./.a./././.w.$+9@T.X+1+2+    ",
"    8@`+5+6+7+0.I.].g.)+)+)+)+)+)+)+].I.I.].)+)+v././.a./.)+)+T.0@a@b@@@a+2+    ",
"    c@d@e@f@e+0.].g.)+)+)+)+)+g.g.g.].I.I.].)+)+)+/.^.].g.)+)+g@h@0@0.d i@j@    ",
"    k@l@P+m@n@-@g.v.e.e.h././.a.c./.^.n+n+^.v.v.v./.^.n+^./.v.>@a k.l+o@p@q@    ",
"    r@s@t@u@v@w@[.x@y@z@A@B@B@C@B@B@B@B@B@B@x@x@x@B@B@B@B@B@x@D@E@F@G@H@I@J@    ",
"    K@L@M@N@O@w@P@Q@Q@Q@Q@Q@Q@Q@Q@Q@Q@Q@Q@Q@Q@Q@Q@Q@Q@Q@Q@Q@Q@R@S@T@U@V@W@X@    ",
"          Y@Z@0+`@ #.#.#.#.#.#+#.#.#.#.#.#.#.#.#.#.#.#.#.#.#.#@###$#%#          ",
"          &#*#=#-#;#>#,#'#)#!#~#{#]#,#,#,#,#'#)#^#/#,#,#,#(#^#_#:#<#[#          ",
"          }#|#1#2#3#4#5#6#7#8#9#0#a#b#b#b#5#c#d#e#f#5#b#5#f#g#h#i#j#k#          ",
"                                                                                ",
"                                                                                "};
