/* XPM */
static char * jump_3_xpm[] = {
"40 40 382 2",
"  	c None",
". 	c #A8AC60",
"+ 	c #A9AA5A",
"@ 	c #AAA84C",
"# 	c #AAA850",
"$ 	c #AAAB5D",
"% 	c #AAAB5F",
"& 	c #AAAC5F",
"* 	c #AAAA5A",
"= 	c #A9A74B",
"- 	c #A8A544",
"; 	c #D1DA46",
"> 	c #D4DA42",
", 	c #DBDB39",
"' 	c #DDDA3A",
") 	c #DAD942",
"! 	c #DAD844",
"~ 	c #DAD843",
"{ 	c #D9D843",
"] 	c #D8D842",
"^ 	c #DBDA44",
"/ 	c #DADA42",
"( 	c #D4D939",
"_ 	c #D2D834",
": 	c #E9F22A",
"< 	c #F0F823",
"[ 	c #F9FA1F",
"} 	c #FBF81C",
"| 	c #F8F619",
"1 	c #F7F518",
"2 	c #F8F519",
"3 	c #F7F516",
"4 	c #F6F515",
"5 	c #F8F71B",
"6 	c #F6F820",
"7 	c #EDF722",
"8 	c #E3F029",
"9 	c #A1A362",
"0 	c #B6B359",
"a 	c #D4CF45",
"b 	c #E6EB30",
"c 	c #F0F820",
"d 	c #F6F817",
"e 	c #F8F712",
"f 	c #F7F610",
"g 	c #F7F60F",
"h 	c #F8F611",
"i 	c #F4F716",
"j 	c #E7F51D",
"k 	c #D6E42F",
"l 	c #C2C545",
"m 	c #C1C259",
"n 	c #C4C862",
"o 	c #C7C751",
"p 	c #D2CF49",
"q 	c #E3DE39",
"r 	c #EDED2A",
"s 	c #F3F61D",
"t 	c #F7F513",
"u 	c #F5F616",
"v 	c #F3F618",
"w 	c #F5F514",
"x 	c #F3F512",
"y 	c #ECF41A",
"z 	c #E2E928",
"A 	c #D7D938",
"B 	c #D1D848",
"C 	c #CFDA50",
"D 	c #EDEB30",
"E 	c #F2EF2A",
"F 	c #F6F21F",
"G 	c #F8F31A",
"H 	c #F9F417",
"I 	c #FAF517",
"J 	c #F9F517",
"K 	c #F9F617",
"L 	c #F5F61C",
"M 	c #F0F71F",
"N 	c #F6F513",
"O 	c #F6F618",
"P 	c #F5F419",
"Q 	c #F1F11B",
"R 	c #E5F124",
"S 	c #DCEF2A",
"T 	c #807E40",
"U 	c #8B8745",
"V 	c #BEBA3F",
"W 	c #EBE92C",
"X 	c #F8F51E",
"Y 	c #FAF614",
"Z 	c #FBF413",
"` 	c #FAF316",
" .	c #FAF416",
"..	c #FAF417",
"+.	c #F8F51A",
"@.	c #F7F618",
"#.	c #F3F71D",
"$.	c #F4F719",
"%.	c #F5F611",
"&.	c #EAF615",
"*.	c #D7EA25",
"=.	c #B4BB3E",
"-.	c #8D8745",
";.	c #807E3F",
">.	c #A2A031",
",.	c #A9A739",
"'.	c #B1AC3E",
").	c #C8C33B",
"!.	c #EAE72C",
"~.	c #F8F41D",
"{.	c #FAF514",
"].	c #FAF414",
"^.	c #F7F61A",
"/.	c #F2F71F",
"(.	c #F2F71B",
"_.	c #F4F513",
":.	c #ECF516",
"<.	c #DCE826",
"[.	c #C2C43A",
"}.	c #B0AD40",
"|.	c #A8A73F",
"1.	c #9B9A3D",
"2.	c #94920B",
"3.	c #BFBE1D",
"4.	c #E4E128",
"5.	c #EAE528",
"6.	c #EDE725",
"7.	c #F6EF1E",
"8.	c #FAF418",
"9.	c #FAF516",
"0.	c #F8F518",
"a.	c #F6F617",
"b.	c #F6F512",
"c.	c #EFF118",
"d.	c #E9E822",
"e.	c #E8E733",
"f.	c #E2E240",
"g.	c #B4B23B",
"h.	c #736E32",
"i.	c #C5C415",
"j.	c #F6F41E",
"k.	c #FDF81A",
"l.	c #FAF315",
"m.	c #F9F618",
"n.	c #F6F518",
"o.	c #F7F515",
"p.	c #F7F614",
"q.	c #F5F717",
"r.	c #FAFC29",
"s.	c #F6F536",
"t.	c #BAB831",
"u.	c #74712A",
"v.	c #C5C316",
"w.	c #F5F31F",
"x.	c #FBF61C",
"y.	c #F8F117",
"z.	c #F9F217",
"A.	c #FAF317",
"B.	c #F8F51B",
"C.	c #F6F61A",
"D.	c #F1F71F",
"E.	c #F7FB22",
"F.	c #F5F524",
"G.	c #BBB920",
"H.	c #76741D",
"I.	c #F9F216",
"J.	c #F9F519",
"K.	c #F4F419",
"L.	c #F9F91C",
"M.	c #BCBA1B",
"N.	c #777519",
"O.	c #C5C416",
"P.	c #F6F31F",
"Q.	c #F8F217",
"R.	c #F9F416",
"S.	c #F7F213",
"T.	c #FBF818",
"U.	c #F6F41F",
"V.	c #BBB921",
"W.	c #767321",
"X.	c #C6C415",
"Y.	c #F7F51E",
"Z.	c #FCF71B",
"`.	c #FAF216",
" +	c #F8F216",
".+	c #FCF81A",
"++	c #F6F421",
"@+	c #BAB829",
"#+	c #746F2E",
"$+	c #F7F41E",
"%+	c #F9F317",
"&+	c #FDF81B",
"*+	c #F6F420",
"=+	c #BBB827",
"-+	c #FDF91B",
";+	c #F7F41F",
">+	c #76731F",
",+	c #736F2D",
"'+	c #FDF91A",
")+	c #94920A",
"!+	c #F8F315",
"~+	c #FCF819",
"{+	c #F6F320",
"]+	c #BDBC23",
"^+	c #7E7D25",
"/+	c #FAF718",
"(+	c #F5F221",
"_+	c #BFBD2A",
":+	c #84832E",
"<+	c #949310",
"[+	c #C5C418",
"}+	c #F7F215",
"|+	c #FBF71A",
"1+	c #F5F320",
"2+	c #BCBA25",
"3+	c #797827",
"4+	c #949412",
"5+	c #C5C419",
"6+	c #F9F318",
"7+	c #F9F418",
"8+	c #FCF719",
"9+	c #F5F31E",
"0+	c #B8B61E",
"a+	c #706E1D",
"b+	c #949413",
"c+	c #F9F316",
"d+	c #F9F515",
"e+	c #F2EF1A",
"f+	c #B6B51B",
"g+	c #70711C",
"h+	c #8F8F22",
"i+	c #C3C221",
"j+	c #F5F21F",
"k+	c #FAF619",
"l+	c #F8F215",
"m+	c #F8F317",
"n+	c #F3F419",
"o+	c #F7F71A",
"p+	c #F1EF1C",
"q+	c #B6B51C",
"r+	c #70701C",
"s+	c #88882F",
"t+	c #C0BF2C",
"u+	c #F4F225",
"v+	c #FAF61B",
"w+	c #F9F215",
"x+	c #F9F518",
"y+	c #F7F319",
"z+	c #F1F61F",
"A+	c #F6FA21",
"B+	c #F3F120",
"C+	c #B7B51E",
"D+	c #6F6D1D",
"E+	c #868632",
"F+	c #C0BF35",
"G+	c #F6F537",
"H+	c #FDF928",
"I+	c #F9F315",
"J+	c #F6F51C",
"K+	c #FAF91F",
"L+	c #F3F220",
"M+	c #B7B61E",
"N+	c #878731",
"O+	c #B9B938",
"P+	c #E1E13B",
"Q+	c #E8E42A",
"R+	c #EBE516",
"S+	c #F4EE17",
"T+	c #F8F318",
"U+	c #F8F416",
"V+	c #F9F516",
"W+	c #F0F019",
"X+	c #E7E318",
"Y+	c #EDE81B",
"Z+	c #F2EF20",
"`+	c #B8B81E",
" @	c #71731C",
".@	c #92932D",
"+@	c #9A9B29",
"@@	c #A5A41C",
"#@	c #C2BF13",
"$@	c #E9E71C",
"%@	c #F7F51B",
"&@	c #F7F514",
"*@	c #F8F515",
"=@	c #F7F414",
"-@	c #F6F212",
";@	c #F8F311",
">@	c #F9F413",
",@	c #EFF619",
"'@	c #D8E41C",
")@	c #B1B41A",
"!@	c #ADA81A",
"~@	c #5A5D1A",
"{@	c #747411",
"]@	c #B9B81E",
"^@	c #EEED2F",
"/@	c #FBFA2B",
"(@	c #FBF91B",
"_@	c #FAF617",
":@	c #F9F218",
"<@	c #F7F212",
"[@	c #F7F210",
"}@	c #FAF512",
"|@	c #FCF917",
"1@	c #F6FB1C",
"2@	c #E1EB1E",
"3@	c #A4AA1C",
"4@	c #F2F23E",
"5@	c #F5F435",
"6@	c #F8F521",
"7@	c #F8F41A",
"8@	c #F8F319",
"9@	c #F9F415",
"0@	c #F9F513",
"a@	c #F8F61F",
"b@	c #F6F520",
"c@	c #F3F21F",
"d@	c #B7B731",
"e@	c #BEBC28",
"f@	c #CDCA19",
"g@	c #E3E51B",
"h@	c #F3F51D",
"i@	c #F6F517",
"j@	c #F7F413",
"k@	c #F6F213",
"l@	c #F7F313",
"m@	c #F8F618",
"n@	c #F4F61C",
"o@	c #E5E820",
"p@	c #D1D223",
"q@	c #C3C220",
"r@	c #BCBA1D",
"s@	c #706D1E",
"t@	c #807B17",
"u@	c #A5A30E",
"v@	c #D9DE1B",
"w@	c #F1F71E",
"x@	c #F6F716",
"y@	c #F7F613",
"z@	c #F7F312",
"A@	c #F7F512",
"B@	c #F7F615",
"C@	c #F5F81D",
"D@	c #EFF821",
"E@	c #D9E224",
"F@	c #AEB125",
"G@	c #8A8A1F",
"H@	c #77751A",
"I@	c #ECEC19",
"J@	c #F6F51A",
"K@	c #F6F41A",
"L@	c #F5F31D",
"M@	c #F7F417",
"N@	c #F7F517",
"O@	c #F4F41E",
"P@	c #F1F520",
"Q@	c #EEF721",
"R@	c #ECF723",
"S@	c #E4EF24",
"T@	c #CFCD1A",
"U@	c #CECC1A",
"V@	c #CECC1B",
"W@	c #CDCC1D",
"X@	c #CBCB1F",
"Y@	c #CECC1D",
"Z@	c #CFCC23",
"`@	c #CDCB23",
" #	c #CBCB21",
".#	c #C7CC20",
"+#	c #C5CD21",
"@#	c #C5CE21",
"##	c #797B1D",
"$#	c #797B1E",
"%#	c #7C7C23",
"&#	c #827F2D",
"*#	c #807E2B",
"=#	c #7A7C20",
"-#	c #7C7D1D",
";#	c #7D7E1E",
">#	c #797D1E",
",#	c #767C1F",
"                                                                                ",
"                                                                                ",
"                          . + @ # $ % % % % % & * = -                           ",
"                          ; > , ' ) ! ~ ~ { ] ^ / ( _                           ",
"                          : < [ } | 1 2 2 3 4 5 6 7 8                           ",
"                    9 0 a b c d e f f f f g g h i j k l m n                     ",
"                    o p q r s 4 t t t t t u v w x y z A B C                     ",
"                    D E F G H I J K J I K L M v N O P Q R S                     ",
"              T U V W X Y Z `  ...........+.L @.@.#.$.%.&.*.=.-.;.              ",
"            >.,.'.).!.~.{.].` ` ` ` ` ` `  .I J ^./.(._.:.<.[.}.|.1.            ",
"          2.3.4.5.6.7.8.9. .` ` ` ` ` ` `  .I I 0.^.a.b.x c.d.e.f.g.h.          ",
"          2.i.j.k.l.` ..I  .` ` `  . . . ...I I J m.0.n.o.p.q.r.s.t.u.          ",
"          2.v.w.x.y.z.A.I  .` `  .I I I I I I I I m.B.j.B.C.D.E.F.G.H.          ",
"          2.v.w.x.y.I...I I ...... .I I I I I I I I J.B.J.0.K.L.j.M.N.          ",
"          2.O.P.x.Q.`  ...I I I  .`  .I I I I I I I I I I R.S.T.U.V.W.          ",
"          2.X.Y.Z.z.`.`  ...I  .` ` ` ` ` `  ...I I I I I H  +.+++@+#+          ",
"          2.X.$+Z.z.`.` ` ..I ` ` ` ` ` ` ` ` ..I I I I I ..%+&+*+=+u.          ",
"          2.v.w.x.Q.`.` ` ..I ` ` ` ` ` ` ` ` ..I I I I I I H -+;+G.>+          ",
"          2.v.w.x.Q.`  ...I I ` ` ` ` ` ` ` ` ..I I I I I ..%+&+*+=+u.          ",
"          2.v.w.x.Q.`  .I I I  .` ` ` ` ` `  ...I I I I I ..%+k.++@+,+          ",
"          2.v.w.x.Q.`  .I I I I I I I I I I I I I  ...I I I R.'+;+V.W.          ",
"          )+v.w.x.Q.`  .I I I I I I I I I I I I I ....I I R.!+~+{+]+^+          ",
"          2.v.w.x.Q.`  .I I I I I I I I I I I I I I I I I R.S./+(+_+:+          ",
"          <+[+w.x.Q.`  .I I I I I I I I I I I I I ....I ..%+}+|+1+2+3+          ",
"          4+5+w.x.Q.`  .I I I I I I I I I I I I I 6+7+....%+ +8+9+0+a+          ",
"          b+5+w.x.Q.`  .R.I I  . .R. .` ` ..I I I 6+6+6+A.c+S.d+e+f+g+          ",
"          h+i+j+k+l+c+ .J I I  .R.R.R.`  ...I I 7+6+6+6+A.m+n+o+p+q+r+          ",
"          s+t+u+v+S.w+..x+I I R.R.R.R.R.I I I 8.6+6+6+6+%+y+z+A+B+C+D+          ",
"          E+F+G+H+I+w+%+J I I R.R.R.R.R.I I I I 8.8.7+6+7+2 J+K+L+M+r+          ",
"          N+O+P+Q+R+S+T+U+V+I H R.R.R.R...I I V+R.R.R.R.n.W+X+Y+Z+`+ @          ",
"            .@+@@@#@$@%@&@*@H %+%+` c+%+6+7+J =@-@-@;@>@,@'@)@!@                ",
"              ~@{@]@^@/@(@_@%+6+6+A.z.z.:@6+7+!+<@[@}@|@1@2@3@                  ",
"                    4@5@6@7@8@6+%+%+Q.y.z.%+%+H 9@0@m.a@b@c@                    ",
"                    d@e@f@g@h@i@j@j@S.k@l@j@j@d+m@n@o@p@q@r@                    ",
"                    s@t@u@v@w@x@y@&@j@z@A@y@B@@.C@D@E@F@G@H@                    ",
"                          I@J@1 K@L@K@M@N@K@O@P@Q@R@S@                          ",
"                          T@U@V@W@X@W@Y@Z@`@ #.#+#@#@#                          ",
"                          ######$#$###%#&#*#=#-#;#>#,#                          ",
"                                                                                ",
"                                                                                "};
