/* XPM */
static char * jump_2_xpm[] = {
"40 40 507 2",
"  	c None",
". 	c #50502E",
"+ 	c #7E7C47",
"@ 	c #B8B469",
"# 	c #C0BD6D",
"$ 	c #B0B063",
"% 	c #BEBB6C",
"& 	c #C3C070",
"* 	c #B3B364",
"= 	c #B8BA5F",
"- 	c #C4C65F",
"; 	c #B8B95F",
"> 	c #B3B45F",
", 	c #C2C55F",
"' 	c #BEC05F",
") 	c #B0B25F",
"! 	c #BDC05F",
"~ 	c #C8C35F",
"{ 	c #C5AC60",
"] 	c #BAA45F",
"^ 	c #B0AE61",
"/ 	c #C0BE6D",
"( 	c #68661A",
"_ 	c #969431",
": 	c #D5D14B",
"< 	c #E5E24F",
"[ 	c #DEDD48",
"} 	c #E2DE4D",
"| 	c #E4DF4F",
"1 	c #E0DE48",
"2 	c #E0DF46",
"3 	c #E1E147",
"4 	c #DFDE46",
"5 	c #E0E046",
"6 	c #E3E047",
"7 	c #E6DC46",
"8 	c #E4DB45",
"9 	c #E0DE47",
"0 	c #E5E34F",
"a 	c #D4D14B",
"b 	c #969430",
"c 	c #686617",
"d 	c #9F9E28",
"e 	c #B5B516",
"f 	c #E5E71F",
"g 	c #F6F922",
"h 	c #F5F61F",
"i 	c #F6F31C",
"j 	c #F9F41B",
"k 	c #FBF81E",
"l 	c #F9F621",
"m 	c #F5F324",
"n 	c #F9F622",
"o 	c #FBF821",
"p 	c #F6F323",
"q 	c #F7F523",
"r 	c #FAF820",
"s 	c #FDFA1F",
"t 	c #FCFA20",
"u 	c #FDFA20",
"v 	c #E9E720",
"w 	c #B5B221",
"x 	c #A19F39",
"y 	c #42421E",
"z 	c #888A44",
"A 	c #BFC25A",
"B 	c #CBCB41",
"C 	c #D3D620",
"D 	c #E1ED1C",
"E 	c #E6F319",
"F 	c #E7EF12",
"G 	c #F0F010",
"H 	c #F6F210",
"I 	c #F8F412",
"J 	c #F7F314",
"K 	c #F6F215",
"L 	c #F8F317",
"M 	c #F9F417",
"N 	c #F6F216",
"O 	c #F7F316",
"P 	c #F7F317",
"Q 	c #F7F413",
"R 	c #F9F415",
"S 	c #FAF417",
"T 	c #F9F613",
"U 	c #EEEC1F",
"V 	c #D3CE37",
"W 	c #CECD5B",
"X 	c #D4DA76",
"Y 	c #AFB269",
"Z 	c #8A8555",
"` 	c #464513",
" .	c #989836",
"..	c #D5D64B",
"+.	c #E2E53C",
"@.	c #E4EB23",
"#.	c #E7F21B",
"$.	c #E8F216",
"%.	c #EAEF12",
"&.	c #F1F012",
"*.	c #F6F113",
"=.	c #F7F115",
"-.	c #F7F116",
";.	c #F7F114",
">.	c #F8F116",
",.	c #F8F314",
"'.	c #F3F01E",
").	c #E8E433",
"!.	c #E5E450",
"~.	c #E1E362",
"{.	c #C0BD56",
"].	c #A29646",
"^.	c #6A7719",
"/.	c #B2B51D",
"(.	c #EEEE28",
"_.	c #F3F726",
":.	c #EEF51F",
"<.	c #F2F517",
"[.	c #F5F515",
"}.	c #F6F518",
"|.	c #F8F117",
"1.	c #F6F112",
"2.	c #F9F217",
"3.	c #F5F219",
"4.	c #F4F325",
"5.	c #F0EE2F",
"6.	c #D8CC2F",
"7.	c #C4AF31",
"8.	c #5D7544",
"9.	c #A0A168",
"0.	c #B8C169",
"a.	c #AACA40",
"b.	c #CBDE23",
"c.	c #F3F417",
"d.	c #F7F816",
"e.	c #F2F71A",
"f.	c #F1F71C",
"g.	c #F3F61D",
"h.	c #F7F51D",
"i.	c #F8F31A",
"j.	c #F9F218",
"k.	c #F8F416",
"l.	c #F7F510",
"m.	c #F7F60D",
"n.	c #F5F116",
"o.	c #EBD72A",
"p.	c #DEC046",
"q.	c #CDBD6A",
"r.	c #AAA66E",
"s.	c #898459",
"t.	c #6D7E3E",
"u.	c #ABAF5C",
"v.	c #CED663",
"w.	c #D1ED46",
"x.	c #E0F529",
"y.	c #F2F619",
"z.	c #F6F512",
"A.	c #F5F616",
"B.	c #F1F71E",
"C.	c #F2F620",
"D.	c #F6F41E",
"E.	c #F7F21A",
"F.	c #F6F510",
"G.	c #F6F217",
"H.	c #F5E22C",
"I.	c #EED449",
"J.	c #DACF64",
"K.	c #BFBC62",
"L.	c #A5A150",
"M.	c #898E2A",
"N.	c #C2C93A",
"O.	c #E6ED3D",
"P.	c #EDF22C",
"Q.	c #EFF520",
"R.	c #F0F71F",
"S.	c #F5F61A",
"T.	c #F8F617",
"U.	c #F7F519",
"V.	c #F8F419",
"W.	c #F8F218",
"X.	c #F7F414",
"Y.	c #F6F413",
"Z.	c #F7F11D",
"`.	c #F7EE2D",
" +	c #F2EE3D",
".+	c #E3E03B",
"++	c #D2CD30",
"@+	c #8E8E1C",
"#+	c #C9D21E",
"$+	c #EFF61D",
"%+	c #F6F316",
"&+	c #F5F317",
"*+	c #F2F61C",
"=+	c #F6F71A",
"-+	c #F9F518",
";+	c #F9F317",
">+	c #F8F217",
",+	c #F9F316",
"'+	c #F8F413",
")+	c #F9F513",
"!+	c #FBF714",
"~+	c #FBF817",
"{+	c #EBE915",
"]+	c #D5D30F",
"^+	c #87881C",
"/+	c #C8CF20",
"(+	c #EEF520",
"_+	c #F4F316",
":+	c #F5F311",
"<+	c #F6F513",
"[+	c #F8F616",
"}+	c #F9F418",
"|+	c #F9F318",
"1+	c #FAF317",
"2+	c #FAF316",
"3+	c #FAF315",
"4+	c #FAF413",
"5+	c #FBF613",
"6+	c #FAF517",
"7+	c #E3E115",
"8+	c #C2C40F",
"9+	c #8E8E1E",
"0+	c #CDCF20",
"a+	c #F2F41F",
"b+	c #F5F315",
"c+	c #F6F211",
"d+	c #F8F415",
"e+	c #F9F517",
"f+	c #FAF314",
"g+	c #FBF516",
"h+	c #FCF81B",
"i+	c #E5E51D",
"j+	c #C2C81D",
"k+	c #91901E",
"l+	c #CFCF20",
"m+	c #F4F21E",
"n+	c #F7F214",
"o+	c #FBF518",
"p+	c #FCF91D",
"q+	c #E9E91F",
"r+	c #CBD120",
"s+	c #8A881C",
"t+	c #CECD1F",
"u+	c #F5F21F",
"v+	c #F8F219",
"w+	c #F8F216",
"x+	c #FAF418",
"y+	c #FBF417",
"z+	c #FBF619",
"A+	c #EBE917",
"B+	c #D6D513",
"C+	c #8C8B1D",
"D+	c #D0CF1F",
"E+	c #F7F41F",
"F+	c #F9F31A",
"G+	c #F9F416",
"H+	c #FAF416",
"I+	c #FBF515",
"J+	c #FBF719",
"K+	c #EBE51A",
"L+	c #D4CB18",
"M+	c #93921E",
"N+	c #D4D320",
"O+	c #F9F61F",
"P+	c #F9F319",
"Q+	c #FAF412",
"R+	c #FCF714",
"S+	c #FDFA1C",
"T+	c #E9E220",
"U+	c #CCBD21",
"V+	c #F7F41E",
"W+	c #F7F215",
"X+	c #FAF516",
"Y+	c #FBF71A",
"Z+	c #FAF318",
"`+	c #FAF519",
" @	c #EBE714",
".@	c #D5D20A",
"+@	c #F7F219",
"@@	c #FAF419",
"#@	c #E7E617",
"$@	c #C6C70B",
"%@	c #8F8E1D",
"&@	c #D0CF1D",
"*@	c #FCF81C",
"=@	c #E8E616",
"-@	c #CBCA0A",
";@	c #89871D",
">@	c #CFCE1B",
",@	c #F7F419",
"'@	c #FAF518",
")@	c #EBE814",
"!@	c #D7D50D",
"~@	c #8D8E28",
"{@	c #CCD024",
"]@	c #F2F51D",
"^@	c #E8E619",
"/@	c #CFD21C",
"(@	c #929430",
"_@	c #CCD229",
":@	c #EFF51F",
"<@	c #F4F315",
"[@	c #F7F213",
"}@	c #E6E51B",
"|@	c #CBD020",
"1@	c #939330",
"2@	c #CFD029",
"3@	c #F3F31F",
"4@	c #F5F215",
"5@	c #F9F618",
"6@	c #F9F516",
"7@	c #EBE715",
"8@	c #D6D512",
"9@	c #8E8E29",
"0@	c #CCCF25",
"a@	c #F6F212",
"b@	c #F8F417",
"c@	c #F8F516",
"d@	c #F8F514",
"e@	c #F6F519",
"f@	c #F7F71C",
"g@	c #FAF81B",
"h@	c #EBE91A",
"i@	c #D3D418",
"j@	c #86861D",
"k@	c #C7CF21",
"l@	c #F3F315",
"m@	c #F4F210",
"n@	c #F6F411",
"o@	c #F8F414",
"p@	c #F5F514",
"q@	c #F0F61C",
"r@	c #F1F820",
"s@	c #FAFA1F",
"t@	c #E8E820",
"u@	c #C8CE21",
"v@	c #84851A",
"w@	c #C7CF20",
"x@	c #EBF520",
"y@	c #EAF115",
"z@	c #EEF00E",
"A@	c #F8F313",
"B@	c #F8F515",
"C@	c #F5F618",
"D@	c #E9F31A",
"E@	c #EBF219",
"F@	c #F7F61B",
"G@	c #E5E31A",
"H@	c #C1C618",
"I@	c #85851B",
"J@	c #E4EF1E",
"K@	c #D6E011",
"L@	c #E0E40F",
"M@	c #F5F214",
"N@	c #F8F517",
"O@	c #F7F61A",
"P@	c #F5F81E",
"Q@	c #EFF721",
"R@	c #E2ED1B",
"S@	c #DAE215",
"T@	c #DDDB14",
"U@	c #D2CE10",
"V@	c #BCBE0A",
"W@	c #A6A908",
"X@	c #CACA11",
"Y@	c #F6F41C",
"Z@	c #FDFB1F",
"`@	c #FBF81D",
" #	c #F2F71F",
".#	c #F4F921",
"+#	c #F4F621",
"@#	c #DDE321",
"##	c #BBC31D",
"$#	c #979810",
"%#	c #8C8806",
"&#	c #7A6A04",
"*#	c #B6B20F",
"=#	c #EBEE19",
"-#	c #F3F71B",
";#	c #F3F51A",
">#	c #F7F417",
",#	c #F6F418",
"'#	c #ECF41B",
")#	c #ECF51C",
"!#	c #EBEF1B",
"~#	c #CED21D",
"{#	c #A5AA1C",
"]#	c #6A6D0F",
"^#	c #704907",
"/#	c #A8A30A",
"(#	c #DAE30F",
"_#	c #DFEA0F",
":#	c #E3E911",
"<#	c #F3F215",
"[#	c #FBF618",
"}#	c #F4F216",
"|#	c #E2E912",
"1#	c #DDE90F",
"2#	c #DBE510",
"3#	c #B6BC13",
"4#	c #939514",
"5#	c #BEC60A",
"6#	c #C9CB10",
"7#	c #EFED19",
"8#	c #FDF91B",
"9#	c #FAF617",
"0#	c #F8F513",
"a#	c #F7F513",
"b#	c #FAF513",
"c#	c #FAF415",
"d#	c #FEFA1E",
"e#	c #F0EE1A",
"f#	c #BFC60A",
"g#	c #929711",
"h#	c #6E6D12",
"i#	c #8A8808",
"j#	c #AFAD10",
"k#	c #EAE81B",
"l#	c #FBFA1C",
"m#	c #F5F516",
"n#	c #F5F512",
"o#	c #F6F50F",
"p#	c #F7F50F",
"q#	c #F8F510",
"r#	c #FAF510",
"s#	c #FBF510",
"t#	c #FAF511",
"u#	c #F9F413",
"v#	c #F7F512",
"w#	c #FBF91D",
"x#	c #FEFC1E",
"y#	c #B1AE0F",
"z#	c #8F8B08",
"A#	c #727104",
"B#	c #A2A10C",
"C#	c #E5E317",
"D#	c #E7EE12",
"E#	c #F0F215",
"F#	c #F6F511",
"G#	c #FAF414",
"H#	c #F6F315",
"I#	c #F8F615",
"J#	c #E4E312",
"K#	c #A9A708",
"L#	c #827E03",
"M#	c #9D9C0A",
"N#	c #E2E014",
"O#	c #DADC0E",
"P#	c #C3CA15",
"Q#	c #E2E335",
"R#	c #FAF73D",
"S#	c #FAF827",
"T#	c #F9F822",
"U#	c #FAF92B",
"V#	c #FBF823",
"W#	c #FCF81F",
"X#	c #FCF82B",
"Y#	c #FBF829",
"Z#	c #FAF819",
"`#	c #FAF81F",
" $	c #FBF82B",
".$	c #ECE928",
"+$	c #D5D219",
"@$	c #CAC80F",
"#$	c #BEBC09",
"$$	c #9D9B04",
"%$	c #8D8D1B",
"&$	c #D0CD49",
"*$	c #F5F152",
"=$	c #F7F534",
"-$	c #F7F62D",
";$	c #F7F63A",
">$	c #F7F62E",
",$	c #F7F529",
"'$	c #F7F639",
")$	c #F7F635",
"!$	c #F7F628",
"~$	c #F6F639",
"{$	c #D6D534",
"]$	c #999820",
"^$	c #74720F",
"/$	c #646204",
"($	c #BFBB3B",
"_$	c #D2CF3B",
":$	c #D5D525",
"<$	c #D6D720",
"[$	c #D6D829",
"}$	c #D6D721",
"|$	c #D6D71C",
"1$	c #D6D828",
"2$	c #D6D725",
"3$	c #D6D718",
"4$	c #D6D714",
"5$	c #D7D81C",
"6$	c #D5D728",
"7$	c #B3B424",
"8$	c #707015",
"9$	c #44420A",
"0$	c #AEAB0E",
"a$	c #B1AF0D",
"b$	c #B6B80A",
"c$	c #B8BB09",
"d$	c #B8BB0A",
"e$	c #B8BB08",
"f$	c #B7BA0A",
"g$	c #969906",
"h$	c #595902",
"                                                                                ",
"                                                                                ",
"                . + @ # $ % & * = - ; > , ' ) ! ~ { ] ^ / @ + .                 ",
"                ( _ : < [ } | 1 2 3 2 4 3 5 4 5 6 7 8 9 0 a b c                 ",
"                d e f g h i j k l m n o p q o q p r s t u v w x                 ",
"          y z A B C D E F G H I J K L M N O M P K Q R S T U V W X Y Z           ",
"          `  ...+.@.#.$.%.&.*.*.*.*.=.-.;.*.;.*.*.*.=.>.,.'.).!.~.{.].          ",
"          ^./.(._.:.<.[.}.P |.>.>.|.|.|.|.;.1.;.>.|.|.|.2.L 3.4.5.6.7.          ",
"    8.9.0.a.b.c.d.e.f.g.h.i.|.|.|.|.|.|.|.>.=.>.|.|.|.|.j.k.l.m.n.o.p.q.r.s.    ",
"    t.u.v.w.x.y.z.A.B.C.D.E.|.|.|.|.|.|.|.|.|.|.|.|.|.|.j.L Q F.G.H.I.J.K.L.    ",
"    M.N.O.P.Q.R.S.T.U.U.V.W.|.|.|.|.|.|.|.|.|.|.|.|.|.2.2.2.L X.Y.Z.`. +.+++    ",
"    @+#+$+%+&+*+=+-+M M ;+;+>+>+>+>+>+>+>+>+>+>+|.>+2.2.2.2.;+,+'+)+!+~+{+]+    ",
"    ^+/+(+_+:+<+[+-+}+|+|+|+|+|+|+|+|+|+|+|+|+2.2.|+|+|+|+;+1+2+3+4+5+6+7+8+    ",
"    9+0+a+b+c+d+e+-+}+|+M M M M M M |+|+}+}+|+;+1+1+1+1+S S 2+2+2+f+g+h+i+j+    ",
"    k+l+m+N n+;+-+-+}+;+M M M M M M ;+;+6+S ;+1+2+2+2+2+S 6+2+2+2+2+o+p+q+r+    ",
"    s+t+u+v+w+|+x+6+M M M M M M M M ;+1+6+S 2+2+2+2+2+2+S 6+2+2+2+2+y+z+A+B+    ",
"    C+D+E+F+>+|+M M M M M M M M M M G+H+6+S H+2+2+2+2+H+S 6+1+1+2+f+I+J+K+L+    ",
"    M+N+O+P+>+|+M G+G+G+G+G+G+G+G+G+G+G+6+6+M G+G+G+G+G+6+6+|+;+2+Q+R+S+T+U+    ",
"    C+D+V+P W+;+M G+G+G+X+G+G+G+G+G+G+G+M M M G+G+G+G+G+6+6+1+1+2+3+g+Y+K+L+    ",
"    s+t+m+N n+;+M G+G+G+6+G+G+G+G+G+G+G+M M M G+G+G+G+G+M S H+2+2+2.Z+`+ @.@    ",
"    k+l+u++@w+|+M G+G+G+6+G+G+G+G+G+G+M M M G+G+G+G+G+G+M M S H+G+,+@@p+#@$@    ",
"    %@&@i v+>+|+M G+G+G+6+G+G+G+G+G+M M M M ,+,+,+G+G+G+M M M M G+,+@@*@=@-@    ",
"    ;@>@,@L >+|+M G+G+G+6+G+G+G+G+G+M M M ;+>+>+>+,+G+G+M M M M G+;+1+'@)@!@    ",
"    ~@{@]@%+W+|+M G+G+G+6+G+G+G+G+G+M M M ;+;+M M L ,+G+M M M e+e+M H+M ^@/@    ",
"    (@_@:@<@[@;+}+M G+G+6+G+G+G+G+G+M M M M G+e+-+L >+,+M M M e+e+e+H+M }@|@    ",
"    1@2@3@4@[@;+}+M G+G+6+G+G+G+G+G+M M M M G+M M G+,+>+M -+5@e+6@G+6@e+7@8@    ",
"    9@0@a+b+a@d+G+M G+M 6+G+G+G+G+G+G+M M M G+M M G+,+>+;+b@c@d@d@e@f@g@h@i@    ",
"    j@k@(+l@m@n@o@G+M M 6+G+G+G+G+G+G+G+6+6+G+M M G+G+M >+w+Q z.p@q@r@s@t@u@    ",
"    v@w@x@y@z@m@A@G+G+M M G+G+G+G+G+G+G+6+6+G+M M G+G+M ;+,+B@C@q@D@E@F@G@H@    ",
"    I@w@J@K@L@M@6+'@M G+M G+G+G+G+G+G+G+6+e+G+M M G+G+M G+N@O@P@Q@R@S@T@U@V@    ",
"          W@X@Y@Z@`@-+G+G+G+H+S M M M M -+e+M ;+|+M M G+G+U. #.#+#@###$#%#      ",
"          &#*#=#-#;#>#G+G+2+2+6+6+M M M 5@-+M |+|+M M G+H+,#'#)#!#~#{#]#        ",
"          ^#/#(#_#:#<#6+G+G+H+X+e+G+G+M e+e+M ;+|+M e+'@[#}#|#1#2#3#4#          ",
"                5#6#7#8#9#d@'+0#a#a#a#0#b#b#b#c#G+o@5@`@d#e#6#f#  g#h#          ",
"                i#j#k#l#m#n#l.F.F.o#p#q#r#s#t#u#o@v#T.w#x#h@y#z#                ",
"                A#B#C#c.D#E#T.v#F.F#q#t#G#c#R 0#a#d+O H#I#J#K#L#                ",
"                  M#N#O#P#Q#R#S#T#U#V#W#X#Y#`@Z#`# $.$+$@$#$$$                  ",
"                        %$&$*$=$-$;$>$,$'$)$q h.!$~${$]$^$/$                    ",
"                          ($_$:$<$[$}$|$1$2$3$4$5$6$7$8$9$                      ",
"                          0$a$b$c$d$c$c$d$c$c$e$c$f$g$h$                        "};
