/* XPM */
static char * mid_up_xpm[] = {
"20 20 209 2",
"  	c None",
". 	c #9F9E1C",
"+ 	c #DEDB22",
"@ 	c #D6D829",
"# 	c #DEDD29",
"$ 	c #DDDD2D",
"% 	c #D8DA2C",
"& 	c #DADB2B",
"* 	c #DDDF2F",
"= 	c #E3E32F",
"- 	c #DDDE2E",
"; 	c #D7DA2E",
"> 	c #DEDA40",
", 	c #B9B54E",
"' 	c #BBC919",
") 	c #ABA025",
"! 	c #A5A321",
"~ 	c #CFCB2B",
"{ 	c #F3EE32",
"] 	c #F7F435",
"^ 	c #F5F133",
"/ 	c #F4F234",
"( 	c #F6F435",
"_ 	c #F6F334",
": 	c #F8F836",
"< 	c #F7F736",
"[ 	c #F5F336",
"} 	c #F6F537",
"| 	c #F5F244",
"1 	c #CCCB56",
"2 	c #C7CD1F",
"3 	c #EFEC26",
"4 	c #F1F122",
"5 	c #F8F317",
"6 	c #FBF511",
"7 	c #F9F411",
"8 	c #EDEF11",
"9 	c #F1F113",
"0 	c #FAF511",
"a 	c #F9F512",
"b 	c #F8F515",
"c 	c #F3F016",
"d 	c #EAEB16",
"e 	c #F3F41D",
"f 	c #D7D63C",
"g 	c #666914",
"h 	c #CCCC2D",
"i 	c #ECF328",
"j 	c #F6F51D",
"k 	c #F9F417",
"l 	c #F9F414",
"m 	c #F9F415",
"n 	c #EEEB1C",
"o 	c #B1B60C",
"p 	c #D3D70B",
"q 	c #E9E714",
"r 	c #FBF818",
"s 	c #F5F21A",
"t 	c #C3C00B",
"u 	c #BBBC06",
"v 	c #D9D918",
"w 	c #C8C834",
"x 	c #DDE928",
"y 	c #EBEC1C",
"z 	c #F1EC16",
"A 	c #F7F31A",
"B 	c #F8F31A",
"C 	c #EAE720",
"D 	c #8F8F0D",
"E 	c #BEC00A",
"F 	c #E1E116",
"G 	c #F9F819",
"H 	c #F0EF1B",
"I 	c #A7A40B",
"J 	c #908E07",
"K 	c #CCCA1A",
"L 	c #CDCD4B",
"M 	c #797727",
"N 	c #6E7022",
"O 	c #7D7B1F",
"P 	c #BEBC17",
"Q 	c #F7F416",
"R 	c #F9F416",
"S 	c #F4F018",
"T 	c #E0DD1C",
"U 	c #E8E521",
"V 	c #F2F115",
"W 	c #F4F71B",
"X 	c #F3F419",
"Y 	c #E0DF1C",
"Z 	c #E0DD22",
"` 	c #ECE91F",
" .	c #D5D53E",
"..	c #ADAE16",
"+.	c #F3F51C",
"@.	c #F6F617",
"#.	c #F8F51A",
"$.	c #F9F624",
"%.	c #F6F72E",
"&.	c #F1F61D",
"*.	c #E3E418",
"=.	c #DAD920",
"-.	c #E8E931",
";.	c #F7F52F",
">.	c #F7F52A",
",.	c #D2D03F",
"'.	c #B4B051",
").	c #AEAD4E",
"!.	c #A4AB20",
"~.	c #EEF522",
"{.	c #F5F41A",
"].	c #F6F31D",
"^.	c #F7F218",
"/.	c #F5F317",
"(.	c #EDF320",
"_.	c #ABB016",
":.	c #827F1A",
"<.	c #CAC52B",
"[.	c #F7F419",
"}.	c #F3F528",
"|.	c #CACC40",
"1.	c #908F29",
"2.	c #ADAC23",
"3.	c #DCD945",
"4.	c #D0CF52",
"5.	c #888C29",
"6.	c #B0B228",
"7.	c #E3DB20",
"8.	c #F5F01A",
"9.	c #F3F113",
"0.	c #EDF013",
"a.	c #ECF019",
"b.	c #BEC118",
"c.	c #AFAC18",
"d.	c #D3D013",
"e.	c #E8E614",
"f.	c #B8B919",
"g.	c #8B902A",
"h.	c #B2AF4B",
"i.	c #EAE73E",
"j.	c #F3F122",
"k.	c #DBD63B",
"l.	c #E2DC20",
"m.	c #EEEA1A",
"n.	c #EFED1C",
"o.	c #EDEC1D",
"p.	c #ECEB1C",
"q.	c #E5E344",
"r.	c #E1DD4E",
"s.	c #E9E838",
"t.	c #D6D41D",
"u.	c #8A8913",
"v.	c #BEBC2E",
"w.	c #F9F526",
"x.	c #E2E12A",
"y.	c #BCB935",
"z.	c #B3B035",
"A.	c #B7AD2E",
"B.	c #AAA220",
"C.	c #918F1B",
"D.	c #929021",
"E.	c #969528",
"F.	c #8F8C1B",
"G.	c #8F8C27",
"H.	c #8E8C2B",
"I.	c #929027",
"J.	c #888829",
"K.	c #BEBD2B",
"L.	c #F9F51A",
"M.	c #F0EE36",
"N.	c #DFDB58",
"O.	c #E9E354",
"P.	c #ECEB48",
"Q.	c #C4C425",
"R.	c #72710B",
"S.	c #706F0C",
"T.	c #70700F",
"U.	c #6F6F0C",
"V.	c #6F6F0B",
"W.	c #70700C",
"X.	c #64640F",
"Y.	c #C4BE29",
"Z.	c #F5F61F",
"`.	c #F5F51D",
" +	c #DEDF32",
".+	c #A8A139",
"++	c #C4BB1D",
"@+	c #F0EF16",
"#+	c #D7D82B",
"$+	c #C4C348",
"%+	c #C4C249",
"&+	c #C2C24F",
"*+	c #C2C14F",
"=+	c #ADAD4B",
"-+	c #AEA834",
";+	c #D8D83B",
">+	c #DAD93C",
",+	c #B2B245",
"'+	c #A09B26",
")+	c #DAD638",
"!+	c #D5D641",
"~+	c #D6DA48",
"{+	c #D7DB46",
"]+	c #D6DB4A",
"^+	c #D5DA4B",
"/+	c #D4D652",
"(+	c #D7DA48",
"_+	c #BDC04A",
":+	c #848649",
"                                        ",
"                                        ",
"                                        ",
"                                        ",
"                                        ",
"                                        ",
"            . + @ # $ % & * = - ; > ,   ",
"      ' ) ! ~ { ] ^ / ( _ : < [ } | 1   ",
"      2 3 4 5 6 6 7 8 9 0 a b c d e f   ",
"    g h i j k l m n o p q r s t u v f   ",
"      w x y z A B C D E F G H I J K L   ",
"      M N O P Q R S T U V W X Y Z `  .  ",
"            ..+.@.#.$.%.&.*.=.-.;.>.,.  ",
"      '.).  !.~.{.].^./.(._.:.<.[.}.|.  ",
"  1.2.3.4.  5.6.7.8.9.0.a.b.c.d.e.f.g.  ",
"  h.i.j.k.      l.m.n.o.p.q.r.s.t.u.    ",
"  v.w.A x.y.z.A.B.C.D.E.F.G.H.I.J.      ",
"  K.L.Q M.N.O.P.Q.R.S.T.U.U.V.W.X.      ",
"  Y.Z.`. +.+++@+#+$+%+&+&+&+*+%+=+      ",
"  -+;+>+,+  '+)+!+~+{+]+]+^+/+(+_+:+    "};
