/* XPM */
static char * mid_left_xpm[] = {
"20 20 209 2",
"  	c None",
". 	c #AEA834",
"+ 	c #C4BE29",
"@ 	c #BEBD2B",
"# 	c #BEBC2E",
"$ 	c #B2AF4B",
"% 	c #908F29",
"& 	c #D8D83B",
"* 	c #F5F61F",
"= 	c #F9F51A",
"- 	c #F9F526",
"; 	c #EAE73E",
"> 	c #ADAC23",
", 	c #666914",
"' 	c #DAD93C",
") 	c #F5F51D",
"! 	c #F7F416",
"~ 	c #F7F31A",
"{ 	c #F3F122",
"] 	c #DCD945",
"^ 	c #B4B051",
"/ 	c #797727",
"( 	c #C8C834",
"_ 	c #CCCC2D",
": 	c #C7CD1F",
"< 	c #BBC919",
"[ 	c #B2B245",
"} 	c #DEDF32",
"| 	c #F0EE36",
"1 	c #E2E12A",
"2 	c #DBD63B",
"3 	c #D0CF52",
"4 	c #AEAD4E",
"5 	c #6E7022",
"6 	c #DDE928",
"7 	c #ECF328",
"8 	c #EFEC26",
"9 	c #ABA025",
"0 	c #A8A139",
"a 	c #DFDB58",
"b 	c #BCB935",
"c 	c #7D7B1F",
"d 	c #EBEC1C",
"e 	c #F6F51D",
"f 	c #F1F122",
"g 	c #A5A321",
"h 	c #A09B26",
"i 	c #C4BB1D",
"j 	c #E9E354",
"k 	c #B3B035",
"l 	c #888C29",
"m 	c #A4AB20",
"n 	c #ADAE16",
"o 	c #BEBC17",
"p 	c #F1EC16",
"q 	c #F9F417",
"r 	c #F8F317",
"s 	c #CFCB2B",
"t 	c #9F9E1C",
"u 	c #DAD638",
"v 	c #F0EF16",
"w 	c #ECEB48",
"x 	c #B7AD2E",
"y 	c #B0B228",
"z 	c #EEF522",
"A 	c #F3F51C",
"B 	c #F9F414",
"C 	c #FBF511",
"D 	c #F3EE32",
"E 	c #DEDB22",
"F 	c #D5D641",
"G 	c #D7D82B",
"H 	c #C4C425",
"I 	c #AAA220",
"J 	c #E2DC20",
"K 	c #E3DB20",
"L 	c #F5F41A",
"M 	c #F6F617",
"N 	c #F9F416",
"O 	c #F8F31A",
"P 	c #F9F415",
"Q 	c #F7F435",
"R 	c #D6D829",
"S 	c #D6DA48",
"T 	c #C4C348",
"U 	c #72710B",
"V 	c #918F1B",
"W 	c #EEEA1A",
"X 	c #F5F01A",
"Y 	c #F6F31D",
"Z 	c #F8F51A",
"` 	c #F4F018",
" .	c #EAE720",
"..	c #EEEB1C",
"+.	c #F9F411",
"@.	c #F5F133",
"#.	c #DEDD29",
"$.	c #D7DB46",
"%.	c #C4C249",
"&.	c #706F0C",
"*.	c #929021",
"=.	c #EFED1C",
"-.	c #F3F113",
";.	c #F7F218",
">.	c #F9F624",
",.	c #E0DD1C",
"'.	c #8F8F0D",
").	c #B1B60C",
"!.	c #EDEF11",
"~.	c #F4F234",
"{.	c #DDDD2D",
"].	c #D6DB4A",
"^.	c #C2C24F",
"/.	c #70700F",
"(.	c #969528",
"_.	c #EDEC1D",
":.	c #EDF013",
"<.	c #F5F317",
"[.	c #F6F72E",
"}.	c #E8E521",
"|.	c #BEC00A",
"1.	c #D3D70B",
"2.	c #F1F113",
"3.	c #F6F435",
"4.	c #D8DA2C",
"5.	c #6F6F0C",
"6.	c #8F8C1B",
"7.	c #ECEB1C",
"8.	c #ECF019",
"9.	c #EDF320",
"0.	c #F1F61D",
"a.	c #F2F115",
"b.	c #E1E116",
"c.	c #E9E714",
"d.	c #FAF511",
"e.	c #F6F334",
"f.	c #DADB2B",
"g.	c #D5DA4B",
"h.	c #8F8C27",
"i.	c #E5E344",
"j.	c #BEC118",
"k.	c #ABB016",
"l.	c #E3E418",
"m.	c #F4F71B",
"n.	c #F9F819",
"o.	c #FBF818",
"p.	c #F9F512",
"q.	c #F8F836",
"r.	c #DDDF2F",
"s.	c #D4D652",
"t.	c #C2C14F",
"u.	c #6F6F0B",
"v.	c #8E8C2B",
"w.	c #E1DD4E",
"x.	c #AFAC18",
"y.	c #827F1A",
"z.	c #DAD920",
"A.	c #F3F419",
"B.	c #F0EF1B",
"C.	c #F5F21A",
"D.	c #F8F515",
"E.	c #F7F736",
"F.	c #E3E32F",
"G.	c #D7DA48",
"H.	c #70700C",
"I.	c #929027",
"J.	c #E9E838",
"K.	c #D3D013",
"L.	c #CAC52B",
"M.	c #E8E931",
"N.	c #E0DF1C",
"O.	c #A7A40B",
"P.	c #C3C00B",
"Q.	c #F3F016",
"R.	c #F5F336",
"S.	c #DDDE2E",
"T.	c #BDC04A",
"U.	c #ADAD4B",
"V.	c #64640F",
"W.	c #888829",
"X.	c #D6D41D",
"Y.	c #E8E614",
"Z.	c #F7F419",
"`.	c #F7F52F",
" +	c #E0DD22",
".+	c #908E07",
"++	c #BBBC06",
"@+	c #EAEB16",
"#+	c #F6F537",
"$+	c #D7DA2E",
"%+	c #848649",
"&+	c #8A8913",
"*+	c #B8B919",
"=+	c #F3F528",
"-+	c #F7F52A",
";+	c #ECE91F",
">+	c #CCCA1A",
",+	c #D9D918",
"'+	c #F3F41D",
")+	c #F5F244",
"!+	c #DEDA40",
"~+	c #8B902A",
"{+	c #CACC40",
"]+	c #D2D03F",
"^+	c #D5D53E",
"/+	c #CDCD4B",
"(+	c #D7D63C",
"_+	c #CCCB56",
":+	c #B9B54E",
"                                        ",
". + @ # $ %                             ",
"& * = - ; >         ,                   ",
"' ) ! ~ { ] ^   / ( _ : <               ",
"[ } | 1 2 3 4   5 6 7 8 9               ",
"  0 a b         c d e f g               ",
"h i j k   l m n o p q r s t             ",
"u v w x   y z A ! ~ B C D E             ",
"F G H I J K L M N O P C Q R             ",
"S T U V W X Y Z `  ...+.@.#.            ",
"$.%.&.*.=.-.;.>.,.'.).!.~.{.            ",
"].^./.(._.:.<.[.}.|.1.2.3.4.            ",
"].^.5.6.7.8.9.0.a.b.c.d.e.f.            ",
"g.^.5.h.i.j.k.l.m.n.o.p.q.r.            ",
"s.t.u.v.w.x.y.z.A.B.C.D.E.F.            ",
"G.%.H.I.J.K.L.M.N.O.P.Q.R.S.            ",
"T.U.V.W.X.Y.Z.`. +.+++@+#+$+            ",
"%+      &+*+=+-+;+>+,+'+)+!+            ",
"          ~+{+]+^+/+(+(+_+:+            ",
"                                        "};
