/* XPM */
static char * mid_right_xpm[] = {
"20 20 209 2",
"  	c None",
". 	c #B9B54E",
"+ 	c #CCCB56",
"@ 	c #D7D63C",
"# 	c #CDCD4B",
"$ 	c #D5D53E",
"% 	c #D2D03F",
"& 	c #CACC40",
"* 	c #8B902A",
"= 	c #DEDA40",
"- 	c #F5F244",
"; 	c #F3F41D",
"> 	c #D9D918",
", 	c #CCCA1A",
"' 	c #ECE91F",
") 	c #F7F52A",
"! 	c #F3F528",
"~ 	c #B8B919",
"{ 	c #8A8913",
"] 	c #848649",
"^ 	c #D7DA2E",
"/ 	c #F6F537",
"( 	c #EAEB16",
"_ 	c #BBBC06",
": 	c #908E07",
"< 	c #E0DD22",
"[ 	c #F7F52F",
"} 	c #F7F419",
"| 	c #E8E614",
"1 	c #D6D41D",
"2 	c #888829",
"3 	c #64640F",
"4 	c #ADAD4B",
"5 	c #BDC04A",
"6 	c #DDDE2E",
"7 	c #F5F336",
"8 	c #F3F016",
"9 	c #C3C00B",
"0 	c #A7A40B",
"a 	c #E0DF1C",
"b 	c #E8E931",
"c 	c #CAC52B",
"d 	c #D3D013",
"e 	c #E9E838",
"f 	c #929027",
"g 	c #70700C",
"h 	c #C4C249",
"i 	c #D7DA48",
"j 	c #E3E32F",
"k 	c #F7F736",
"l 	c #F8F515",
"m 	c #F5F21A",
"n 	c #F0EF1B",
"o 	c #F3F419",
"p 	c #DAD920",
"q 	c #827F1A",
"r 	c #AFAC18",
"s 	c #E1DD4E",
"t 	c #8E8C2B",
"u 	c #6F6F0B",
"v 	c #C2C14F",
"w 	c #D4D652",
"x 	c #DDDF2F",
"y 	c #F8F836",
"z 	c #F9F512",
"A 	c #FBF818",
"B 	c #F9F819",
"C 	c #F4F71B",
"D 	c #E3E418",
"E 	c #ABB016",
"F 	c #BEC118",
"G 	c #E5E344",
"H 	c #8F8C27",
"I 	c #6F6F0C",
"J 	c #C2C24F",
"K 	c #D5DA4B",
"L 	c #DADB2B",
"M 	c #F6F334",
"N 	c #FAF511",
"O 	c #E9E714",
"P 	c #E1E116",
"Q 	c #F2F115",
"R 	c #F1F61D",
"S 	c #EDF320",
"T 	c #ECF019",
"U 	c #ECEB1C",
"V 	c #8F8C1B",
"W 	c #D6DB4A",
"X 	c #D8DA2C",
"Y 	c #F6F435",
"Z 	c #F1F113",
"` 	c #D3D70B",
" .	c #BEC00A",
"..	c #E8E521",
"+.	c #F6F72E",
"@.	c #F5F317",
"#.	c #EDF013",
"$.	c #EDEC1D",
"%.	c #969528",
"&.	c #70700F",
"*.	c #DDDD2D",
"=.	c #F4F234",
"-.	c #EDEF11",
";.	c #B1B60C",
">.	c #8F8F0D",
",.	c #E0DD1C",
"'.	c #F9F624",
").	c #F7F218",
"!.	c #F3F113",
"~.	c #EFED1C",
"{.	c #929021",
"].	c #706F0C",
"^.	c #D7DB46",
"/.	c #DEDD29",
"(.	c #F5F133",
"_.	c #F9F411",
":.	c #EEEB1C",
"<.	c #EAE720",
"[.	c #F4F018",
"}.	c #F8F51A",
"|.	c #F6F31D",
"1.	c #F5F01A",
"2.	c #EEEA1A",
"3.	c #918F1B",
"4.	c #72710B",
"5.	c #C4C348",
"6.	c #D6DA48",
"7.	c #D6D829",
"8.	c #F7F435",
"9.	c #FBF511",
"0.	c #F9F415",
"a.	c #F8F31A",
"b.	c #F9F416",
"c.	c #F6F617",
"d.	c #F5F41A",
"e.	c #E3DB20",
"f.	c #E2DC20",
"g.	c #AAA220",
"h.	c #C4C425",
"i.	c #D7D82B",
"j.	c #D5D641",
"k.	c #DEDB22",
"l.	c #F3EE32",
"m.	c #F9F414",
"n.	c #F7F31A",
"o.	c #F7F416",
"p.	c #F3F51C",
"q.	c #EEF522",
"r.	c #B0B228",
"s.	c #B7AD2E",
"t.	c #ECEB48",
"u.	c #F0EF16",
"v.	c #DAD638",
"w.	c #9F9E1C",
"x.	c #CFCB2B",
"y.	c #F8F317",
"z.	c #F9F417",
"A.	c #F1EC16",
"B.	c #BEBC17",
"C.	c #ADAE16",
"D.	c #A4AB20",
"E.	c #888C29",
"F.	c #B3B035",
"G.	c #E9E354",
"H.	c #C4BB1D",
"I.	c #A09B26",
"J.	c #A5A321",
"K.	c #F1F122",
"L.	c #F6F51D",
"M.	c #EBEC1C",
"N.	c #7D7B1F",
"O.	c #BCB935",
"P.	c #DFDB58",
"Q.	c #A8A139",
"R.	c #ABA025",
"S.	c #EFEC26",
"T.	c #ECF328",
"U.	c #DDE928",
"V.	c #6E7022",
"W.	c #AEAD4E",
"X.	c #D0CF52",
"Y.	c #DBD63B",
"Z.	c #E2E12A",
"`.	c #F0EE36",
" +	c #DEDF32",
".+	c #B2B245",
"++	c #BBC919",
"@+	c #C7CD1F",
"#+	c #CCCC2D",
"$+	c #C8C834",
"%+	c #797727",
"&+	c #B4B051",
"*+	c #DCD945",
"=+	c #F3F122",
"-+	c #F5F51D",
";+	c #DAD93C",
">+	c #666914",
",+	c #ADAC23",
"'+	c #EAE73E",
")+	c #F9F526",
"!+	c #F9F51A",
"~+	c #F5F61F",
"{+	c #D8D83B",
"]+	c #908F29",
"^+	c #B2AF4B",
"/+	c #BEBC2E",
"(+	c #BEBD2B",
"_+	c #C4BE29",
":+	c #AEA834",
"                                        ",
"            . + @ @ # $ % & *           ",
"            = - ; > , ' ) ! ~ {       ] ",
"            ^ / ( _ : < [ } | 1 2 3 4 5 ",
"            6 7 8 9 0 a b c d e f g h i ",
"            j k l m n o p q r s t u v w ",
"            x y z A B C D E F G H I J K ",
"            L M N O P Q R S T U V I J W ",
"            X Y Z `  ...+.@.#.$.%.&.J W ",
"            *.=.-.;.>.,.'.).!.~.{.].h ^.",
"            /.(._.:.<.[.}.|.1.2.3.4.5.6.",
"            7.8.9.0.a.b.c.d.e.f.g.h.i.j.",
"            k.l.9.m.n.o.p.q.r.  s.t.u.v.",
"            w.x.y.z.A.B.C.D.E.  F.G.H.I.",
"              J.K.L.M.N.        O.P.Q.  ",
"              R.S.T.U.V.  W.X.Y.Z.`. +.+",
"              ++@+#+$+%+  &+*+=+n.o.-+;+",
"                  >+        ,+'+)+!+~+{+",
"                            ]+^+/+(+_+:+",
"                                        "};
