/* XPM */
static char * mid_down_xpm[] = {
"20 20 209 2",
"  	c None",
". 	c #848649",
"+ 	c #BDC04A",
"@ 	c #D7DA48",
"# 	c #D4D652",
"$ 	c #D5DA4B",
"% 	c #D6DB4A",
"& 	c #D7DB46",
"* 	c #D6DA48",
"= 	c #D5D641",
"- 	c #DAD638",
"; 	c #A09B26",
"> 	c #B2B245",
", 	c #DAD93C",
"' 	c #D8D83B",
") 	c #AEA834",
"! 	c #ADAD4B",
"~ 	c #C4C249",
"{ 	c #C2C14F",
"] 	c #C2C24F",
"^ 	c #C4C348",
"/ 	c #D7D82B",
"( 	c #F0EF16",
"_ 	c #C4BB1D",
": 	c #A8A139",
"< 	c #DEDF32",
"[ 	c #F5F51D",
"} 	c #F5F61F",
"| 	c #C4BE29",
"1 	c #64640F",
"2 	c #70700C",
"3 	c #6F6F0B",
"4 	c #6F6F0C",
"5 	c #70700F",
"6 	c #706F0C",
"7 	c #72710B",
"8 	c #C4C425",
"9 	c #ECEB48",
"0 	c #E9E354",
"a 	c #DFDB58",
"b 	c #F0EE36",
"c 	c #F7F416",
"d 	c #F9F51A",
"e 	c #BEBD2B",
"f 	c #888829",
"g 	c #929027",
"h 	c #8E8C2B",
"i 	c #8F8C27",
"j 	c #8F8C1B",
"k 	c #969528",
"l 	c #929021",
"m 	c #918F1B",
"n 	c #AAA220",
"o 	c #B7AD2E",
"p 	c #B3B035",
"q 	c #BCB935",
"r 	c #E2E12A",
"s 	c #F7F31A",
"t 	c #F9F526",
"u 	c #BEBC2E",
"v 	c #8A8913",
"w 	c #D6D41D",
"x 	c #E9E838",
"y 	c #E1DD4E",
"z 	c #E5E344",
"A 	c #ECEB1C",
"B 	c #EDEC1D",
"C 	c #EFED1C",
"D 	c #EEEA1A",
"E 	c #E2DC20",
"F 	c #DBD63B",
"G 	c #F3F122",
"H 	c #EAE73E",
"I 	c #B2AF4B",
"J 	c #8B902A",
"K 	c #B8B919",
"L 	c #E8E614",
"M 	c #D3D013",
"N 	c #AFAC18",
"O 	c #BEC118",
"P 	c #ECF019",
"Q 	c #EDF013",
"R 	c #F3F113",
"S 	c #F5F01A",
"T 	c #E3DB20",
"U 	c #B0B228",
"V 	c #888C29",
"W 	c #D0CF52",
"X 	c #DCD945",
"Y 	c #ADAC23",
"Z 	c #908F29",
"` 	c #CACC40",
" .	c #F3F528",
"..	c #F7F419",
"+.	c #CAC52B",
"@.	c #827F1A",
"#.	c #ABB016",
"$.	c #EDF320",
"%.	c #F5F317",
"&.	c #F7F218",
"*.	c #F6F31D",
"=.	c #F5F41A",
"-.	c #EEF522",
";.	c #A4AB20",
">.	c #AEAD4E",
",.	c #B4B051",
"'.	c #D2D03F",
").	c #F7F52A",
"!.	c #F7F52F",
"~.	c #E8E931",
"{.	c #DAD920",
"].	c #E3E418",
"^.	c #F1F61D",
"/.	c #F6F72E",
"(.	c #F9F624",
"_.	c #F8F51A",
":.	c #F6F617",
"<.	c #F3F51C",
"[.	c #ADAE16",
"}.	c #D5D53E",
"|.	c #ECE91F",
"1.	c #E0DD22",
"2.	c #E0DF1C",
"3.	c #F3F419",
"4.	c #F4F71B",
"5.	c #F2F115",
"6.	c #E8E521",
"7.	c #E0DD1C",
"8.	c #F4F018",
"9.	c #F9F416",
"0.	c #BEBC17",
"a.	c #7D7B1F",
"b.	c #6E7022",
"c.	c #797727",
"d.	c #CDCD4B",
"e.	c #CCCA1A",
"f.	c #908E07",
"g.	c #A7A40B",
"h.	c #F0EF1B",
"i.	c #F9F819",
"j.	c #E1E116",
"k.	c #BEC00A",
"l.	c #8F8F0D",
"m.	c #EAE720",
"n.	c #F8F31A",
"o.	c #F1EC16",
"p.	c #EBEC1C",
"q.	c #DDE928",
"r.	c #C8C834",
"s.	c #D7D63C",
"t.	c #D9D918",
"u.	c #BBBC06",
"v.	c #C3C00B",
"w.	c #F5F21A",
"x.	c #FBF818",
"y.	c #E9E714",
"z.	c #D3D70B",
"A.	c #B1B60C",
"B.	c #EEEB1C",
"C.	c #F9F415",
"D.	c #F9F414",
"E.	c #F9F417",
"F.	c #F6F51D",
"G.	c #ECF328",
"H.	c #CCCC2D",
"I.	c #666914",
"J.	c #F3F41D",
"K.	c #EAEB16",
"L.	c #F3F016",
"M.	c #F8F515",
"N.	c #F9F512",
"O.	c #FAF511",
"P.	c #F1F113",
"Q.	c #EDEF11",
"R.	c #F9F411",
"S.	c #FBF511",
"T.	c #F8F317",
"U.	c #F1F122",
"V.	c #EFEC26",
"W.	c #C7CD1F",
"X.	c #CCCB56",
"Y.	c #F5F244",
"Z.	c #F6F537",
"`.	c #F5F336",
" +	c #F7F736",
".+	c #F8F836",
"++	c #F6F334",
"@+	c #F6F435",
"#+	c #F4F234",
"$+	c #F5F133",
"%+	c #F7F435",
"&+	c #F3EE32",
"*+	c #CFCB2B",
"=+	c #A5A321",
"-+	c #ABA025",
";+	c #BBC919",
">+	c #B9B54E",
",+	c #DEDA40",
"'+	c #D7DA2E",
")+	c #DDDE2E",
"!+	c #E3E32F",
"~+	c #DDDF2F",
"{+	c #DADB2B",
"]+	c #D8DA2C",
"^+	c #DDDD2D",
"/+	c #DEDD29",
"(+	c #D6D829",
"_+	c #DEDB22",
":+	c #9F9E1C",
"    . + @ # $ % % & * = - ;   > , ' )   ",
"      ! ~ { ] ] ] ~ ^ / ( _ : < [ } |   ",
"      1 2 3 4 4 5 6 7 8 9 0 a b c d e   ",
"      f g h i j k l m n o p q r s t u   ",
"    v w x y z A B C D E       F G H I   ",
"  J K L M N O P Q R S T U V   W X Y Z   ",
"  `  ...+.@.#.$.%.&.*.=.-.;.  >.,.      ",
"  '.).!.~.{.].^./.(._.:.<.[.            ",
"  }.|.1.2.3.4.5.6.7.8.9.c 0.a.b.c.      ",
"  d.e.f.g.h.i.j.k.l.m.n.s o.p.q.r.      ",
"  s.t.u.v.w.x.y.z.A.B.C.D.E.F.G.H.I.    ",
"  s.J.K.L.M.N.O.P.Q.R.S.S.T.U.V.W.      ",
"  X.Y.Z.`. +.+++@+#+$+%+&+*+=+-+;+      ",
"  >+,+'+)+!+~+{+]+^+/+(+_+:+            ",
"                                        ",
"                                        ",
"                                        ",
"                                        ",
"                                        ",
"                                        "};
