/* XPM */
static char * side_xpm[] = {
"40 40 67 1",
" 	c #000000",
".	c #000200",
"+	c #000105",
"@	c #050500",
"#	c #010500",
"$	c #0B020B",
"%	c #120011",
"&	c #722373",
"*	c #6A0479",
"=	c #5C2163",
"-	c #68076A",
";	c #74086E",
">	c #780783",
",	c #77077A",
"'	c #7D2381",
")	c #430A47",
"!	c #180121",
"~	c #020007",
"{	c #15011A",
"]	c #290328",
"^	c #C507E2",
"/	c #CA04ED",
"(	c #A91EBC",
"_	c #A80AC3",
":	c #0B000C",
"<	c #B10BC7",
"[	c #C40ED0",
"}	c #DE01FA",
"|	c #D901F8",
"1	c #D903E1",
"2	c #D002F2",
"3	c #2B0233",
"4	c #20021F",
"5	c #B904C9",
"6	c #C502CA",
"7	c #DD01E3",
"8	c #D404E0",
"9	c #E301E4",
"0	c #B911C8",
"a	c #CA06DE",
"b	c #E501FB",
"c	c #D501F5",
"d	c #570368",
"e	c #510459",
"f	c #8A0986",
"g	c #7A068E",
"h	c #5B005B",
"i	c #4F214D",
"j	c #480357",
"k	c #49054A",
"l	c #360435",
"m	c #310333",
"n	c #A20BB3",
"o	c #8B2397",
"p	c #A31FA6",
"q	c #71245E",
"r	c #350140",
"s	c #61046C",
"t	c #D003DF",
"u	c #3A0242",
"v	c #3E0635",
"w	c #BD08DE",
"x	c #C71FCF",
"y	c #D000D1",
"z	c #D900E1",
"A	c #AC0BB5",
"B	c #5C0C5B",
"                                        ",
"                                        ",
"                                        ",
"                                        ",
"                                        ",
"                                        ",
"                                        ",
"                                        ",
"                                        ",
"                                        ",
"                                        ",
"                                        ",
"                                        ",
"                                        ",
"                                        ",
"                                        ",
"                                        ",
"                                        ",
"                                        ",
"                                        ",
"                                        ",
"                                        ",
"                                        ",
"                      ....              ",
"                         .              ",
"                                        ",
"                      +++               ",
"         .         +++++++              ",
"    @  .#  .      $@#@#.++#+            ",
"   .%%&*==# .... @-;>>,&>')!..          ",
"~ #@{]^/(_::... $@<[}}||12&3#.++  ..    ",
"~+.#4]/^__$:@...$@567}2889=3#.++......  ",
"~+.#{]}|0<$   .+$$6a}b81c9=3##.+.+..    ",
"*>de+%,>f>>*gg-*]%h&*>,*,>i{3jggkl##4m>>",
"c|0n ~ +4]82|}^^):    ++.. ~jo}}pd.#mqb}",
"cc[_r)lrs-2tcc^/sdrmluuv)r33*(}|ngmlh>b2",
"7c8800w[aaccc2ccaa0w0[xa[x[[aaccaa<0aa7c",
"cc77c7c7c7c|7cc7c7|9||t6yz|ccc222z22c22c",
"9cc7cc7c7|9||}7cc7cc}b>kgA}}cccczc7cc|c|",
"5[[[5[[w[w[w[w[w[w[5aaB3doaw[w[[w[w[w[ww"};
