/* XPM */
static char * side_up_xpm[] = {
"10 10 31 1",
" 	c #000000",
".	c #000002",
"+	c #000001",
"@	c #010102",
"#	c #720683",
"$	c #5F0B6D",
"%	c #000100",
"&	c #6C0473",
"*	c #A806BB",
"=	c #810D8A",
"-	c #010103",
";	c #9705AA",
">	c #670374",
",	c #9305A2",
"'	c #A003B7",
")	c #64066C",
"!	c #870492",
"~	c #6B0973",
"{	c #8C099F",
"]	c #53065B",
"^	c #870695",
"/	c #D304E4",
"(	c #CB07DF",
"_	c #D104E7",
":	c #D204EB",
"<	c #CD06E2",
"[	c #CE08E1",
"}	c #CE08E3",
"|	c #CE05E9",
"1	c #CA06E1",
"2	c #CE04EA",
"          ",
"          ",
"          ",
"          ",
"          ",
"          ",
"     .+   ",
"@#$%&*=-% ",
";>,')!~{]^",
"/(_:<[}|12"};
