/* XPM */
static char * side_middle_xpm[] = {
"10 10 26 1",
" 	c #CE05E9",
".	c #CA06E1",
"+	c #CE08E3",
"@	c #CE08E1",
"#	c #CD06E2",
"$	c #D204EB",
"%	c #D104E7",
"&	c #CB07DF",
"*	c #53065B",
"=	c #8C099F",
"-	c #6B0973",
";	c #870492",
">	c #64066C",
",	c #A003B7",
"'	c #9305A2",
")	c #670374",
"!	c #010103",
"~	c #810D8A",
"{	c #A806BB",
"]	c #6C0473",
"^	c #000100",
"/	c #5F0B6D",
"(	c #720683",
"_	c #000000",
":	c #000001",
"<	c #000002",
" . +@#$%&.",
".*=-;>,') ",
" =!~{]^/(.",
".*_:<__{= ",
" -{____-=.",
".=-____{* ",
" ={____{-.",
".-__-{__= ",
" *=-==*=*.",
". . . . . "};
