/* XPM */
static char * side_right_xpm[] = {
"10 10 31 1",
" 	c #000000",
".	c #870695",
"+	c #CE04EA",
"@	c #000100",
"#	c #53065B",
"$	c #CA06E1",
"%	c #010103",
"&	c #8C099F",
"*	c #CE05E9",
"=	c #000001",
"-	c #810D8A",
";	c #6B0973",
">	c #CE08E3",
",	c #000002",
"'	c #A806BB",
")	c #870492",
"!	c #CE08E1",
"~	c #6C0473",
"{	c #64066C",
"]	c #CD06E2",
"^	c #A003B7",
"/	c #D204EB",
"(	c #5F0B6D",
"_	c #9305A2",
":	c #D104E7",
"<	c #720683",
"[	c #670374",
"}	c #CB07DF",
"|	c #010102",
"1	c #9705AA",
"2	c #D304E4",
"        .+",
"       @#$",
"       %&*",
"      =-;>",
"      ,')!",
"       ~{]",
"       @^/",
"       (_:",
"       <[}",
"       |12"};
