/* XPM */
static char * side_left_xpm[] = {
"10 10 31 1",
" 	c #D304E4",
".	c #9705AA",
"+	c #010102",
"@	c #000000",
"#	c #CB07DF",
"$	c #670374",
"%	c #720683",
"&	c #D104E7",
"*	c #9305A2",
"=	c #5F0B6D",
"-	c #D204EB",
";	c #A003B7",
">	c #000100",
",	c #CD06E2",
"'	c #64066C",
")	c #6C0473",
"!	c #CE08E1",
"~	c #870492",
"{	c #A806BB",
"]	c #000002",
"^	c #CE08E3",
"/	c #6B0973",
"(	c #810D8A",
"_	c #000001",
":	c #CE05E9",
"<	c #8C099F",
"[	c #010103",
"}	c #CA06E1",
"|	c #53065B",
"1	c #CE04EA",
"2	c #870695",
" .+@@@@@@@",
"#$%@@@@@@@",
"&*=@@@@@@@",
"-;>@@@@@@@",
",')@@@@@@@",
"!~{]@@@@@@",
"^/(_@@@@@@",
":<[@@@@@@@",
"}|>@@@@@@@",
"12@@@@@@@@"};
