/* XPM */
static char * side_down_xpm[] = {
"10 10 31 1",
" 	c #CE04EA",
".	c #CA06E1",
"+	c #CE05E9",
"@	c #CE08E3",
"#	c #CE08E1",
"$	c #CD06E2",
"%	c #D204EB",
"&	c #D104E7",
"*	c #CB07DF",
"=	c #D304E4",
"-	c #870695",
";	c #53065B",
">	c #8C099F",
",	c #6B0973",
"'	c #870492",
")	c #64066C",
"!	c #A003B7",
"~	c #9305A2",
"{	c #670374",
"]	c #9705AA",
"^	c #000000",
"/	c #000100",
"(	c #010103",
"_	c #810D8A",
":	c #A806BB",
"<	c #6C0473",
"[	c #5F0B6D",
"}	c #720683",
"|	c #010102",
"1	c #000001",
"2	c #000002",
" .+@#$%&*=",
"-;>,')!~{]",
"^/(_:</[}|",
"^^^12^^^^^",
"^^^^^^^^^^",
"^^^^^^^^^^",
"^^^^^^^^^^",
"^^^^^^^^^^",
"^^^^^^^^^^",
"^^^^^^^^^^"};
