/* XPM */
static char * sq_down_xpm[] = {
"20 20 152 2",
"  	c None",
". 	c #999830",
"+ 	c #9B9929",
"@ 	c #949329",
"# 	c #8A8D29",
"$ 	c #8C8D26",
"% 	c #8D8F29",
"& 	c #989626",
"* 	c #CDD466",
"= 	c #DBDE5F",
"- 	c #DADA5B",
"; 	c #DBDA5B",
"> 	c #E0E05B",
", 	c #E1E05B",
"' 	c #E3E055",
") 	c #E2E15A",
"! 	c #CCCA4E",
"~ 	c #AEAD3C",
"{ 	c #DADB56",
"] 	c #D4D555",
"^ 	c #CECB53",
"/ 	c #ACA936",
"( 	c #D6DF37",
"_ 	c #DFED33",
": 	c #B8BC34",
"< 	c #BDC12C",
"[ 	c #E9EC2C",
"} 	c #F7F62C",
"| 	c #F7F529",
"1 	c #F8F62B",
"2 	c #E8E629",
"3 	c #B8B633",
"4 	c #93903A",
"5 	c #AAA715",
"6 	c #E2EC2D",
"7 	c #B9CE2F",
"8 	c #9B9A2D",
"9 	c #AAAB3B",
"0 	c #F2EF52",
"a 	c #F3F235",
"b 	c #E6EB13",
"c 	c #ABAA0A",
"d 	c #B3B709",
"e 	c #E4E514",
"f 	c #F8F415",
"g 	c #F6F310",
"h 	c #F7F512",
"i 	c #F7F523",
"j 	c #F4F050",
"k 	c #D4CF58",
"l 	c #ABA813",
"m 	c #C3C41E",
"n 	c #A2A815",
"o 	c #AAAA0E",
"p 	c #F5F317",
"q 	c #F7F414",
"r 	c #F2EF21",
"s 	c #D6D242",
"t 	c #D9D83B",
"u 	c #F1F01B",
"v 	c #F9F51A",
"w 	c #F9F61B",
"x 	c #FBF71B",
"y 	c #F8F317",
"z 	c #F9F41B",
"A 	c #DBCE24",
"B 	c #AEAE0F",
"C 	c #F4F31E",
"D 	c #E1DF32",
"E 	c #CECF4A",
"F 	c #E9EF42",
"G 	c #F7F435",
"H 	c #F7F320",
"I 	c #E6E643",
"J 	c #DCD840",
"K 	c #F1E032",
"L 	c #F6F120",
"M 	c #F9F419",
"N 	c #DFD91B",
"O 	c #A7A320",
"P 	c #8E8D26",
"Q 	c #878627",
"R 	c #B0B011",
"S 	c #EDEB1B",
"T 	c #D9D71F",
"U 	c #DFE11A",
"V 	c #F7F310",
"W 	c #F8F51B",
"X 	c #F4F331",
"Y 	c #C7BC23",
"Z 	c #F2EF23",
"` 	c #F7F31C",
" .	c #F1ED30",
"..	c #E4E253",
"+.	c #D4D357",
"@.	c #BABB51",
"#.	c #B3B212",
"$.	c #EFED1D",
"%.	c #E1DF36",
"&.	c #E6E42E",
"*.	c #F8F418",
"=.	c #FAF71E",
"-.	c #FBF839",
";.	c #D3CE29",
">.	c #F6F21C",
",.	c #F8F316",
"'.	c #F9F41A",
").	c #F7F328",
"!.	c #F8F429",
"~.	c #EEEA2B",
"{.	c #D7D52C",
"].	c #B3B10E",
"^.	c #F7F51E",
"/.	c #ECED55",
"(.	c #E9EB63",
"_.	c #F4F138",
":.	c #F9F517",
"<.	c #FAF71C",
"[.	c #F8F254",
"}.	c #F5ED62",
"|.	c #F4EF37",
"1.	c #F9F317",
"2.	c #F9F415",
"3.	c #F3F415",
"4.	c #E8EC1A",
"5.	c #E8F025",
"6.	c #DFDD2E",
"7.	c #C3C732",
"8.	c #ADAC09",
"9.	c #F5F312",
"0.	c #F8F417",
"a.	c #F8F419",
"b.	c #FAF414",
"c.	c #FAF412",
"d.	c #FAF417",
"e.	c #FAF41A",
"f.	c #FAF416",
"g.	c #F8F413",
"h.	c #DCE216",
"i.	c #C5D321",
"j.	c #CAE93A",
"k.	c #CCCB43",
"l.	c #9C9B21",
"m.	c #E0DB37",
"n.	c #E3DC38",
"o.	c #E2DC38",
"p.	c #E3DC39",
"q.	c #DFDC4B",
"r.	c #E7E34E",
"s.	c #DBDA50",
"t.	c #DEDA45",
"u.	c #C1BD38",
"        . + + @ # $ %             &     ",
"      * = - ; > , ' ) !       ~ { ] ^   ",
"    / ( _ : < [ } | 1 2 3 4   5 6 7 8   ",
"  9 0 a b c d e f g h i j k   l m n     ",
"  o p q r s t u v w x y z A             ",
"  B C D E F G H I J K L M N O P Q       ",
"  R S T   U V W X   Y Z `  ...' +.@.    ",
"  #.$.%.  &.*.=.-.  ;.>.,.'.).!.~.{.    ",
"  ].^./.(._.:.<.[.}.|.1.2.3.4.5.6.7.    ",
"  8.9.0.a.b.c.c.d.e.f.b.g.h.i.j.k.      ",
"  l.m.n.o.n.n.n.p.q.r.s.t.u.            ",
"                                        ",
"                                        ",
"                                        ",
"                                        ",
"                                        ",
"                                        ",
"                                        ",
"                                        ",
"                                        "};
