/* XPM */
static char * sq_left_xpm[] = {
"20 20 152 2",
"  	c None",
". 	c #CECB53",
"+ 	c #9B9A2D",
"@ 	c #989626",
"# 	c #D4D555",
"$ 	c #B9CE2F",
"% 	c #A2A815",
"& 	c #BABB51",
"* 	c #D7D52C",
"= 	c #C3C732",
"- 	c #DADB56",
"; 	c #E2EC2D",
"> 	c #C3C41E",
", 	c #878627",
"' 	c #D4D357",
") 	c #EEEA2B",
"! 	c #DFDD2E",
"~ 	c #CCCB43",
"{ 	c #AEAD3C",
"] 	c #AAA715",
"^ 	c #ABA813",
"/ 	c #8E8D26",
"( 	c #E3E055",
"_ 	c #F8F429",
": 	c #E8F025",
"< 	c #CAE93A",
"[ 	c #A7A320",
"} 	c #E4E253",
"| 	c #F7F328",
"1 	c #E8EC1A",
"2 	c #C5D321",
"3 	c #93903A",
"4 	c #D4CF58",
"5 	c #DBCE24",
"6 	c #DFD91B",
"7 	c #F1ED30",
"8 	c #F9F41A",
"9 	c #F3F415",
"0 	c #DCE216",
"a 	c #C1BD38",
"b 	c #B8B633",
"c 	c #F4F050",
"d 	c #F9F41B",
"e 	c #F9F419",
"f 	c #F7F31C",
"g 	c #F8F316",
"h 	c #F9F415",
"i 	c #F8F413",
"j 	c #DEDA45",
"k 	c #CCCA4E",
"l 	c #E8E629",
"m 	c #F7F523",
"n 	c #F8F317",
"o 	c #F6F120",
"p 	c #F2EF23",
"q 	c #F6F21C",
"r 	c #F9F317",
"s 	c #FAF414",
"t 	c #DBDA50",
"u 	c #8D8F29",
"v 	c #E2E15A",
"w 	c #F8F62B",
"x 	c #F7F512",
"y 	c #FBF71B",
"z 	c #F1E032",
"A 	c #C7BC23",
"B 	c #D3CE29",
"C 	c #F4EF37",
"D 	c #FAF416",
"E 	c #E7E34E",
"F 	c #8C8D26",
"G 	c #F7F529",
"H 	c #F6F310",
"I 	c #F9F61B",
"J 	c #DCD840",
"K 	c #F5ED62",
"L 	c #FAF41A",
"M 	c #DFDC4B",
"N 	c #8A8D29",
"O 	c #E1E05B",
"P 	c #F7F62C",
"Q 	c #F8F415",
"R 	c #F9F51A",
"S 	c #E6E643",
"T 	c #F4F331",
"U 	c #FBF839",
"V 	c #F8F254",
"W 	c #FAF417",
"X 	c #E3DC39",
"Y 	c #949329",
"Z 	c #E0E05B",
"` 	c #E9EC2C",
" .	c #E4E514",
"..	c #F1F01B",
"+.	c #F7F320",
"@.	c #F8F51B",
"#.	c #FAF71E",
"$.	c #FAF71C",
"%.	c #FAF412",
"&.	c #E3DC38",
"*.	c #9B9929",
"=.	c #DBDA5B",
"-.	c #BDC12C",
";.	c #B3B709",
">.	c #D9D83B",
",.	c #F7F435",
"'.	c #F7F310",
").	c #F8F418",
"!.	c #F9F517",
"~.	c #DADA5B",
"{.	c #B8BC34",
"].	c #ABAA0A",
"^.	c #D6D242",
"/.	c #E9EF42",
"(.	c #DFE11A",
"_.	c #E6E42E",
":.	c #F4F138",
"<.	c #999830",
"[.	c #DBDE5F",
"}.	c #DFED33",
"|.	c #E6EB13",
"1.	c #F2EF21",
"2.	c #CECF4A",
"3.	c #E9EB63",
"4.	c #F8F419",
"5.	c #E2DC38",
"6.	c #CDD466",
"7.	c #D6DF37",
"8.	c #F3F235",
"9.	c #F7F414",
"0.	c #E1DF32",
"a.	c #D9D71F",
"b.	c #E1DF36",
"c.	c #ECED55",
"d.	c #F8F417",
"e.	c #ACA936",
"f.	c #F2EF52",
"g.	c #F5F317",
"h.	c #F4F31E",
"i.	c #EDEB1B",
"j.	c #EFED1D",
"k.	c #F7F51E",
"l.	c #F5F312",
"m.	c #E0DB37",
"n.	c #AAAB3B",
"o.	c #AAAA0E",
"p.	c #AEAE0F",
"q.	c #B0B011",
"r.	c #B3B212",
"s.	c #B3B10E",
"t.	c #ADAC09",
"u.	c #9C9B21",
"                                        ",
"  . +                                   ",
"@ # $ %     & * =                       ",
"  - ; >   , ' ) ! ~                     ",
"  { ] ^   / ( _ : <                     ",
"          [ } | 1 2                     ",
"    3 4 5 6 7 8 9 0 a                   ",
"    b c d e f g h i j                   ",
"  k l m n o p q r s t                   ",
"u v w x y z A B C D E                   ",
"F ( G H I J     K L M                   ",
"N O P Q R S T U V W X                   ",
"Y Z `  ...+.@.#.$.%.&.                  ",
"*.=.-.;.>.,.'.).!.%.&.                  ",
"*.~.{.].^./.(._.:.s &.                  ",
"<.[.}.|.1.2.    3.4.5.                  ",
"  6.7.8.9.0.a.b.c.d.&.                  ",
"    e.f.g.h.i.j.k.l.m.                  ",
"      n.o.p.q.r.s.t.u.                  ",
"                                        "};
