/* XPM */
static char * sq_right_xpm[] = {
"20 20 152 2",
"  	c None",
". 	c #9C9B21",
"+ 	c #ADAC09",
"@ 	c #B3B10E",
"# 	c #B3B212",
"$ 	c #B0B011",
"% 	c #AEAE0F",
"& 	c #AAAA0E",
"* 	c #AAAB3B",
"= 	c #E0DB37",
"- 	c #F5F312",
"; 	c #F7F51E",
"> 	c #EFED1D",
", 	c #EDEB1B",
"' 	c #F4F31E",
") 	c #F5F317",
"! 	c #F2EF52",
"~ 	c #ACA936",
"{ 	c #E3DC38",
"] 	c #F8F417",
"^ 	c #ECED55",
"/ 	c #E1DF36",
"( 	c #D9D71F",
"_ 	c #E1DF32",
": 	c #F7F414",
"< 	c #F3F235",
"[ 	c #D6DF37",
"} 	c #CDD466",
"| 	c #E2DC38",
"1 	c #F8F419",
"2 	c #E9EB63",
"3 	c #CECF4A",
"4 	c #F2EF21",
"5 	c #E6EB13",
"6 	c #DFED33",
"7 	c #DBDE5F",
"8 	c #999830",
"9 	c #FAF414",
"0 	c #F4F138",
"a 	c #E6E42E",
"b 	c #DFE11A",
"c 	c #E9EF42",
"d 	c #D6D242",
"e 	c #ABAA0A",
"f 	c #B8BC34",
"g 	c #DADA5B",
"h 	c #9B9929",
"i 	c #FAF412",
"j 	c #F9F517",
"k 	c #F8F418",
"l 	c #F7F310",
"m 	c #F7F435",
"n 	c #D9D83B",
"o 	c #B3B709",
"p 	c #BDC12C",
"q 	c #DBDA5B",
"r 	c #FAF71C",
"s 	c #FAF71E",
"t 	c #F8F51B",
"u 	c #F7F320",
"v 	c #F1F01B",
"w 	c #E4E514",
"x 	c #E9EC2C",
"y 	c #E0E05B",
"z 	c #949329",
"A 	c #E3DC39",
"B 	c #FAF417",
"C 	c #F8F254",
"D 	c #FBF839",
"E 	c #F4F331",
"F 	c #E6E643",
"G 	c #F9F51A",
"H 	c #F8F415",
"I 	c #F7F62C",
"J 	c #E1E05B",
"K 	c #8A8D29",
"L 	c #DFDC4B",
"M 	c #FAF41A",
"N 	c #F5ED62",
"O 	c #DCD840",
"P 	c #F9F61B",
"Q 	c #F6F310",
"R 	c #F7F529",
"S 	c #E3E055",
"T 	c #8C8D26",
"U 	c #E7E34E",
"V 	c #FAF416",
"W 	c #F4EF37",
"X 	c #D3CE29",
"Y 	c #C7BC23",
"Z 	c #F1E032",
"` 	c #FBF71B",
" .	c #F7F512",
"..	c #F8F62B",
"+.	c #E2E15A",
"@.	c #8D8F29",
"#.	c #DBDA50",
"$.	c #F9F317",
"%.	c #F6F21C",
"&.	c #F2EF23",
"*.	c #F6F120",
"=.	c #F8F317",
"-.	c #F7F523",
";.	c #E8E629",
">.	c #CCCA4E",
",.	c #DEDA45",
"'.	c #F8F413",
").	c #F9F415",
"!.	c #F8F316",
"~.	c #F7F31C",
"{.	c #F9F419",
"].	c #F9F41B",
"^.	c #F4F050",
"/.	c #B8B633",
"(.	c #C1BD38",
"_.	c #DCE216",
":.	c #F3F415",
"<.	c #F9F41A",
"[.	c #F1ED30",
"}.	c #DFD91B",
"|.	c #DBCE24",
"1.	c #D4CF58",
"2.	c #93903A",
"3.	c #C5D321",
"4.	c #E8EC1A",
"5.	c #F7F328",
"6.	c #E4E253",
"7.	c #A7A320",
"8.	c #CAE93A",
"9.	c #E8F025",
"0.	c #F8F429",
"a.	c #8E8D26",
"b.	c #ABA813",
"c.	c #AAA715",
"d.	c #AEAD3C",
"e.	c #CCCB43",
"f.	c #DFDD2E",
"g.	c #EEEA2B",
"h.	c #D4D357",
"i.	c #878627",
"j.	c #C3C41E",
"k.	c #E2EC2D",
"l.	c #DADB56",
"m.	c #C3C732",
"n.	c #D7D52C",
"o.	c #BABB51",
"p.	c #A2A815",
"q.	c #B9CE2F",
"r.	c #D4D555",
"s.	c #989626",
"t.	c #9B9A2D",
"u.	c #CECB53",
"                                        ",
"                  . + @ # $ % & *       ",
"                  = - ; > , ' ) ! ~     ",
"                  { ] ^ / ( _ : < [ }   ",
"                  | 1 2     3 4 5 6 7 8 ",
"                  { 9 0 a b c d e f g h ",
"                  { i j k l m n o p q h ",
"                  { i r s t u v w x y z ",
"                  A B C D E F G H I J K ",
"                  L M N     O P Q R S T ",
"                  U V W X Y Z `  ...+.@.",
"                  #.9 $.%.&.*.=.-.;.>.  ",
"                  ,.'.).!.~.{.].^./.    ",
"                  (._.:.<.[.}.|.1.2.    ",
"                    3.4.5.6.7.          ",
"                    8.9.0.S a.  b.c.d.  ",
"                    e.f.g.h.i.  j.k.l.  ",
"                      m.n.o.    p.q.r.s.",
"                                  t.u.  ",
"                                        "};
