/* XPM */
static char * sq_up_xpm[] = {
"20 20 152 2",
"  	c None",
". 	c #C1BD38",
"+ 	c #DEDA45",
"@ 	c #DBDA50",
"# 	c #E7E34E",
"$ 	c #DFDC4B",
"% 	c #E3DC39",
"& 	c #E3DC38",
"* 	c #E2DC38",
"= 	c #E0DB37",
"- 	c #9C9B21",
"; 	c #CCCB43",
"> 	c #CAE93A",
", 	c #C5D321",
"' 	c #DCE216",
") 	c #F8F413",
"! 	c #FAF414",
"~ 	c #FAF416",
"{ 	c #FAF41A",
"] 	c #FAF417",
"^ 	c #FAF412",
"/ 	c #F8F419",
"( 	c #F8F417",
"_ 	c #F5F312",
": 	c #ADAC09",
"< 	c #C3C732",
"[ 	c #DFDD2E",
"} 	c #E8F025",
"| 	c #E8EC1A",
"1 	c #F3F415",
"2 	c #F9F415",
"3 	c #F9F317",
"4 	c #F4EF37",
"5 	c #F5ED62",
"6 	c #F8F254",
"7 	c #FAF71C",
"8 	c #F9F517",
"9 	c #F4F138",
"0 	c #E9EB63",
"a 	c #ECED55",
"b 	c #F7F51E",
"c 	c #B3B10E",
"d 	c #D7D52C",
"e 	c #EEEA2B",
"f 	c #F8F429",
"g 	c #F7F328",
"h 	c #F9F41A",
"i 	c #F8F316",
"j 	c #F6F21C",
"k 	c #D3CE29",
"l 	c #FBF839",
"m 	c #FAF71E",
"n 	c #F8F418",
"o 	c #E6E42E",
"p 	c #E1DF36",
"q 	c #EFED1D",
"r 	c #B3B212",
"s 	c #BABB51",
"t 	c #D4D357",
"u 	c #E3E055",
"v 	c #E4E253",
"w 	c #F1ED30",
"x 	c #F7F31C",
"y 	c #F2EF23",
"z 	c #C7BC23",
"A 	c #F4F331",
"B 	c #F8F51B",
"C 	c #F7F310",
"D 	c #DFE11A",
"E 	c #D9D71F",
"F 	c #EDEB1B",
"G 	c #B0B011",
"H 	c #878627",
"I 	c #8E8D26",
"J 	c #A7A320",
"K 	c #DFD91B",
"L 	c #F9F419",
"M 	c #F6F120",
"N 	c #F1E032",
"O 	c #DCD840",
"P 	c #E6E643",
"Q 	c #F7F320",
"R 	c #F7F435",
"S 	c #E9EF42",
"T 	c #CECF4A",
"U 	c #E1DF32",
"V 	c #F4F31E",
"W 	c #AEAE0F",
"X 	c #DBCE24",
"Y 	c #F9F41B",
"Z 	c #F8F317",
"` 	c #FBF71B",
" .	c #F9F61B",
"..	c #F9F51A",
"+.	c #F1F01B",
"@.	c #D9D83B",
"#.	c #D6D242",
"$.	c #F2EF21",
"%.	c #F7F414",
"&.	c #F5F317",
"*.	c #AAAA0E",
"=.	c #A2A815",
"-.	c #C3C41E",
";.	c #ABA813",
">.	c #D4CF58",
",.	c #F4F050",
"'.	c #F7F523",
").	c #F7F512",
"!.	c #F6F310",
"~.	c #F8F415",
"{.	c #E4E514",
"].	c #B3B709",
"^.	c #ABAA0A",
"/.	c #E6EB13",
"(.	c #F3F235",
"_.	c #F2EF52",
":.	c #AAAB3B",
"<.	c #9B9A2D",
"[.	c #B9CE2F",
"}.	c #E2EC2D",
"|.	c #AAA715",
"1.	c #93903A",
"2.	c #B8B633",
"3.	c #E8E629",
"4.	c #F8F62B",
"5.	c #F7F529",
"6.	c #F7F62C",
"7.	c #E9EC2C",
"8.	c #BDC12C",
"9.	c #B8BC34",
"0.	c #DFED33",
"a.	c #D6DF37",
"b.	c #ACA936",
"c.	c #CECB53",
"d.	c #D4D555",
"e.	c #DADB56",
"f.	c #AEAD3C",
"g.	c #CCCA4E",
"h.	c #E2E15A",
"i.	c #E1E05B",
"j.	c #E0E05B",
"k.	c #DBDA5B",
"l.	c #DADA5B",
"m.	c #DBDE5F",
"n.	c #CDD466",
"o.	c #989626",
"p.	c #8D8F29",
"q.	c #8C8D26",
"r.	c #8A8D29",
"s.	c #949329",
"t.	c #9B9929",
"u.	c #999830",
"                                        ",
"                                        ",
"                                        ",
"                                        ",
"                                        ",
"                                        ",
"                                        ",
"                                        ",
"                                        ",
"            . + @ # $ % & & & * & = -   ",
"      ; > , ' ) ! ~ { ] ^ ^ ! / ( _ :   ",
"    < [ } | 1 2 3 4 5 6 7 8 9 0 a b c   ",
"    d e f g h i j k   l m n o   p q r   ",
"    s t u v w x y z   A B C D   E F G   ",
"      H I J K L M N O P Q R S T U V W   ",
"            X Y Z `  ...+.@.#.$.%.&.*.  ",
"    =.-.;.  >.,.'.).!.~.{.].^./.(._.:.  ",
"  <.[.}.|.  1.2.3.4.5.6.7.8.9.0.a.b.    ",
"  c.d.e.f.      g.h.u i.j.k.l.m.n.      ",
"    o.            p.q.r.s.t.t.u.        "};
