/* XPM */
static char * trail_up_xpm[] = {
"20 20 52 1",
" 	c None",
".	c #818425",
"+	c #E8E739",
"@	c #E2DE21",
"#	c #DBDA0D",
"$	c #EBEF24",
"%	c #F1ED38",
"&	c #F2E32B",
"*	c #C1BD27",
"=	c #E1DD56",
"-	c #9C9857",
";	c #848424",
">	c #DDDA0C",
",	c #F3F123",
"'	c #F3ED38",
")	c #888422",
"!	c #E8E839",
"~	c #E1DF26",
"{	c #F5F322",
"]	c #878821",
"^	c #E2DF25",
"/	c #F6F323",
"(	c #F5F53A",
"_	c #E9ED28",
":	c #888621",
"<	c #E2DE22",
"[	c #F6F423",
"}	c #F9F73B",
"|	c #F0E92B",
"1	c #888421",
"2	c #E8E83A",
"3	c #E1E028",
"4	c #F9F53B",
"5	c #F3E82C",
"6	c #E1DF25",
"7	c #F5F323",
"8	c #F6F339",
"9	c #F4EC2B",
"0	c #FAF63B",
"a	c #F3E52D",
"b	c #E1DF27",
"c	c #F3E52C",
"d	c #F3ED2B",
"e	c #F9F63B",
"f	c #F3E62C",
"g	c #E9E739",
"h	c #F4ED2B",
"i	c #F5F222",
"j	c #F3F138",
"k	c #F4F222",
"l	c #F3EE38",
"m	c #F4F223",
"    .+@ #$%& *=-    ",
"    ;+@ >,'& *=-    ",
"    )!~ >{'& *=-    ",
"    ]!^ >/(_ *=-    ",
"    :+< >[}| *=-    ",
"    123 >[45 *=-    ",
"    1!6 >789 *=-    ",
"    1!~ >[0a *=-    ",
"    12b >[0c *=-    ",
"    1!6 >78d *=-    ",
"    123 >[ef *=-    ",
"    1!6 >[0a *=-    ",
"     !~ >[0a *=-    ",
"     g  >78h  =-    ",
"        >ij         ",
"        >kl         ",
"         m'         ",
"         {'         ",
"                    ",
"                    "};
