/* XPM */
static char * trail_end_down_xpm[] = {
"20 20 35 1",
" 	c None",
".	c #F3F03C",
"+	c #FBF92C",
"@	c #F2EF3C",
"#	c #F9F726",
"$	c #F3EE39",
"%	c #F5F323",
"&	c #F3F02B",
"*	c #F3F138",
"=	c #F5F222",
"-	c #DDDA0C",
";	c #F4ED2B",
">	c #F6F339",
",	c #F3E52D",
"'	c #FAF63B",
")	c #F6F423",
"!	c #F3E62C",
"~	c #F9F63B",
"{	c #F3ED2B",
"]	c #F3E52C",
"^	c #F4EC2B",
"/	c #F3E82C",
"(	c #F9F53B",
"_	c #F0E92B",
":	c #F9F73B",
"<	c #E9ED28",
"[	c #F5F53A",
"}	c #F6F323",
"|	c #F2E32B",
"1	c #F3ED38",
"2	c #F5F322",
"3	c #F3F123",
"4	c #F1ED38",
"5	c #EBEF24",
"6	c #DBDA0D",
"                    ",
"                    ",
"         .+         ",
"         @#         ",
"         $%         ",
"        &*=-        ",
"        ;>%-        ",
"        ,')-        ",
"        ,')-        ",
"        !~)-        ",
"        {>%-        ",
"        ]')-        ",
"        ,')-        ",
"        ^>%-        ",
"        /()-        ",
"        _:)-        ",
"        <[}-        ",
"        |12-        ",
"        |13-        ",
"        |456        "};
