/* XPM */
static char * trail_down_xpm[] = {
"20 20 53 1",
" 	c None",
".	c #F5F322",
"+	c #F3ED38",
"@	c #F4F223",
"#	c #F3EE38",
"$	c #F4F222",
"%	c #DDDA0C",
"&	c #E1DD56",
"*	c #F3F02B",
"=	c #F3F138",
"-	c #F5F222",
";	c #E9E739",
">	c #C1BD27",
",	c #F4ED2B",
"'	c #F6F339",
")	c #F5F323",
"!	c #F3E52D",
"~	c #FAF63B",
"{	c #F6F423",
"]	c #E8E839",
"^	c #9C9857",
"/	c #E1DF25",
"(	c #F3E62C",
"_	c #F9F63B",
":	c #E1E028",
"<	c #E8E83A",
"[	c #F3ED2B",
"}	c #888421",
"|	c #F3E52C",
"1	c #E1DF27",
"2	c #E1DF26",
"3	c #F4EC2B",
"4	c #F3E82C",
"5	c #F9F53B",
"6	c #F0E92B",
"7	c #F9F73B",
"8	c #E2DE22",
"9	c #E8E739",
"0	c #888621",
"a	c #E9ED28",
"b	c #F5F53A",
"c	c #F6F323",
"d	c #E2DF25",
"e	c #878821",
"f	c #F2E32B",
"g	c #888422",
"h	c #F3F123",
"i	c #E2DE21",
"j	c #848424",
"k	c #F1ED38",
"l	c #EBEF24",
"m	c #DBDA0D",
"n	c #818425",
"                    ",
"                    ",
"          .         ",
"         +@         ",
"         #$%        ",
"     &  *=-%  ;     ",
"     &> ,')%  ;     ",
"     &> !~{%  ]     ",
"    ^&> !~{% /]     ",
"    ^&> (_{% :<     ",
"    ^&> [')% /]}    ",
"    ^&> |~{% 1<}    ",
"    ^&> !~{% 2]}    ",
"    ^&> 3')% /]}    ",
"    ^&> 45{% :<}    ",
"    ^&> 67{% 890    ",
"    ^&> abc% d]e    ",
"    ^&> f+.% 2]g    ",
"    ^&> f+h% i9j    ",
"    ^&> fklm i9n    "};
