/* XPM */
static char * trail_1_xpm[] = {
"40 40 143 2",
"  	c None",
". 	c #53581C",
"+ 	c #96982A",
"@ 	c #E4E53D",
"# 	c #F2F037",
"$ 	c #E1DC1E",
"% 	c #D9D80B",
"& 	c #E4EA1A",
"* 	c #EEF62B",
"= 	c #F0F03B",
"- 	c #F1E938",
"; 	c #F2E22A",
"> 	c #BDBA21",
", 	c #E3DF4E",
"' 	c #E7E260",
") 	c #ABA659",
"! 	c #817C55",
"~ 	c #DAD80B",
"{ 	c #E8EB19",
"] 	c #F2F62B",
"^ 	c #F2F13B",
"/ 	c #54581C",
"( 	c #DBD80B",
"_ 	c #EDEC18",
": 	c #F9F72A",
"< 	c #F3F13B",
"[ 	c #5B5819",
"} 	c #999829",
"| 	c #E5E53D",
"1 	c #EFED18",
"2 	c #FBF92A",
"3 	c #F4F13B",
"4 	c #605717",
"5 	c #9B9727",
"6 	c #F2F038",
"7 	c #E0DD21",
"8 	c #F0EE17",
"9 	c #FCF929",
"0 	c #F4F13A",
"a 	c #F1E838",
"b 	c #605816",
"c 	c #9B9827",
"d 	c #F1F139",
"e 	c #DFDE27",
"f 	c #FCFA29",
"g 	c #F5F23B",
"h 	c #5F5E16",
"i 	c #9A9A27",
"j 	c #DFDE25",
"k 	c #F0ED17",
"l 	c #FDFB2A",
"m 	c #F8F63C",
"n 	c #F1EF38",
"o 	c #EBEA27",
"p 	c #5E6416",
"q 	c #9A9D27",
"r 	c #E1DD1F",
"s 	c #FEFC2B",
"t 	c #FCFB3E",
"u 	c #F1F639",
"v 	c #E4F125",
"w 	c #FEFD2B",
"x 	c #FDFC3E",
"y 	c #F5F43A",
"z 	c #ECEB28",
"A 	c #F8F13B",
"B 	c #F3E42A",
"C 	c #605716",
"D 	c #F3E42B",
"E 	c #F9F83D",
"F 	c #F5F139",
"G 	c #F3EA2A",
"H 	c #E1DD20",
"I 	c #FCFA2A",
"J 	c #F6F33B",
"K 	c #F3F038",
"L 	c #F4EF2A",
"M 	c #F2F138",
"N 	c #E0DD23",
"O 	c #F3E32B",
"P 	c #F1F13A",
"Q 	c #F7F13A",
"R 	c #F3E52A",
"S 	c #F4F039",
"T 	c #F3EC2A",
"U 	c #F6F43B",
"V 	c #FDFC2B",
"W 	c #FBFA3D",
"X 	c #F3E72A",
"Y 	c #FAF83D",
"Z 	c #F6F139",
"` 	c #F3E92A",
" .	c #F5F33B",
"..	c #F4F12A",
"+.	c #F4F23A",
"@.	c #F2EF38",
"#.	c #F4F22A",
"$.	c #605817",
"%.	c #F2EE38",
"&.	c #F3EE2A",
"*.	c #F1EA38",
"=.	c #F2E62A",
"-.	c #5F590E",
";.	c #9A9824",
">.	c #E5E53C",
",.	c #AAA659",
"'.	c #5E5B01",
").	c #9A9920",
"!.	c #E1DD1E",
"~.	c #EEEC18",
"{.	c #FAF82A",
"].	c #ABA759",
"^.	c #E5E43C",
"/.	c #F3F138",
"(.	c #EAE560",
"_.	c #B0AB59",
":.	c #5E5616",
"<.	c #9E9B28",
"[.	c #E7E73E",
"}.	c #F5F33A",
"|.	c #E2DE21",
"1.	c #BDBB22",
"2.	c #E4E04F",
"3.	c #EFEA61",
"4.	c #BCB75B",
"5.	c #ACA92C",
"6.	c #EDED3F",
"7.	c #F8F83F",
"8.	c #C0BD26",
"9.	c #E8E453",
"0.	c #F7F262",
"a.	c #F5F442",
"b.	c #FBFB42",
"c.	c #F0EB5A",
"d.	c #FBF663",
"e.	c #FBFB44",
"f.	c #FCFC44",
"g.	c #F0E22A",
"h.	c #F9F462",
"i.	c #F0EC39",
"j.	c #E6E029",
"k.	c #EFEF3A",
"l.	c #DEDE29",
"                . + @ # $         % & * = - ;         > , ' ) !                 ",
"                . + @ # $         ~ { ] ^ - ;         > , ' ) !                 ",
"                / + @ # $         ( _ : < - ;         > , ' ) !                 ",
"                [ } | # $         ( 1 2 3 - ;         > , ' ) !                 ",
"                4 5 | 6 7         ( 8 9 0 a ;         > , ' ) !                 ",
"                b c | d e         ( 8 f g - ;         > , ' ) !                 ",
"                h i | d j         ( k l m n o         > , ' ) !                 ",
"                p q | # r         ( k s t u v         > , ' ) !                 ",
"                h i | # $         ( k w x y z         > , ' ) !                 ",
"                b c | 6 7         ( k w x A B         > , ' ) !                 ",
"                C 5 | d e         ( k w x A D         > , ' ) !                 ",
"                b c | d j         ( k l E F G         > , ' ) !                 ",
"                b c | 6 H         ( k I J K L         > , ' ) !                 ",
"                b c | d j         ( k l E F G         > , ' ) !                 ",
"                b 5 | d e         ( k w x A D         > , ' ) !                 ",
"                b c | 6 7         ( k w x A D         > , ' ) !                 ",
"                b c | M N         ( k w x A O         > , ' ) !                 ",
"                b 5 | P e         ( k s t Q R         > , ' ) !                 ",
"                b c | M N         ( k l m S T         > , ' ) !                 ",
"                b c | 6 7         ( k I U K L         > , ' ) !                 ",
"                b 5 | d e         ( k V W Q X         > , ' ) !                 ",
"                b c | d j         ( k w x A O         > , ' ) !                 ",
"                b c | 6 H         ( k w x A D         > , ' ) !                 ",
"                b c | d j         ( k w x A D         > , ' ) !                 ",
"                b 5 | d e         ( k w x A D         > , ' ) !                 ",
"                b c | 6 7         ( k w x A D         > , ' ) !                 ",
"                b c | # $         ( k l Y Z `         > , ' ) !                 ",
"                b c | # $         ( 8 I  .6 ..        > , ' ) !                 ",
"                b c | # $         ( 8 9 +.@.#.        > , ' ) !                 ",
"                $.c | # $         ( 8 9 +.%.&.        > , ' ) !                 ",
"                b c | # $         ( 8 9 +.*.=.        > , ' ) !                 ",
"                -.;.>.# $         ( 1 2 3 a ;         > , ' ,.!                 ",
"                '.).>.# !.        ( ~.{.3 - ;         > , ' ].!                 ",
"                -.;.^./.r         ( 1 2 3 - ;         > , (._.                  ",
"                :.<.[.}.|.        ( 8 9 +.a ;         1.2.3.4.                  ",
"                  5.6.7.          ( 8 f +.a ;         8.9.0.                    ",
"                    a.b.          ( 8 9 0 a ;           c.d.                    ",
"                    e.f.          ( 8 I g - g.          h.d.                    ",
"                                  ( k l E i.j.                                  ",
"                                  ( k w x k.l.                                  "};
