/* XPM */
static char * trail_end_left_xpm[] = {
"20 20 35 1",
" 	c None",
".	c #F2E32B",
"+	c #E9ED28",
"@	c #F0E92B",
"#	c #F3E82C",
"$	c #F4EC2B",
"%	c #F3E52D",
"&	c #F3E52C",
"*	c #F3ED2B",
"=	c #F3E62C",
"-	c #F4ED2B",
";	c #F3F02B",
">	c #F1ED38",
",	c #F3ED38",
"'	c #F5F53A",
")	c #F9F73B",
"!	c #F9F53B",
"~	c #F6F339",
"{	c #FAF63B",
"]	c #F9F63B",
"^	c #F3F138",
"/	c #F3EE39",
"(	c #F2EF3C",
"_	c #F3F03C",
":	c #EBEF24",
"<	c #F3F123",
"[	c #F5F322",
"}	c #F6F323",
"|	c #F6F423",
"1	c #F5F323",
"2	c #F5F222",
"3	c #F9F726",
"4	c #FBF92C",
"5	c #DBDA0D",
"6	c #DDDA0C",
"                    ",
"                    ",
"                    ",
"                    ",
"                    ",
"                    ",
"                    ",
"                    ",
"...+@#$%&*=%%-;     ",
">,,')!~{{~]{{~^/(_  ",
":<[}||1||1|||12134  ",
"566666666666666     ",
"                    ",
"                    ",
"                    ",
"                    ",
"                    ",
"                    ",
"                    ",
"                    "};
