/* XPM */
static char * trail_left_xpm[] = {
"20 20 51 1",
" 	c None",
".	c #9C9857",
"+	c #E1DD56",
"@	c #C1BD27",
"#	c #F2E32B",
"$	c #E9ED28",
"%	c #F0E92B",
"&	c #F3E82C",
"*	c #F4EC2B",
"=	c #F3E52D",
"-	c #F3E52C",
";	c #F3ED2B",
">	c #F3E62C",
",	c #F4ED2B",
"'	c #F1ED38",
")	c #F3ED38",
"!	c #F5F53A",
"~	c #F9F73B",
"{	c #F9F53B",
"]	c #F6F339",
"^	c #FAF63B",
"/	c #F9F63B",
"(	c #F3F138",
"_	c #F3EE38",
":	c #EBEF24",
"<	c #F3F123",
"[	c #F5F322",
"}	c #F6F323",
"|	c #F6F423",
"1	c #F5F323",
"2	c #F5F222",
"3	c #F4F222",
"4	c #F4F223",
"5	c #DBDA0D",
"6	c #DDDA0C",
"7	c #E2DE21",
"8	c #E1DF26",
"9	c #E2DF25",
"0	c #E2DE22",
"a	c #E1E028",
"b	c #E1DF25",
"c	c #E1DF27",
"d	c #E8E739",
"e	c #E8E839",
"f	c #E8E83A",
"g	c #818425",
"h	c #848424",
"i	c #888422",
"j	c #878821",
"k	c #888621",
"l	c #888421",
"                    ",
"                    ",
"                    ",
"                    ",
"............        ",
"++++++++++++++      ",
"@@@@@@@@@@@@@       ",
"                    ",
"###$%&*=-;>==,      ",
"'))!~{]^^]/^^](_    ",
":<[}||1||1|||1234   ",
"56666666666666      ",
"                    ",
"77890ab8cbab        ",
"ddeedfeefefee       ",
"ghijkllll           ",
"                    ",
"                    ",
"                    ",
"                    "};
