/* XPM */
static char * trail_right_xpm[] = {
"20 20 55 1",
" 	c None",
".	c #888421",
"+	c #888621",
"@	c #878821",
"#	c #888422",
"$	c #848424",
"%	c #818425",
"&	c #E9E738",
"*	c #E9E739",
"=	c #E8E839",
"-	c #E8E83A",
";	c #E8E739",
">	c #E2DE21",
",	c #E1DF26",
"'	c #E1DF25",
")	c #E1E028",
"!	c #E1DF27",
"~	c #E2DE22",
"{	c #E2DF25",
"]	c #DDDA0C",
"^	c #DBDA0D",
"/	c #F5F322",
"(	c #F4F223",
"_	c #F4F222",
":	c #F5F222",
"<	c #F5F323",
"[	c #F6F423",
"}	c #F6F323",
"|	c #F3F123",
"1	c #EBEF24",
"2	c #F3ED38",
"3	c #F3EE38",
"4	c #F3F138",
"5	c #F6F339",
"6	c #FAF63B",
"7	c #F9F63B",
"8	c #F9F53B",
"9	c #F9F73B",
"0	c #F5F53A",
"a	c #F1ED38",
"b	c #F2E52B",
"c	c #F3F02B",
"d	c #F4ED2B",
"e	c #F3E52D",
"f	c #F3E62C",
"g	c #F3ED2B",
"h	c #F3E52C",
"i	c #F4EC2B",
"j	c #F3E82C",
"k	c #F0E92B",
"l	c #E9ED28",
"m	c #F2E32B",
"n	c #C1BD27",
"o	c #E1DD56",
"p	c #9C9857",
"                    ",
"                    ",
"                    ",
"                    ",
"      .........+@#$%",
"   &&**==-=-==-;==;;",
"      >,')'!,')~{,>>",
"                    ",
"    ]]]]]]]]]]]]]]]^",
" //(_:<[[[<[[<[[}/|1",
" 222345667566589022a",
"    bcdeefgheijklmmm",
"                    ",
"      nnnnnnnnnnnnnn",
"    oooooooooooooooo",
"      pppppppppppppp",
"                    ",
"                    ",
"                    ",
"                    "};
