/* XPM */
static char * train_end_right_xpm[] = {
"20 20 35 1",
" 	c None",
".	c #DDDA0C",
"+	c #DBDA0D",
"@	c #FBF92C",
"#	c #F9F726",
"$	c #F5F323",
"%	c #F5F222",
"&	c #F6F423",
"*	c #F6F323",
"=	c #F5F322",
"-	c #F3F123",
";	c #EBEF24",
">	c #F3F03C",
",	c #F2EF3C",
"'	c #F3EE39",
")	c #F3F138",
"!	c #F6F339",
"~	c #FAF63B",
"{	c #F9F63B",
"]	c #F9F53B",
"^	c #F9F73B",
"/	c #F5F53A",
"(	c #F3ED38",
"_	c #F1ED38",
":	c #F3F02B",
"<	c #F4ED2B",
"[	c #F3E52D",
"}	c #F3E62C",
"|	c #F3ED2B",
"1	c #F3E52C",
"2	c #F4EC2B",
"3	c #F3E82C",
"4	c #F0E92B",
"5	c #E9ED28",
"6	c #F2E32B",
"                    ",
"                    ",
"                    ",
"                    ",
"                    ",
"                    ",
"                    ",
"                    ",
"     ..............+",
"  @#$%$&&&$&&$&&*=-;",
"  >,')!~~{!~~!]^/((_",
"     :<[[}|1[2345666",
"                    ",
"                    ",
"                    ",
"                    ",
"                    ",
"                    ",
"                    ",
"                    "};
