/* XPM */
static char * trail_2_xpm[] = {
"40 40 81 1",
" 	c None",
".	c #D9D80B",
"+	c #E4EA1A",
"@	c #EEF62B",
"#	c #F0F03B",
"$	c #F1E938",
"%	c #F2E22A",
"&	c #DAD80B",
"*	c #E8EB19",
"=	c #F2F62B",
"-	c #F2F13B",
";	c #DBD80B",
">	c #EDEC18",
",	c #F9F72A",
"'	c #F3F13B",
")	c #EFED18",
"!	c #FBF92A",
"~	c #F4F13B",
"{	c #F0EE17",
"]	c #FCF929",
"^	c #F4F13A",
"/	c #F1E838",
"(	c #FCFA29",
"_	c #F5F23B",
":	c #F0ED17",
"<	c #FDFB2A",
"[	c #F8F63C",
"}	c #F1EF38",
"|	c #EBEA27",
"1	c #FEFC2B",
"2	c #FCFB3E",
"3	c #F1F639",
"4	c #E4F125",
"5	c #FEFD2B",
"6	c #FDFC3E",
"7	c #F5F43A",
"8	c #ECEB28",
"9	c #F8F13B",
"0	c #F3E42A",
"a	c #F3E42B",
"b	c #F9F83D",
"c	c #F5F139",
"d	c #F3EA2A",
"e	c #FCFA2A",
"f	c #F6F33B",
"g	c #F3F038",
"h	c #F4EF2A",
"i	c #F3E32B",
"j	c #F7F13A",
"k	c #F3E52A",
"l	c #F4F039",
"m	c #F3EC2A",
"n	c #F6F43B",
"o	c #FDFC2B",
"p	c #FBFA3D",
"q	c #F3E72A",
"r	c #FAF83D",
"s	c #F6F139",
"t	c #F3E92A",
"u	c #F5F33B",
"v	c #F2F038",
"w	c #F4F12A",
"x	c #F4F23A",
"y	c #F2EF38",
"z	c #F4F22A",
"A	c #F2EE38",
"B	c #F3EE2A",
"C	c #F1EA38",
"D	c #F2E62A",
"E	c #DCD90C",
"F	c #F2F019",
"G	c #F1E93A",
"H	c #F2E22B",
"I	c #F7F51C",
"J	c #FAF72B",
"K	c #F1EC3E",
"L	c #FCFA1E",
"M	c #FAF82B",
"N	c #F1ED40",
"O	c #FBF92B",
"P	c #F1EE41",
"                 .+@#$%                 ",
"                 &*=-$%                 ",
"                 ;>,'$%                 ",
"                 ;)!~$%                 ",
"                 ;{]^/%                 ",
"                 ;{(_$%                 ",
"                 ;:<[}|                 ",
"                 ;:1234                 ",
"                 ;:5678                 ",
"                 ;:5690                 ",
"                 ;:569a                 ",
"                 ;:<bcd                 ",
"                 ;:efgh                 ",
"                 ;:<bcd                 ",
"                 ;:569a                 ",
"                 ;:569a                 ",
"                 ;:569i                 ",
"                 ;:12jk                 ",
"                 ;:<[lm                 ",
"                 ;:engh                 ",
"                 ;:opjq                 ",
"                 ;:569i                 ",
"                 ;:569a                 ",
"                 ;:569a                 ",
"                 ;:569a                 ",
"                 ;:569a                 ",
"                 ;:<rst                 ",
"                 ;{euvw                 ",
"                 ;{]xyz                 ",
"                 ;:]xAB                 ",
"                 ;{]xCD                 ",
"                 EF!~GH                 ",
"                  IJ'K                  ",
"                  LM'N                  ",
"                   O~P                  ",
"                   e~                   ",
"                                        ",
"                                        ",
"                                        ",
"                                        "};
