/* XPM */
static char * train_end_up_xpm[] = {
"20 20 35 1",
" 	c None",
".	c #DBDA0D",
"+	c #EBEF24",
"@	c #F1ED38",
"#	c #F2E32B",
"$	c #DDDA0C",
"%	c #F3F123",
"&	c #F3ED38",
"*	c #F5F322",
"=	c #F6F323",
"-	c #F5F53A",
";	c #E9ED28",
">	c #F6F423",
",	c #F9F73B",
"'	c #F0E92B",
")	c #F9F53B",
"!	c #F3E82C",
"~	c #F5F323",
"{	c #F6F339",
"]	c #F4EC2B",
"^	c #FAF63B",
"/	c #F3E52D",
"(	c #F3E52C",
"_	c #F3ED2B",
":	c #F9F63B",
"<	c #F3E62C",
"[	c #F4ED2B",
"}	c #F5F222",
"|	c #F3F138",
"1	c #F3F02B",
"2	c #F3EE39",
"3	c #F9F726",
"4	c #F2EF3C",
"5	c #FBF92C",
"6	c #F3F03C",
"        .+@#        ",
"        $%&#        ",
"        $*&#        ",
"        $=-;        ",
"        $>,'        ",
"        $>)!        ",
"        $~{]        ",
"        $>^/        ",
"        $>^(        ",
"        $~{_        ",
"        $>:<        ",
"        $>^/        ",
"        $>^/        ",
"        $~{[        ",
"        $}|1        ",
"         ~2         ",
"         34         ",
"         56         ",
"                    ",
"                    "};
