/* XPM */
static char * vert_sl_xpm[] = {
"20 20 125 2",
"  	c None",
". 	c #919129",
"+ 	c #999914",
"@ 	c #99970F",
"# 	c #99970C",
"$ 	c #8C8D27",
"% 	c #D3D236",
"& 	c #DCDA25",
"* 	c #DDDC1C",
"= 	c #DEDC1B",
"- 	c #DEDB1A",
"; 	c #DEDC1A",
"> 	c #DFDC1A",
", 	c #D6D41F",
"' 	c #9F9C38",
") 	c #AEAD1A",
"! 	c #F0EC21",
"~ 	c #F9F418",
"{ 	c #F9F41A",
"] 	c #FAF419",
"^ 	c #F2EC21",
"/ 	c #B7B33E",
"( 	c #D8D732",
"_ 	c #F1EF25",
": 	c #F7F117",
"< 	c #F9F316",
"[ 	c #FAF316",
"} 	c #FAF416",
"| 	c #FAF317",
"1 	c #F8F21A",
"2 	c #F0ED26",
"3 	c #DFDC40",
"4 	c #D2D317",
"5 	c #E8E61D",
"6 	c #F9F618",
"7 	c #F9F517",
"8 	c #FAF517",
"9 	c #FAF417",
"0 	c #FAF515",
"a 	c #EFEC2A",
"b 	c #E1E437",
"c 	c #AFAE1C",
"d 	c #F3F41A",
"e 	c #F6F419",
"f 	c #F9F317",
"g 	c #F9F417",
"h 	c #F7F519",
"i 	c #F2F721",
"j 	c #C5C749",
"k 	c #ADAE1E",
"l 	c #F5F318",
"m 	c #F8F415",
"n 	c #F9F416",
"o 	c #F8F515",
"p 	c #F7F619",
"q 	c #C7C64A",
"r 	c #AFAE1F",
"s 	c #F5F216",
"t 	c #F7F215",
"u 	c #F6F418",
"v 	c #C7C651",
"w 	c #B1AF27",
"x 	c #F5F316",
"y 	c #F8F315",
"z 	c #F9F318",
"A 	c #F7F617",
"B 	c #C6C651",
"C 	c #ACAE20",
"D 	c #F3F41B",
"E 	c #F8F416",
"F 	c #F8F519",
"G 	c #F3F619",
"H 	c #F6F518",
"I 	c #A9B020",
"J 	c #EEF520",
"K 	c #F7F518",
"L 	c #F7F212",
"M 	c #FAF418",
"N 	c #F8F618",
"O 	c #F5F61B",
"P 	c #F2F517",
"Q 	c #C4C648",
"R 	c #D1D824",
"S 	c #EAE91E",
"T 	c #F9F514",
"U 	c #F8F51B",
"V 	c #F6F517",
"W 	c #F3F617",
"X 	c #E8EA28",
"Y 	c #D5DF36",
"Z 	c #DADA1F",
"` 	c #E8EF1C",
" .	c #F5F319",
"..	c #F8F318",
"+.	c #F3F416",
"@.	c #E2EE20",
"#.	c #D8E43D",
"$.	c #B3B51B",
"%.	c #EFED1C",
"&.	c #F5F61D",
"*.	c #FAF618",
"=.	c #FBF519",
"-.	c #FBF619",
";.	c #F9F518",
">.	c #F6F81E",
",.	c #EEEF28",
"'.	c #B2B43E",
").	c #D5D41D",
"!.	c #D7D51C",
"~.	c #DAD824",
"{.	c #DAD821",
"].	c #D9D724",
"^.	c #DAD722",
"/.	c #D9D722",
"(.	c #D9D820",
"_.	c #D1D038",
":.	c #9C9A3E",
"<.	c #78771D",
"[.	c #78781D",
"}.	c #85842A",
"|.	c #818024",
"1.	c #7C782A",
"2.	c #7D7A25",
"3.	c #7D7927",
"4.	c #7E7C1C",
"                                        ",
"                                        ",
"            . + @ # # # # #             ",
"        $ % & * = - - ; > - , '         ",
"        ) ! ~ { { { { ] ] { ^ /         ",
"      ( _ : < [ } } [ [ [ | 1 2 3       ",
"    4 5 6 7 8 8 8 8 8 9 9 8 } 0 a b     ",
"  c d e f g 8 8 8 8 9 9 8 9 [ [ h i j   ",
"  k l m f n n 8 8 8 [ [ [ } [ } o p q   ",
"  r s t f n n 9 8 8 [ [ } 8 } 9 o u v   ",
"  w x y z 8 9 9 8 8 [ [ 9 8 } g A u B   ",
"  C D E E 8 8 8 8 8 9 9 9 8 8 F G H B   ",
"  I J K L g z M 8 8 8 8 8 8 N O P J Q   ",
"    R S T g z ~ 8 8 8 8 8 U V W X Y     ",
"      Z `  ...f g 8 8 8 g F +.@.#.      ",
"        $.%.&.n g *.=.-.;.>.,.'.        ",
"          , ).!.~.{.].^./.(._.:.        ",
"            <.[.}.|.1.2.3.4.            ",
"                                        ",
"                                        "};
