/* XPM */
static char * wall1_xpm[] = {
"20 20 40 1",
" 	c #781CC9",
".	c #6C18D6",
"+	c #7910E2",
"@	c #6D1DC9",
"#	c #721FC4",
"$	c #000000",
"%	c #43044B",
"&	c #621E94",
"*	c #6D23BF",
"=	c #000100",
"-	c #000001",
";	c #000102",
">	c #000104",
",	c #150215",
"'	c #0A020B",
")	c #37023E",
"!	c #010200",
"~	c #000201",
"{	c #28032C",
"]	c #51185C",
"^	c #701FC8",
"/	c #6920AA",
"(	c #6C1BA0",
"_	c #7010E2",
":	c #562584",
"<	c #7610E1",
"[	c #7510E1",
"}	c #6B19D1",
"|	c #6D1DCB",
"1	c #6D1CCD",
"2	c #6E1BCF",
"3	c #6C1CCD",
"4	c #6C1CCB",
"5	c #7117D6",
"6	c #6D16D9",
"7	c #6919D4",
"8	c #6B1BD0",
"9	c #6C1DCB",
"0	c #6A19D4",
"a	c #6916D9",
"  ..++....@@@@.##@#@",
"  $$$$$$$$$$$$$$$$$.",
"#$$$$$$%&&&+$$$$$$$.",
" $$$$$$$$$$$$$$%%$$.",
" *$$$$$$$$$$$$$$%$*.",
".$$$$$$$$$$$$$$$$$$.",
"@*$$$$$$$$$$$$$$$$*.",
".$$$$$$$$$$$$$$$$$$ ",
"*$&$$$$$$$$$$$$$$$$#",
"*$$$$$$$$$$$$$$$$$$@",
" $$$$$$$$$$$$$$$$$$ ",
"*&$$$$$$$$$==$$$$$$ ",
"*$$$$$$$$$$$=$$$$$$.",
".$%$$$$$$-;>>$$$$$ @",
"+$,$$'$$$$$$$$$$+$$.",
" $)$$$!~{$$$$]$$$$$.",
"^*$$$$$$$$/($$$$$$$@",
"_$$$$$$$$$$$$$:$$$$.",
"<$$$$$$[$$$$$.$ $ }[",
"#^@|12.3|45@@678930a"};
