/* XPM */
static char * wall4_xpm[] = {
"20 20 27 1",
" 	c #781CC9",
".	c #6D23BF",
"+	c #6C18D6",
"@	c #6D1DC9",
"#	c #721FC4",
"$	c #000000",
"%	c #621E94",
"&	c #000100",
"*	c #000001",
"=	c #000102",
"-	c #000104",
";	c #37023E",
">	c #701FC8",
",	c #7010E2",
"'	c #7610E1",
")	c #6B19D1",
"!	c #7510E1",
"~	c #6D1DCB",
"{	c #6D1CCD",
"]	c #6E1BCF",
"^	c #6C1CCD",
"/	c #6C1CCB",
"(	c #7117D6",
"_	c #6B1BD0",
":	c #6C1DCB",
"<	c #6A19D4",
"[	c #6916D9",
"  .+..+...@@@@+.#@#.",
" .$$$$$.$$$$$$$..$.+",
"#..$$$$$.$%$$$$$$$$+",
".$$$$$$$$.$$$$$$$.$+",
".$$$$$$$$$$$$$$$$$.+",
".$$$$$$$$$$$$$$.$$.+",
".$$$$$$$$$$$$$$.$$$+",
"..$$$$$$$$$$$$$$$$$.",
"..%$$$$$$$$$$$$$$.$.",
".$.$$$$$$$$$$$$$$$..",
".$.$$$$$$$$$$$$$$$..",
"..$$$$$$$$$&&$$$$$$.",
".$$$$$$$$$$$&$$$$.$.",
".$$$$$$$$*=--$$$$$$.",
"..$$$$$$$$$$$$$$$$$.",
".$;$$$$$$$$$$$$$$$$.",
">$$$$$$$$$$$.$$$$...",
",$$$$$$$$.$$$$$$$$$+",
"'$..$$$$....$$$$$ )!",
"#>@~{]+^~/(...._:^<["};
