/* XPM */
static char * wall_down_xpm[] = {
"10 10 13 1",
" 	c #CE05E9",
".	c #A806BB",
"+	c #53065B",
"@	c #000000",
"#	c #D104E7",
"$	c #CA06E1",
"%	c #8C099F",
"&	c #9305A2",
"*	c #670374",
"=	c #010103",
"-	c #5F0B6D",
";	c #720683",
">	c #6B0973",
" .+@@@@#.$",
"$+%@@@@&* ",
" %=@@@@-;$",
"$+@@@@@.% ",
" >.@@@@>%$",
"$%>@@@@.+ ",
" %.@@@@.>$",
"$>@@@@@@% ",
" +%@@@@%+$",
"$%+@@@@ % "};
