/* XPM */
static char * wall_right_xpm[] = {
"10 10 13 1",
" 	c #CA06E1",
".	c #CE05E9",
"+	c #A806BB",
"@	c #670374",
"#	c #720683",
"$	c #8C099F",
"%	c #53065B",
"&	c #6B0973",
"*	c #D104E7",
"=	c #9305A2",
"-	c #5F0B6D",
";	c #000000",
">	c #010103",
" . . . . .",
"+@#$$%&$%$",
"*=-+&++;$.",
";;;;;;;;;;",
";;;;;;;;;;",
";;;;;;;;;;",
";;;;;;;;;;",
"%$>;+&+;$%",
"+%$%&$$&%$",
". . . . . "};
